<svg width="31" height="31" viewBox="0 0 31 31" xmlns="http://www.w3.org/2000/svg">
    <path d="M23.192 30.9H7.255a7.04 7.04 0 0 1-7.032-7.032V7.931A7.04 7.04 0 0 1 7.255.9h15.937a7.04 7.04 0 0 1 7.031 7.03v15.938a7.04 7.04 0 0 1-7.03 7.032zM7.255 3.243a4.693 4.693 0 0 0-4.688 4.688v15.937a4.693 4.693 0 0 0 4.688 4.688h15.937a4.693 4.693 0 0 0 4.688-4.688V7.931a4.693 4.693 0 0 0-4.688-4.688H7.255zm16.23 2.93a1.465 1.465 0 1 0 0 2.93 1.465 1.465 0 0 0 0-2.93zm-8.262 17.344c-4.2 0-7.617-3.417-7.617-7.617.419-10.106 14.818-10.103 15.235 0 0 4.2-3.417 7.617-7.618 7.617zm0-12.89A5.28 5.28 0 0 0 9.95 15.9c.29 6.996 10.258 6.993 10.547 0a5.28 5.28 0 0 0-5.274-5.274z" fill="#2C2C2C" fill-rule="nonzero"/>
</svg>
