<?xml version="1.0" encoding="UTF-8"?>
<svg width="193px" height="136px" viewBox="0 0 193 136" version="1.1" xmlns="http://www.w3.org/2000/svg" xmlns:xlink="http://www.w3.org/1999/xlink">
    <title>92D7D396-9ADD-47AF-AE8C-975CD8EB4BB2</title>
    <g id="Design" stroke="none" stroke-width="1" fill="none" fill-rule="evenodd">
        <g id="Mobile-homepage" transform="translate(-91.000000, -11.000000)" fill="#2C2C2C" fill-rule="nonzero">
            <g id="Group-3" transform="translate(91.981990, 11.964671)">
                <g id="Group" transform="translate(24.265115, 0.000000)">
                    <polygon id="Path" points="30.2111479 34.8274889 14.3269709 34.8274889 30.2111479 10.0011735 30.2111479 0.907022034 0 0.907022034 0 10.378678 15.884177 10.378678 0 35.2049934 0 44.2991449 30.2111479 44.2991449"></polygon>
                    <polygon id="Path" points="62.2575744 34.8274889 46.2341926 34.8274889 46.2341926 26.2203857 61.0478747 26.2203857 61.0478747 16.7487298 46.2341926 16.7487298 46.2341926 10.378678 62.2575744 10.378678 62.2575744 0.907022034 33.9811373 0.907022034 33.9811373 44.2991449 62.2575744 44.2991449"></polygon>
                    <path d="M78.8364272,29.7878035 L80.6444042,29.7878035 L88.4442544,44.2994819 L102.172274,44.2994819 L92.0096498,27.731415 C95.585157,25.9807378 99.5759191,22.4379252 99.5759191,15.3479184 C99.5759191,4.68948255 90.33144,0.907359091 82.4146308,0.907359091 L66.5833718,0.907359091 L66.5833718,44.2994819 L78.8367642,44.2994819 L78.8367642,29.7878035 L78.8364272,29.7878035 Z M78.8364272,10.0763373 L82.4142937,10.0763373 C84.6786468,10.0763373 87.3225267,11.4569253 87.3225267,15.3475813 C87.3225267,19.5058611 84.6786468,20.9811622 82.4142937,20.9811622 L78.8364272,20.9811622 L78.8364272,10.0763373 Z" id="Shape"></path>
                    <path d="M121.898571,45.2061669 C134.417227,45.2061669 142.506273,36.3337994 142.506273,22.6030835 C142.506273,8.87236752 134.417227,0 121.898571,0 C109.379914,0 101.290868,8.87236752 101.290868,22.6030835 C101.290868,36.3337994 109.379577,45.2061669 121.898571,45.2061669 Z M121.898571,9.47165595 C127.113863,9.47165595 129.648873,13.7671182 129.648873,22.6030835 C129.648873,31.4393858 127.113863,35.734848 121.898571,35.734848 C116.683278,35.734848 114.148268,31.4393858 114.148268,22.6030835 C114.148268,13.7671182 116.683278,9.47165595 121.898571,9.47165595 Z" id="Shape"></path>
                </g>
                <g id="Group" transform="translate(0.000000, 48.170926)">
                    <polygon id="Path" points="28.3239623 13.2669247 30.5933712 24.6139692 33.7118282 38.6473628 46.2196991 38.6473628 56.4884963 0.000337057612 55.3846327 0.000337057612 46.2604831 0.000337057612 45.1704388 0.000337057612 42.685313 11.8927408 40.5372449 23.121141 38.2887335 11.8802696 35.7179951 0.000337057612 34.6262655 0.000337057612 23.0564259 0.000337057612 21.9640222 0.000337057612 19.3467699 11.888359 17.1002809 23.121141 14.9505274 11.8856626 12.5115786 0.000337057612 11.4222084 0.000337057612 1.10386368 0.000337057612 0 0.000337057612 10.2687972 38.6473628 22.7749828 38.6473628 25.9547843 24.6183509"></polygon>
                    <path d="M77.2104613,30.0614943 L79.6291867,38.6473628 L92.5671431,38.6473628 L79.53717,0.000337057612 L78.4110605,0.000337057612 L65.0275139,0.000337057612 L63.9014044,0.000337057612 L50.8717683,38.6473628 L62.5969914,38.6473628 L65.0763872,30.0614943 L77.2104613,30.0614943 L77.2104613,30.0614943 Z M68.0330566,19.6255165 L71.1451095,7.69738468 L74.2574995,19.628213 L74.5621996,20.7711753 L67.689932,20.7711753 L68.0330566,19.6255165 Z" id="Shape"></path>
                    <path d="M110.205368,30.3847325 C106.455939,30.3847325 104.58864,28.6404594 104.328431,24.8954123 L104.294052,24.3989264 L91.8717933,24.3989264 L91.8957244,24.9550715 C92.3092941,34.6424443 98.469359,39.5543849 110.205368,39.5543849 C119.692866,39.5543849 127.124649,33.2379252 127.124649,25.174496 C127.124649,15.4106111 119.811173,13.8089133 113.358542,12.3956307 L113.280007,12.3781037 C112.639261,12.2409213 112.004581,12.11621 111.384058,11.9941951 C106.747831,11.0824543 103.906435,10.361151 103.906435,7.15607016 C103.906435,3.87211785 107.254429,3.51719618 108.694002,3.51719618 C112.103002,3.51719618 113.747843,5.06294239 114.027601,8.52890581 L114.067037,9.01932464 L126.510867,9.01932464 L126.457612,8.43722614 C126.141452,4.98036327 125.164322,2.17435865 123.517795,0 L122.159116,0 L96.2805068,0 L94.9329505,0 C93.1751951,2.20469384 92.1973909,4.96418451 92.1973909,8.12308845 C92.1973909,17.6897946 99.3426752,20.0559391 106.042032,21.523825 C106.768054,21.6792085 107.48565,21.816391 108.179652,21.9488546 C112.801049,22.8309344 115.415942,23.4831409 115.415942,26.6251919 C115.416279,30.018688 111.772012,30.3847325 110.205368,30.3847325 Z" id="Path"></path>
                    <polygon id="Path" points="149.557855 38.6473628 149.557855 4.72655889 159.594757 4.72655889 159.594757 0.000337057612 158.52797 0.000337057612 128.334349 0.000337057612 127.267561 0.000337057612 127.267561 4.72655889 137.304463 4.72655889 137.304463 38.6473628"></polygon>
                    <polygon id="Path" points="191.036502 4.72655889 191.036502 0.000337057612 189.969378 0.000337057612 163.826852 0.000337057612 162.759728 0.000337057612 162.759728 38.6473628 191.036502 38.6473628 191.036502 29.1757069 175.01312 29.1757069 175.01312 20.5682667 189.826802 20.5682667 189.826802 11.0969478 175.01312 11.0969478 175.01312 4.72655889"></polygon>
                </g>
                <path d="M43.1214656,89.7938331 C37.3466575,89.7938331 32.4424693,91.9408901 28.9390924,96.0027714 C25.4475126,100.05117 23.6017852,105.720142 23.6017852,112.396917 C23.6017852,119.430298 25.1647213,124.94119 28.2467761,128.776905 C31.5651083,132.906198 36.5694027,135 43.1214656,135 C54.3714375,135 61.0229324,128.750952 61.3711129,117.855565 L61.3886399,117.305149 L48.9660446,117.305149 L48.9377317,117.808714 C48.6333687,123.219836 46.8941514,125.528344 43.1214656,125.528344 C41.4735909,125.528344 36.4595219,125.528344 36.4595219,112.396579 C36.4595219,107.492391 37.3250858,99.265152 43.1214656,99.265152 C46.8941514,99.265152 48.6333687,101.573997 48.9377317,106.984782 L48.9660446,107.488347 L61.3886399,107.488347 L61.3711129,106.937931 C61.0229324,96.0428812 54.3714375,89.7938331 43.1214656,89.7938331 L43.1214656,89.7938331 Z" id="Path"></path>
                <polygon id="Path" points="76.7891393 90.7008551 64.5360839 90.7008551 64.5360839 134.092978 91.3008177 134.092978 91.3008177 124.621322 76.7891393 124.621322 76.7891393 90.7008551"></polygon>
                <path d="M129.273054,90.7008551 L117.926684,90.7008551 L117.926684,119.229411 C117.926684,123.350278 115.685588,125.528344 111.446414,125.528344 C106.983771,125.528344 104.905474,123.142313 104.905474,118.020049 L104.905474,90.7008551 L92.6527558,90.7008551 L92.6527558,119.229411 C92.6527558,129.251819 99.5027776,135 111.446414,135 C122.942101,135 129.273054,128.969702 129.273054,118.020049 L129.273054,90.7008551 L129.273054,90.7008551 Z" id="Path"></path>
                <path d="M148.688921,90.7008551 L132.918332,90.7008551 L132.918332,134.092978 L150.261295,134.092978 C158.557631,134.092978 167.42292,130.61724 167.42292,120.861781 C167.42292,115.956582 165.182161,112.572187 160.756594,110.783759 C164.487822,108.898596 165.850883,105.058498 165.850883,102.117671 C165.850546,94.6488109 159.91631,90.7008551 148.688921,90.7008551 L148.688921,90.7008551 Z M145.171388,107.691592 L145.171388,99.8701704 L148.688921,99.8701704 C152.037588,99.8701704 153.597154,101.064703 153.597154,103.629711 C153.597154,106.400999 152.037588,107.691592 148.688921,107.691592 L145.171388,107.691592 L145.171388,107.691592 Z M145.171388,124.924 L145.171388,116.498234 L150.260957,116.498234 C152.094214,116.498234 155.16919,117.065164 155.16919,120.862118 C155.16919,124.396505 152.093877,124.924 150.260957,124.924 L145.171388,124.924 L145.171388,124.924 Z" id="Shape"></path>
                <g id="Group" transform="translate(167.484601, 90.700855)">
                    <path d="M6.43442981,12.8688596 C2.88656139,12.8688596 0,9.98229823 0,6.43442981 C0,2.88656139 2.88656139,0 6.43442981,0 C9.98229823,0 12.8688596,2.88656139 12.8688596,6.43442981 C12.8688596,9.98229823 9.98229823,12.8688596 6.43442981,12.8688596 Z M6.43442981,0.684226952 C3.26372886,0.684226952 0.684226952,3.26372886 0.684226952,6.43442981 C0.684226952,9.60513077 3.26372886,12.1846327 6.43442981,12.1846327 C9.60513077,12.1846327 12.1846327,9.60513077 12.1846327,6.43442981 C12.1846327,3.26372886 9.60513077,0.684226952 6.43442981,0.684226952 Z" id="Shape"></path>
                    <g transform="translate(4.659147, 4.146483)">
                        <path d="M0.496485862,0 C0.770850758,0 0.992971725,0.338405842 0.992971725,0.755683166 C0.992971725,1.17296049 0.770850758,1.51136633 0.496485862,1.51136633 C0.222120966,1.51136633 0,1.17296049 0,0.755683166 C0,0.338405842 0.222120966,0 0.496485862,0 Z" id="Path"></path>
                        <ellipse id="Oval" cx="3.05407902" cy="0.755683166" rx="1" ry="1"></ellipse>
                    </g>
                    <path d="M6.46139442,9.5046876 C5.16170027,9.5046876 3.97289807,8.84405468 3.19631733,7.6892953 L3.16497098,7.64278135 C3.07699894,7.512003 3.11171587,7.33437363 3.24249423,7.2464016 C3.37327258,7.15842956 3.55090194,7.1931465 3.63887398,7.32392485 L3.67022034,7.3704388 C4.33860558,8.36475875 5.35483428,8.93337495 6.46139442,8.93337495 C6.46847263,8.93337495 6.47555084,8.93337495 6.48262905,8.93337495 C7.60031209,8.92595968 8.62092254,8.34049061 9.28290369,7.32695837 C9.36919044,7.19483178 9.54614568,7.15775545 9.67793521,7.24404219 C9.81006179,7.33032894 9.84713813,7.50728419 9.76085138,7.63907372 C8.99236003,8.81574184 7.79883902,9.49558704 6.48599963,9.50435054 C6.4782473,9.5046876 6.4694838,9.5046876 6.46139442,9.5046876 Z" id="Path"></path>
                </g>
            </g>
        </g>
    </g>
</svg>