<svg width="1380" height="124" viewBox="0 0 1380 124" xmlns="http://www.w3.org/2000/svg">
    <g fill="#2C2C2C" fill-rule="nonzero">
        <path d="M82.41 95.558H39.214L82.411 28.04V3.31H.25v25.759h43.198L.25 96.584v24.732h82.16zM169.563 95.558h-43.576V72.15h40.287V46.391h-40.287V29.068h43.576V3.309h-76.9v118.007h76.9zM214.65 81.852h4.917l21.212 39.465h37.334L250.475 76.26c9.724-4.76 20.577-14.395 20.577-33.677 0-28.986-25.14-39.272-46.67-39.272h-43.055v118.007h33.324V81.852zm0-53.607h9.73c6.158 0 13.349 3.755 13.349 14.336 0 11.309-7.19 15.32-13.349 15.32h-9.73V28.246zM331.76 123.783c34.045 0 56.044-24.129 56.044-61.47 0-37.342-21.999-61.47-56.044-61.47s-56.044 24.128-56.044 61.47c0 37.341 21.999 61.47 56.044 61.47zm0-97.182c14.183 0 21.077 11.682 21.077 35.712s-6.894 35.712-21.077 35.712c-14.183 0-21.077-11.682-21.077-35.712S317.577 26.6 331.76 26.6zM484.157 52.302l6.172 30.859 8.48 38.164h34.017l27.927-105.103h-30.781l-6.758 32.343-5.842 30.536-6.115-30.57-6.991-32.31H466.86l-7.118 32.332-6.11 30.548-5.845-30.555-6.633-32.324H407.129l27.927 105.103h34.01l8.648-38.152zM617.107 97.976l6.578 23.35h35.185L623.434 16.222h-42.522l-35.435 105.102h31.888l6.743-23.35h32.999zm-24.959-28.382 8.464-32.44 8.464 32.447.829 3.108h-18.69l.933-3.115zM706.838 98.855c-10.196 0-15.275-4.744-15.982-14.929l-.094-1.35H656.98l.064 1.513c1.125 26.345 17.878 39.703 49.794 39.703 25.802 0 46.013-17.178 46.013-39.107 0-26.553-19.89-30.91-37.437-34.753l-.214-.047c-1.743-.373-3.469-.712-5.156-1.044-12.609-2.48-20.337-4.441-20.337-13.158 0-8.93 9.105-9.896 13.02-9.896 9.271 0 13.744 4.204 14.505 13.63l.107 1.333h33.842l-.145-1.583c-.86-9.4-3.517-17.032-7.995-22.945h-77.736c-4.78 5.996-7.44 13.5-7.44 22.091 0 26.017 19.433 32.452 37.652 36.444 1.974.423 3.926.796 5.813 1.156 12.568 2.399 19.68 4.173 19.68 12.718 0 9.228-9.911 10.224-14.172 10.224zM813.86 121.325v-92.25h27.297V16.223H753.24v12.854h27.297v92.25zM926.663 29.076V16.222h-76.899v105.103h76.9V95.567h-43.577V72.158h40.287V46.401h-40.287V29.076z"/>
        <g>
            <path d="M1006.539.842c-15.705 0-29.042 5.84-38.57 16.886-9.495 11.01-14.514 26.427-14.514 44.585 0 19.127 4.25 34.115 12.632 44.546 9.025 11.23 22.634 16.924 40.453 16.924 30.595 0 48.684-16.995 49.63-46.625l.048-1.497h-33.784l-.077 1.37c-.827 14.715-5.557 20.993-15.817 20.993-4.482 0-18.118 0-18.118-35.712 0-13.337 2.354-35.712 18.118-35.712 10.26 0 14.99 6.278 15.817 20.994l.077 1.37h33.784l-.047-1.497c-.948-29.63-19.037-46.625-49.632-46.625zM1098.101 3.309h-33.323v118.008h72.788V95.56h-39.465V3.309zM1240.833 3.309h-30.857v77.585c0 11.207-6.095 17.13-17.624 17.13-12.136 0-17.788-6.489-17.788-20.419V3.31h-33.322v77.585c0 27.257 18.63 42.889 51.11 42.889 31.264 0 48.481-16.4 48.481-46.178V3.31z"/>
        </g>
        <g>
            <path d="M1362.251 38.307c-9.648 0-17.499-7.85-17.499-17.5 0-9.648 7.85-17.498 17.5-17.498 9.648 0 17.498 7.85 17.498 17.499 0 9.648-7.851 17.499-17.499 17.499zm0-33.137c-8.623 0-15.638 7.015-15.638 15.638 0 8.623 7.015 15.638 15.638 15.638 8.623 0 15.638-7.015 15.638-15.638 0-8.623-7.015-15.638-15.638-15.638z"/>
            <g transform="translate(1357.423 14.586)">
                <ellipse cx="1.35" cy="2.055" rx="1.35" ry="2.055"/>
                <ellipse cx="8.306" cy="2.055" rx="1.35" ry="2.055"/>
            </g>
            <path d="M1362.324 29.158c-3.535 0-6.768-1.797-8.88-4.938l-.085-.126a.777.777 0 0 1 1.289-.867l.085.126c1.818 2.704 4.582 4.25 7.59 4.25h.058c3.04-.02 5.816-1.612 7.616-4.368a.776.776 0 1 1 1.3.849c-2.09 3.2-5.336 5.049-8.906 5.073h-.067z"/>
        </g>
        <path d="M1293.636 3.309h-42.889v118.008h47.166c22.562 0 46.672-9.452 46.672-35.983 0-13.34-6.094-22.544-18.13-27.407 10.148-5.127 13.854-15.57 13.854-23.568 0-20.313-16.14-31.05-46.673-31.05zm-9.566 46.207v-21.27h9.566c9.107 0 13.349 3.248 13.349 10.224 0 7.536-4.242 11.046-13.349 11.046h-9.566zm0 46.865V73.466h13.842c4.984 0 13.348 1.541 13.348 11.867 0 9.612-8.364 11.047-13.348 11.047h-13.842z"/>
    </g>
</svg>
