<svg width="83" height="26" viewBox="0 0 83 26" xmlns="http://www.w3.org/2000/svg">
    <g fill="#2C2C2C" fill-rule="nonzero">
        <path d="M79.14 6.752a3.12 3.12 0 0 1-3.116-3.117A3.12 3.12 0 0 1 79.14.518a3.12 3.12 0 0 1 3.116 3.117 3.12 3.12 0 0 1-3.116 3.117zm0-5.903a2.789 2.789 0 0 0-2.785 2.786 2.789 2.789 0 0 0 2.786 2.785 2.789 2.789 0 0 0 2.785-2.785A2.789 2.789 0 0 0 79.141.849z"/>
        <g transform="translate(78.28 2.526)">
            <circle cx=".241" cy=".571" r="1"/>
            <circle cx="1.48" cy=".571" r="1"/>
        </g>
        <path d="M79.154 5.122c-.63 0-1.206-.32-1.582-.88l-.015-.022a.138.138 0 1 1 .23-.154l.014.022c.324.482.817.758 1.353.758h.01c.541-.004 1.036-.288 1.356-.779a.138.138 0 1 1 .232.152c-.372.57-.95.9-1.586.903h-.012zM18.118 20.03H8.983l9.135-14.278V.522H.743v5.447h9.135L.743 20.248v5.23h17.375zM36.713 10.883l1.306 6.526 1.793 8.071h7.194l5.906-22.227h-6.51l-1.429 6.84-1.235 6.457-1.293-6.465-1.48-6.832h-7.909L31.55 10.09l-1.292 6.46-1.236-6.462-1.403-6.835h-7.196L26.33 25.48h7.193l1.829-8.068zM64.734 0c-3.322 0-6.143 1.235-8.157 3.571-2.008 2.328-3.07 5.589-3.07 9.429 0 4.045.899 7.215 2.672 9.42 1.908 2.376 4.786 3.58 8.555 3.58 6.47 0 10.295-3.594 10.496-9.86l.01-.317h-7.145l-.016.29c-.175 3.112-1.176 4.44-3.345 4.44-.948 0-3.832 0-3.832-7.553 0-2.82.498-7.553 3.832-7.553 2.17 0 3.17 1.328 3.345 4.44l.016.29h7.145l-.01-.317C75.03 3.594 71.204 0 64.734 0z"/>
    </g>
</svg>
