<svg width="285" height="26" viewBox="0 0 285 26" xmlns="http://www.w3.org/2000/svg">
    <g fill="#2C2C2C" fill-rule="nonzero">
        <path d="M16.974 19.568H8.05l8.924-13.949V.51H0v5.322h8.925L0 19.78v5.11h16.974zM34.98 19.568h-9.003v-4.836H34.3V9.41h-8.323V5.831h9.002V.51H19.092v24.38H34.98zM44.294 16.736h1.016l4.383 8.154h7.713l-5.71-9.31c2.009-.983 4.25-2.973 4.25-6.957 0-5.988-5.193-8.113-9.641-8.113H37.41v24.38h6.885v-8.154zm0-11.075h2.01c1.273 0 2.758.776 2.758 2.962 0 2.336-1.485 3.165-2.757 3.165h-2.01V5.661zM68.489 25.4c7.033 0 11.578-4.986 11.578-12.7C80.067 4.985 75.522 0 68.49 0 61.455 0 56.91 4.985 56.91 12.7c0 7.714 4.545 12.7 11.579 12.7zm0-20.078c2.93 0 4.354 2.413 4.354 7.378 0 4.964-1.424 7.378-4.354 7.378s-4.355-2.414-4.355-7.378c0-4.965 1.425-7.378 4.355-7.378zM99.974 10.631l1.275 6.376L103 24.89h7.027l5.77-21.714h-6.359l-1.396 6.682-1.207 6.309-1.264-6.316-1.444-6.675H96.4l-1.47 6.68-1.262 6.311-1.208-6.313-1.37-6.678h-7.03l5.77 21.714h7.026l1.786-7.882zM127.44 20.067l1.36 4.824h7.269l-7.321-21.713H119.963l-7.32 21.713h6.587l1.393-4.824h6.818zm-5.156-5.863 1.749-6.702 1.748 6.703.172.642h-3.862l.193-.643zM145.979 20.249c-2.107 0-3.156-.98-3.302-3.084l-.02-.28h-6.979l.013.313c.233 5.443 3.694 8.203 10.288 8.203 5.33 0 9.506-3.549 9.506-8.08 0-5.485-4.11-6.385-7.735-7.18l-.044-.009c-.36-.077-.716-.147-1.065-.216-2.605-.512-4.202-.917-4.202-2.718 0-1.845 1.882-2.045 2.69-2.045 1.916 0 2.84.869 2.997 2.816l.022.276h6.992l-.03-.327c-.178-1.942-.727-3.519-1.652-4.74h-16.06c-.987 1.238-1.537 2.788-1.537 4.563 0 5.375 4.015 6.705 7.779 7.53.408.087.81.164 1.2.238 2.597.496 4.067.862 4.067 2.628 0 1.906-2.048 2.112-2.928 2.112zM168.089 24.891V5.833h5.64V3.177h-18.164v2.656h5.64v19.058zM191.394 5.833V3.177h-15.888v21.714h15.888V19.57h-9.003v-4.836h8.323V9.412h-8.323V5.833z"/>
        <g>
            <path d="M207.896 0c-3.245 0-6 1.206-7.969 3.488-1.961 2.275-2.998 5.46-2.998 9.212 0 3.951.878 7.048 2.61 9.203 1.864 2.32 4.676 3.496 8.357 3.496 6.32 0 10.058-3.51 10.254-9.632l.01-.31h-6.98l-.016.283c-.171 3.04-1.148 4.337-3.268 4.337-.926 0-3.743 0-3.743-7.378 0-2.755.486-7.378 3.743-7.378 2.12 0 3.097 1.298 3.268 4.338l.016.283h6.98l-.01-.31C217.954 3.511 214.217 0 207.896 0zM226.812.51h-6.884v24.38h15.038v-5.322h-8.154V.51zM256.3.51h-6.375v16.028c0 2.316-1.259 3.54-3.64 3.54-2.508 0-3.676-1.341-3.676-4.22V.51h-6.884v16.028c0 5.632 3.849 8.861 10.56 8.861 6.458 0 10.015-3.388 10.015-9.54V.509z"/>
        </g>
        <g>
            <path d="M281.385 7.74a3.62 3.62 0 0 1-3.615-3.615A3.62 3.62 0 0 1 281.385.51 3.62 3.62 0 0 1 285 4.125a3.62 3.62 0 0 1-3.615 3.615zm0-6.846a3.234 3.234 0 0 0-3.23 3.23c0 1.782 1.448 3.232 3.23 3.232 1.781 0 3.23-1.45 3.23-3.231 0-1.782-1.449-3.231-3.23-3.231z"/>
            <g transform="translate(280.387 2.84)">
                <circle cx=".279" cy=".5" r="1"/>
                <circle cx="1.716" cy=".5" r="1"/>
            </g>
            <path d="M281.4 5.85c-.73 0-1.398-.371-1.835-1.02l-.017-.026a.16.16 0 0 1 .266-.18l.018.027c.375.558.946.878 1.568.878h.012c.628-.004 1.201-.333 1.573-.903a.16.16 0 1 1 .269.176c-.432.66-1.103 1.043-1.84 1.048h-.014z"/>
        </g>
        <path d="M267.21.51h-8.861v24.38h9.744c4.661 0 9.642-1.953 9.642-7.434 0-2.756-1.259-4.658-3.746-5.663 2.097-1.059 2.863-3.216 2.863-4.869 0-4.196-3.335-6.414-9.643-6.414zm-1.977 9.546V5.66h1.976c1.882 0 2.758.672 2.758 2.113 0 1.557-.876 2.282-2.758 2.282h-1.976zm0 9.682v-4.734h2.86c1.03 0 2.757.318 2.757 2.452 0 1.985-1.728 2.282-2.758 2.282h-2.86z"/>
    </g>
</svg>
