<?xml version="1.0" encoding="utf-8"?>
<!-- Generator: Adobe Illustrator 25.2.3, SVG Export Plug-In . SVG Version: 6.00 Build 0)  -->
<svg version="1.1" id="Layer_1" xmlns="http://www.w3.org/2000/svg" xmlns:xlink="http://www.w3.org/1999/xlink" x="0px" y="0px"
	 viewBox="0 0 120 120" style="enable-background:new 0 0 120 120;" xml:space="preserve">
<style type="text/css">
	.st0{fill:#2C2C2C;}
</style>
<g id="Layer_1_1_">
	<g>
		<g>
			<path class="st0" d="M60.3,118.27c-31.87,0-57.81-25.93-57.81-57.81S28.42,2.66,60.3,2.66S118.1,28.6,118.1,60.47
				S92.17,118.27,60.3,118.27z M60.3,8.81c-28.49,0-51.66,23.17-51.66,51.66s23.17,51.66,51.66,51.66s51.66-23.17,51.66-51.66
				S88.78,8.81,60.3,8.81z"/>
		</g>
		<g>
			<ellipse class="st0" cx="48.81" cy="46.7" rx="4.46" ry="6.79"/>
			<ellipse class="st0" cx="71.78" cy="46.7" rx="4.46" ry="6.79"/>
		</g>
		<g>
			<path class="st0" d="M60.54,88.05c-11.68,0-22.36-5.93-29.33-16.31l-0.28-0.42c-0.79-1.18-0.48-2.77,0.7-3.56
				c1.18-0.79,2.77-0.48,3.56,0.7l0.28,0.42c6,8.93,15.14,14.04,25.08,14.04c0.06,0,0.13,0,0.19,0
				c10.04-0.07,19.21-5.33,25.16-14.43c0.78-1.19,2.37-1.52,3.55-0.75c1.19,0.78,1.52,2.36,0.75,3.55
				c-6.9,10.57-17.63,16.68-29.42,16.76C60.69,88.05,60.61,88.05,60.54,88.05z"/>
		</g>
	</g>
</g>
<g id="_x3C_Layer_x3E_">
</g>
</svg>
