<?xml version="1.0" encoding="utf-8"?>
<!-- Generator: Adobe Illustrator 25.2.3, SVG Export Plug-In . SVG Version: 6.00 Build 0)  -->
<svg version="1.1" id="Layer_1" xmlns="http://www.w3.org/2000/svg" xmlns:xlink="http://www.w3.org/1999/xlink" x="0px" y="0px"
	 viewBox="0 0 32 32" style="enable-background:new 0 0 32 32;" xml:space="preserve">
<style type="text/css">
	.st0{fill:#2C2C2C;}
</style>
<g id="Layer_1_1_">
	<g>
		<g>
			<path class="st0" d="M15.86,31.44c-8.39,0-15.21-6.82-15.21-15.21S7.48,1.01,15.86,1.01s15.21,6.82,15.21,15.21
				S24.25,31.44,15.86,31.44z M15.86,2.63c-7.5,0-13.59,6.1-13.59,13.59s6.1,13.59,13.59,13.59s13.59-6.1,13.59-13.59
				S23.36,2.63,15.86,2.63z"/>
		</g>
		<g>
			<ellipse class="st0" cx="12.84" cy="12.6" rx="1.17" ry="1.79"/>
			<ellipse class="st0" cx="18.89" cy="12.6" rx="1.17" ry="1.79"/>
		</g>
		<g>
			<path class="st0" d="M15.93,23.48c-3.07,0-5.88-1.56-7.72-4.29l-0.07-0.11c-0.21-0.31-0.13-0.73,0.18-0.94
				c0.31-0.21,0.73-0.13,0.94,0.18l0.07,0.11c1.58,2.35,3.98,3.7,6.6,3.7c0.02,0,0.03,0,0.05,0c2.64-0.02,5.06-1.4,6.62-3.8
				c0.2-0.31,0.62-0.4,0.93-0.2c0.31,0.2,0.4,0.62,0.2,0.93c-1.82,2.78-4.64,4.39-7.74,4.41C15.97,23.48,15.95,23.48,15.93,23.48z"
				/>
		</g>
	</g>
</g>
<g id="_x3C_Layer_x3E_">
</g>
</svg>
