<?xml version="1.0" encoding="utf-8"?>
<!-- Generator: Adobe Illustrator 25.2.3, SVG Export Plug-In . SVG Version: 6.00 Build 0)  -->
<svg version="1.1" id="Layer_1" xmlns="http://www.w3.org/2000/svg" xmlns:xlink="http://www.w3.org/1999/xlink" x="0px" y="0px"
	 viewBox="0 0 64 64" style="enable-background:new 0 0 64 64;" xml:space="preserve">
<style type="text/css">
	.st0{fill:#2C2C2C;}
</style>
<g id="Layer_1_1_">
	<g>
		<g>
			<path class="st0" d="M32.14,62.85c-16.98,0-30.79-13.81-30.79-30.79S15.16,1.27,32.14,1.27s30.79,13.81,30.79,30.79
				S49.12,62.85,32.14,62.85z M32.14,4.54c-15.17,0-27.52,12.34-27.52,27.52s12.34,27.52,27.52,27.52s27.52-12.34,27.52-27.52
				S47.31,4.54,32.14,4.54z"/>
		</g>
		<g>
			<ellipse class="st0" cx="26.02" cy="24.73" rx="2.38" ry="3.62"/>
			<ellipse class="st0" cx="38.26" cy="24.73" rx="2.38" ry="3.62"/>
		</g>
		<g>
			<path class="st0" d="M32.27,46.75c-6.22,0-11.91-3.16-15.62-8.69l-0.15-0.22c-0.42-0.63-0.25-1.48,0.37-1.9
				c0.63-0.42,1.48-0.25,1.9,0.37l0.15,0.22c3.2,4.76,8.06,7.48,13.36,7.48c0.03,0,0.07,0,0.1,0c5.35-0.04,10.23-2.84,13.4-7.69
				c0.41-0.63,1.26-0.81,1.89-0.4c0.63,0.41,0.81,1.26,0.4,1.89c-3.68,5.63-9.39,8.88-15.67,8.93
				C32.35,46.75,32.31,46.75,32.27,46.75z"/>
		</g>
	</g>
</g>
<g id="_x3C_Layer_x3E_">
</g>
</svg>
