<?xml version="1.0" standalone="no"?>
<!DOCTYPE svg PUBLIC "-//W3C//DTD SVG 1.1//EN" "http://www.w3.org/Graphics/SVG/1.1/DTD/svg11.dtd" >
<svg xmlns="http://www.w3.org/2000/svg" xmlns:xlink="http://www.w3.org/1999/xlink" version="1.1">
<metadata>
Created by FontForge 20190801 at Thu Oct  1 05:29:06 2020
 By www-data
Copyright (c) 2020 by Tom Anders Watkins &#38; Ellen Luff. All rights reserved.
</metadata>
<defs>
<font id="LarkenThinItalic" horiz-adv-x="556" >
  <font-face 
    font-family="LarkenThinItalic"
    font-weight="400"
    font-style="italic"
    font-stretch="normal"
    units-per-em="1000"
    panose-1="0 0 2 0 0 0 0 0 0 0"
    ascent="787"
    descent="-213"
    x-height="492"
    cap-height="720"
    bbox="-506 -223 1182.09 973"
    underline-thickness="50"
    underline-position="-100"
    slope="-15"
    unicode-range="U+0020-FB01"
  />
<missing-glyph horiz-adv-x="510" 
d="M95 -200v1020h323v-1020h-323zM340 9v115h-170v-115h170zM170 -14v-34h72l-72 -48v-34h170v34h-104l71 48h33v34h-170zM340 186v115h-102v-57h34v23h34v-48h-102v82h-34v-115h170zM170 620v-106h170v35h-68v71h-102zM340 647v33h-68v38h68v34h-169v-34h67v-38h-68v-33
h170zM170 415v-34h102v72h68v33h-170v-33h68v-38h-68zM306 358h-136v-35h170v102h-34v-67zM204 91h102v-48h-102v48zM204 585h34v-36h-34v36z" />
    <glyph glyph-name="fi" unicode="fi" horiz-adv-x="564" 
d="M523 191l5 -9q-34 -78 -78 -130t-80 -52q-24 0 -37 20t0 68l74 275q13 48 13 97h-203l-89 -337q-42 -158 -100.5 -224.5t-163.5 -83.5q55 29 88 60.5t62.5 90.5t55.5 157l88 337h-78l8 32h78l14 49q26 99 83 144.5t123 45.5q61 0 118 -30l-19 -73h-4q-44 74 -103 74
q-42 0 -80 -41.5t-60 -121.5l-13 -47h275l-106 -396q-13 -51 8 -46q29 5 85 84q19 27 36 57z" />
    <glyph glyph-name="fl" unicode="fl" horiz-adv-x="609" 
d="M438 96q-14 -51 9 -46q30 6 85 84q19 27 36 57l5 -9q-34 -79 -78 -130.5t-81 -51.5q-23 0 -36 19.5t-1 66.5l151 574q-60 42 -127 42q-118 0 -162 -163l-13 -47h157l-9 -32h-156l-90 -337q-43 -158 -101.5 -224.5t-162.5 -83.5q81 43 124 104t82 204l89 337h-78l8 32h78
l13 49q52 190 224 190q65 0 138 -26l69 36z" />
    <glyph glyph-name=".notdef" horiz-adv-x="510" 
d="M95 -200v1020h323v-1020h-323zM340 9v115h-170v-115h170zM170 -14v-34h72l-72 -48v-34h170v34h-104l71 48h33v34h-170zM340 186v115h-102v-57h34v23h34v-48h-102v82h-34v-115h170zM170 620v-106h170v35h-68v71h-102zM340 647v33h-68v38h68v34h-169v-34h67v-38h-68v-33
h170zM170 415v-34h102v72h68v33h-170v-33h68v-38h-68zM306 358h-136v-35h170v102h-34v-67zM204 91h102v-48h-102v48zM204 585h34v-36h-34v36z" />
    <glyph glyph-name=".null" horiz-adv-x="0" 
 />
    <glyph glyph-name="uni000D" horiz-adv-x="333" 
 />
    <glyph glyph-name="space" unicode=" " horiz-adv-x="265" 
 />
    <glyph glyph-name="exclam" unicode="!" horiz-adv-x="216" 
d="M89 208q11 53 30.5 160t36.5 191.5t37 160.5h86q-22 -76 -50 -160.5t-66.5 -192t-56.5 -159.5h-17zM8 45q6 21 24 35.5t38 14.5q20 -1 28.5 -13t8.5 -25q0 -6 -2 -13q-6 -21 -24 -35.5t-38 -14.5q-19 0 -28 12.5t-9 24.5q0 7 2 14z" />
    <glyph glyph-name="quotedbl" unicode="&#x22;" horiz-adv-x="299" 
d="M145 459q5 29 14.5 91.5t17 104t14.5 65.5h65q-6 -28 -94 -261h-17zM251 459q5 29 14.5 91.5t17 104t14.5 65.5h65q-6 -24 -20.5 -65t-39 -104.5t-34.5 -91.5h-17z" />
    <glyph glyph-name="numbersign" unicode="#" horiz-adv-x="648" 
d="M44 260h130l91 201h-141l8 31h147l104 228h34l-104 -228h201l104 228h34l-103 -228h125l-8 -31h-131l-92 -201h143l-8 -32h-148l-104 -228h-34l104 228h-202l-103 -228h-34l103 228h-124zM208 260h201l92 201h-201z" />
    <glyph glyph-name="dollar" unicode="$" horiz-adv-x="542" 
d="M-10 48l36 94h3q22 -54 66.5 -91t106.5 -41l89 332l-7 4q-133 72 -133 170q0 34 15 70q29 68 91.5 109t140.5 49l17 62h31l-16 -60h3q95 0 181 -59l-32 -89h-3q-20 45 -61.5 76.5t-97.5 35.5l-84 -314q79 -46 107 -93t28 -90q0 -32 -12 -69q-23 -73 -84 -117t-151 -52
l-18 -67h-31l18 66q-43 0 -84.5 13.5t-64 26t-54.5 34.5zM233 11h4q60 6 105.5 38t61.5 83q8 25 8 48q0 83 -94 146zM222 491q25 -43 87 -80l80 298h-4q-54 -6 -98.5 -36.5t-65.5 -79.5q-12 -29 -12 -54q0 -27 13 -48z" />
    <glyph glyph-name="percent" unicode="%" horiz-adv-x="774" 
d="M141 565q18 67 69.5 111t102.5 44q52 0 74.5 -35.5t22.5 -72.5q0 -22 -6 -47q-18 -67 -70 -111q-52 -45 -104 -45t-74 35.5t-22 71.5q0 22 7 49zM431 156q18 67 69.5 111t102.5 44q52 0 75 -36t23 -71q0 -22 -7 -48q-18 -67 -70 -111q-53 -45 -104 -45t-73 36t-22 72
q0 22 6 48zM194 473q12 -36 43 -36q32 0 64 36t47 92q7 30 7 53q0 22 -9 48t-41 26q-31 0 -62.5 -36t-46.5 -91q-8 -30 -8 -55q0 -20 6 -37zM485 64q12 -36 43 -36q32 0 63.5 36t46.5 92q7 30 7 53q0 22 -9 48t-40 26t-63 -36t-47 -91q-7 -29 -7 -53q0 -22 6 -39zM62 0
l674 720h35l-674 -720h-35z" />
    <glyph glyph-name="ampersand" unicode="&#x26;" horiz-adv-x="664" 
d="M29 176q32 121 212 203q-15 26 -21 36.5t-16 33t-12.5 37.5t-2.5 36t6 43q19 75 82 120t138 45q72 0 109 -34.5t37 -77.5q0 -16 -4 -34q-15 -58 -72.5 -102.5t-168.5 -94.5l125 -217q42 53 60 86q23 42 23 78q0 14 -4 28l1 2h91l-1 -2q-50 -56 -79 -103q-53 -80 -78 -112
q15 -28 50 -79q19 -29 48 -29q13 0 29 6q-6 -18 -26.5 -34.5t-47.5 -16.5q-38 0 -66 44q-16 26 -34 58q-106 -103 -224 -103q-83 0 -122.5 41.5t-39.5 90.5q0 23 8 51zM112 75q32 -44 98 -44q92 0 182 87l-138 238q-131 -71 -158 -171q-6 -23 -6 -43q0 -39 22 -67zM262 501
q12 -40 43 -94q83 43 132 85.5t62 92.5q4 16 4 30q0 30 -22.5 57.5t-72.5 27.5q-51 0 -93.5 -35.5t-55.5 -83.5q-4 -17 -4 -35q0 -22 7 -45z" />
    <glyph glyph-name="quotesingle" unicode="'" horiz-adv-x="174" 
d="M135 459q5 29 14.5 91.5t17 104t14.5 65.5h65q-6 -28 -94 -261h-17z" />
    <glyph glyph-name="parenleft" unicode="(" horiz-adv-x="266" 
d="M84 308q42 156 127 281.5t174 177.5v-5q-88 -83 -149 -209t-93 -245q-20 -73 -29.5 -138t-9.5 -129q0 -23 2.5 -81t32.5 -115l-3 -5q-60 52 -70.5 132.5t-10.5 119.5q0 98 29 216z" />
    <glyph glyph-name="parenright" unicode=")" horiz-adv-x="258" 
d="M-88 -160v5q88 83 150 212.5t94 250.5q19 72 29 134.5t10 120.5q0 26 -3.5 83.5t-33.5 115.5l3 5q60 -52 71.5 -130.5t11.5 -118.5q0 -94 -29 -210q-42 -157 -128.5 -286.5t-174.5 -181.5z" />
    <glyph glyph-name="asterisk" unicode="*" horiz-adv-x="327" 
d="M245 604q-49 25 -85 35l39 47q9 -19 57 -69q2 9 5.5 46.5t3.5 51.5v6h52q-8 -15 -26.5 -56t-19.5 -48q11 7 48 33.5t46 35.5l13 -47q-21 -4 -104 -35q73 -32 86 -35l-39 -47q-12 21 -57 69q-3 -9 -6 -46t-3 -51v-7h-53q9 16 27 57t19 47q-59 -38 -93 -69l-14 47
q28 6 104 35z" />
    <glyph glyph-name="plus" unicode="+" horiz-adv-x="609" 
d="M91 348h136q72 0 81 7q9 8 28 79l38 138h35l-37 -138q-15 -56 -15 -73q0 -4 1 -6q6 -7 76 -7h138l-8 -34h-138q-72 0 -81 -7q-6 -4 -10 -16t-18 -63l-38 -138h-35l37 138q15 56 15 73q0 4 -1 6q-6 7 -76 7h-137z" />
    <glyph glyph-name="comma" unicode="," horiz-adv-x="227" 
d="M-28 -94q33 17 54.5 45t25.5 43q-4 -1 -8 -1q-20 0 -28.5 11t-8.5 24q0 7 2 15q5 20 22 33t36 13q23 0 31.5 -14.5t8.5 -28.5q0 -11 -3 -23q-9 -35 -42 -68t-73 -49h-17z" />
    <glyph glyph-name="hyphen" unicode="-" horiz-adv-x="455" 
d="M60 292l8 32h329l-8 -32h-329z" />
    <glyph glyph-name="period" unicode="." horiz-adv-x="230" 
d="M16 42q5 20 22.5 34t35.5 14q19 0 27.5 -12t8.5 -24q0 -6 -3.5 -19.5t-20.5 -27.5q-18 -14 -37 -14t-27 12t-8 24q0 6 2 13z" />
    <glyph glyph-name="slash" unicode="/" horiz-adv-x="354" 
d="M-61 -103l498 896h32l-498 -896h-32z" />
    <glyph glyph-name="zero" unicode="0" horiz-adv-x="635" 
d="M89 368q42 154 144.5 258t211.5 104q110 0 147 -80.5t37 -150.5q0 -63 -20 -138q-43 -161 -146.5 -266.5t-212.5 -105.5q-111 0 -146.5 81t-35.5 151q0 67 21 147zM143 119q25 -96 114 -96q90 0 165.5 94.5t116.5 247.5q24 87 24 155q0 45 -18 110.5t-107 65.5
q-90 0 -164.5 -94t-112.5 -238q-27 -95 -27 -168q0 -42 9 -77z" />
    <glyph glyph-name="one" unicode="1" horiz-adv-x="262" 
d="M43 0l1 3q33 61 51 128l134 500h-107l5 17q105 29 194 93l-164 -610q-14 -50 -19 -128v-3h-95z" />
    <glyph glyph-name="two" unicode="2" horiz-adv-x="493" 
d="M-42 0q57 59 146 147t133 133.5t96 103.5t78 100.5t36 81.5q6 22 6 42q0 30 -18.5 60.5t-74.5 30.5q-102 0 -222 -134l-4 1l17 100q128 64 221 64q85 0 118 -39.5t33 -81.5q0 -22 -7 -46q-14 -50 -60 -109.5t-143 -152.5l-258 -245h161q118 0 190 40l3 -1l-40 -95h-411z
" />
    <glyph glyph-name="three" unicode="3" horiz-adv-x="510" 
d="M25 154l4 1q20 -59 61 -97t104 -38q65 0 113 42t64 102q7 23 7 45q0 47 -39.5 94t-121.5 49l5 23q80 3 155 55t97 130q5 20 5 38q0 35 -26.5 68t-91.5 33q-56 0 -108 -32t-110 -97h-4l16 98q108 62 215 62q90 0 132.5 -40t42.5 -89q0 -22 -7 -46q-19 -71 -79 -122
t-138 -68q69 -16 96 -61.5t27 -88.5q0 -24 -6 -49q-21 -79 -93 -128.5t-158 -49.5q-108 0 -201 63z" />
    <glyph glyph-name="four" unicode="4" horiz-adv-x="533" 
d="M-10 165l485 555h61l-139 -522h102l-7 -33h-103l-10 -36q-17 -62 -19 -129h-93q33 62 51 129l10 36h-338zM337 198l123 458l-401 -458h278z" />
    <glyph glyph-name="five" unicode="5" horiz-adv-x="507" 
d="M25 156l4 1q19 -65 60.5 -101t96.5 -36q70 0 122.5 55t74.5 134q10 36 10 68q0 42 -25 88t-101 46q-82 0 -194 -60l133 369h174q129 0 198 38l-41 -96h-317l-92 -257q84 48 163 48q97 0 133 -57t36 -113q0 -33 -10 -71q-26 -98 -97.5 -161t-172.5 -63q-55 0 -106.5 19
t-85.5 50z" />
    <glyph glyph-name="six" unicode="6" horiz-adv-x="558" 
d="M72 367q41 153 132 258t208 105q47 0 96.5 -17t81.5 -40l-36 -101l-4 -1q-21 57 -57.5 92t-87.5 35q-67 0 -124 -57.5t-93 -141t-60 -187.5q46 64 107.5 99t121.5 35q88 0 122.5 -52t34.5 -105q0 -33 -10 -72q-28 -102 -107.5 -165.5t-172.5 -63.5q-80 0 -125 53.5
t-47 101t-2 58.5q0 76 22 166zM133 85q31 -65 98 -65t124.5 53.5t74 115t16.5 92.5q0 39 -22 80t-90 41q-49 0 -106 -31.5t-108 -100.5q-7 -44 -7 -81q0 -63 20 -104z" />
    <glyph glyph-name="seven" unicode="7" horiz-adv-x="511" 
d="M83 0q224 379 454 658h-217q-111 0 -193 -39h-3l55 101h440q-101 -128 -185 -256t-111 -177t-87 -162q-51 -93 -59 -125h-94z" />
    <glyph glyph-name="eight" unicode="8" horiz-adv-x="549" 
d="M27 184q19 70 81 114.5t138 65.5q-111 53 -111 146q0 24 7 51q21 79 92.5 124t163.5 45q90 0 132 -43t42 -92q0 -21 -6 -45q-32 -118 -197 -166q125 -55 125 -156q0 -24 -7 -51q-22 -83 -102 -133.5t-172 -50.5q-57 0 -104.5 22t-67.5 58t-20 69q0 20 6 42zM108 75
q35 -50 111 -50q74 0 132 42.5t75 106.5q4 17 4 33q0 90 -139 138l-19 7q-154 -58 -183 -163q-5 -21 -5 -40q0 -41 24 -74zM222 468q33 -43 120 -73q140 58 166 155q6 21 6 40q0 35 -24.5 71.5t-98.5 36.5q-68 0 -118.5 -34.5t-67.5 -92.5q-6 -20 -6 -39q0 -36 23 -64z" />
    <glyph glyph-name="nine" unicode="9" horiz-adv-x="558" 
d="M21 45l36 101l4 1q21 -57 57.5 -92t87.5 -35q50 0 95.5 32.5t79.5 88.5t59.5 122.5t42.5 142.5q-46 -64 -107.5 -99t-121.5 -35q-88 0 -122.5 52t-34.5 105q0 33 10 72q27 101 106.5 165t172.5 64q80 0 125.5 -53.5t47 -100.5t1.5 -57q0 -76 -21 -168
q-41 -153 -132.5 -258t-208.5 -105q-47 0 -96 17t-81 40zM181 369q28 -53 96 -53q49 0 105.5 31.5t107.5 100.5q7 45 7 82q0 62 -19 103q-31 65 -98 65t-125 -54t-80 -138q-10 -38 -10 -69q0 -39 16 -68z" />
    <glyph glyph-name="colon" unicode=":" horiz-adv-x="221" 
d="M11 42q5 20 22.5 34t36.5 14t27 -12t8 -24q0 -6 -2 -13q-4 -19 -21 -33q-18 -15 -37 -15t-27.5 12t-8.5 24q0 6 2 13zM124 449q5 20 22.5 34t36.5 14t27 -11.5t8 -23.5q0 -6 -3.5 -19.5t-20.5 -27.5t-34 -14h-2q-20 0 -28 11.5t-8 23.5q0 6 2 13z" />
    <glyph glyph-name="semicolon" unicode=";" horiz-adv-x="227" 
d="M28 -49q21 28 24 43q-4 -1 -8 -1q-20 0 -28.5 11t-8.5 24q0 7 2 15q5 20 22.5 33t36.5 13q22 0 30.5 -14.5t8.5 -28.5q0 -11 -3 -23q-9 -35 -42 -68t-73 -49h-16q33 17 55 45zM120 452q5 20 22.5 34t36.5 14t27.5 -12t8.5 -24q0 -6 -3.5 -19.5t-20.5 -27.5
q-18 -14 -37 -14t-27.5 12t-8.5 24q0 6 2 13z" />
    <glyph glyph-name="less" unicode="&#x3c;" horiz-adv-x="479" 
d="M378 106l-295 211l8 34l408 211l-11 -39l-363 -189l263 -189z" />
    <glyph glyph-name="equal" unicode="=" horiz-adv-x="560" 
d="M92 384l9 34h450l-9 -34h-450zM54 242l9 33h450l-9 -33h-450z" />
    <glyph glyph-name="greater" unicode="&#x3e;" horiz-adv-x="488" 
d="M30 106l11 39l364 189l-262 189l10 39l295 -211l-10 -34z" />
    <glyph glyph-name="question" unicode="?" horiz-adv-x="493" 
d="M374 730q84 0 118.5 -39.5t34.5 -82.5q0 -19 -6 -40q-7 -28 -26 -55t-32 -40t-48 -41.5t-42 -34.5q-61 -52 -92.5 -89.5t-50.5 -93.5h-14q3 96 119 202q6 6 24.5 22.5t26 23.5t22 22.5t22 26.5t15.5 26.5t12 31.5q5 19 5 37q0 30 -19 61.5t-78 31.5q-104 0 -217 -131h-4
l-2 92q138 70 232 70zM140 48q6 21 24 35.5t38 14.5q19 0 28 -12.5t9 -25.5q0 -6 -2 -12q-6 -21 -24.5 -35.5t-38.5 -14.5q-18 0 -27 12t-9 25q0 6 2 13z" />
    <glyph glyph-name="at" unicode="@" horiz-adv-x="882" 
d="M194 627q112 122 285 122q114 0 204.5 -54t131 -134t40.5 -161q0 -16 -2 -33q-12 -124 -69 -192.5t-147 -68.5q-62 0 -87.5 30t-25.5 67q0 26 9 59v1q-37 -65 -83.5 -103.5t-89.5 -38.5q-56 0 -71 40.5t-15 71.5q0 48 21 117q39 112 103 166.5t124 55.5h4q31 0 51.5 -17
t25.5 -46q33 30 51 58h13l-82 -303q-9 -34 -9 -58q0 -69 71 -69q66 0 113.5 57.5t59.5 171.5q2 19 2 37q0 118 -91.5 217t-251.5 99t-262.5 -113.5t-102.5 -274.5q0 -156 93 -258.5t257 -102.5q95 0 175 40l1 -33q-79 -37 -176 -37q-180 0 -281.5 111t-101.5 280
q0 173 113 296zM332 215q11 -54 52 -54h2q45 1 94 58.5t80 143.5l26 97q1 8 1 15q0 23 -11.5 45.5t-44.5 23.5h-4q-46 0 -95.5 -48.5t-81.5 -138.5q-21 -63 -21 -108q0 -19 3 -34z" />
    <glyph glyph-name="A" unicode="A" horiz-adv-x="635" 
d="M-38 2q27 29 97 139l309 500q20 32 20 59q0 9 -2 18l1 2h77l55 -585q11 -99 23 -133l-1 -2h-101v3q18 38 18 95q0 18 -2 39l-10 111h-282l-51 -85q-59 -97 -59 -159l-1 -4h-91v2zM443 281l-33 364l-224 -364h257z" />
    <glyph glyph-name="B" unicode="B" horiz-adv-x="577" 
d="M-13 0l1 3q35 70 51 128l122 458q16 62 18 128l1 3h254q84 0 120 -43.5t36 -89.5q0 -22 -6 -45q-15 -59 -59.5 -102.5t-105.5 -66.5q61 -20 85.5 -57t24.5 -75q0 -24 -7 -51q-23 -88 -104 -139t-183 -51h-248zM227 32q181 0 223 157q8 30 8 54q0 43 -32 76.5t-113 33.5
l-151 -1l-86 -320h151zM330 387q143 6 182 156q8 28 8 52q0 31 -19.5 62t-90.5 31h-158l-81 -301h159z" />
    <glyph glyph-name="C" unicode="C" horiz-adv-x="619" 
d="M89 391q40 152 153 245.5t248 93.5q96 0 191 -52l-28 -104h-6q-19 53 -61.5 88t-106.5 35q-105 0 -195.5 -88.5t-124.5 -215.5q-20 -76 -20 -141q0 -67 31.5 -148.5t130.5 -81.5q57 0 121 36t111 88h6l-28 -104q-117 -54 -218 -54q-131 0 -178 88t-47 172q0 65 21 143z
" />
    <glyph glyph-name="D" unicode="D" horiz-adv-x="632" 
d="M-13 0l1 3q33 61 51 128l122 458q16 57 18 128l1 3h212q127 0 179.5 -86t52.5 -171q0 -57 -18 -124q-27 -102 -93.5 -181t-148.5 -118.5t-165 -39.5h-212zM198 33q114 0 206 83t129 225q20 77 20 138q0 66 -33 137.5t-147 71.5h-121l-175 -655h121z" />
    <glyph glyph-name="E" unicode="E" horiz-adv-x="527" 
d="M-13 0l1 3q33 66 50 128l122 458q17 61 19 128l1 3h431l-23 -89h-4l-30 21q-9 6 -12.5 8t-12.5 7t-14.5 7t-14 5.5t-16 5t-16 2.5t-17.5 1h-199l-81 -301h141q57 0 145 27h2l-22 -83h-3q-69 26 -131 26h-140l-87 -325h202q57 0 163 57h4l-24 -89h-434z" />
    <glyph glyph-name="F" unicode="F" horiz-adv-x="523" 
d="M-13 0l1 3q33 66 50 128l123 458q16 62 18 128l1 3h431l-24 -88h-4q-71 56 -132 56h-201l-79 -301h127q54 1 142 27h3l-22 -84h-3q-66 25 -129 26h-127l-95 -356h-80z" />
    <glyph glyph-name="G" unicode="G" horiz-adv-x="675" 
d="M92 401q42 158 154 243.5t246 85.5q116 0 207 -54l-29 -108h-6q-17 51 -66.5 89.5t-123.5 39.5q-103 0 -187 -74.5t-123 -219.5q-21 -78 -21 -143q0 -72 37 -155t149 -83q70 0 160 52l36 133q8 31 8 64q0 32 -7 65l1 3h120l-1 -3q-42 -67 -59 -129l-42 -158
q-6 -3 -30 -12.5t-32.5 -12.5t-29.5 -10.5t-33 -10.5l-30 -8q-18 -4 -34.5 -5.5t-33.5 -1.5q-141 0 -195 95.5t-54 185.5q0 62 19 132z" />
    <glyph glyph-name="H" unicode="H" horiz-adv-x="632" 
d="M-12 3q33 61 51 128l121 458q17 61 19 128l1 3h96v-3q-33 -61 -51 -128l-55 -205h366l55 205q16 62 18 128l1 3h96l-1 -3q-32 -65 -51 -128l-121 -458q-17 -56 -19 -128l-1 -3h-96v3q33 61 51 128l59 217h-367l-57 -217q-17 -61 -19 -128l-1 -3h-96z" />
    <glyph glyph-name="I" unicode="I" horiz-adv-x="221" 
d="M-4 0l1 3q33 61 51 128l122 458q14 50 19 128v3h97l-1 -3q-33 -61 -51 -128l-123 -458q-13 -50 -18 -128v-3h-97z" />
    <glyph glyph-name="J" unicode="J" horiz-adv-x="239" 
d="M-68 -134q39 34 78 108.5t71 196.5l112 418q16 62 18 128l1 3h96v-3q-33 -61 -51 -128l-115 -428q-29 -105 -66.5 -177t-81 -107.5t-80 -50.5t-82.5 -20q61 27 100 60z" />
    <glyph glyph-name="K" unicode="K" horiz-adv-x="584" 
d="M-12 3q33 61 51 128l122 458q17 61 19 128l1 3h96l-1 -3q-30 -56 -51 -128l-122 -458q-16 -57 -18 -128l-1 -3h-96v3zM192 375l255 211q104 84 104 136v1l1 4h121v-3q-46 -33 -67 -51l-350 -290l181 -313q21 -36 58 -67l-1 -3h-94q-7 8 -17.5 34t-18.5 39l-173 299l-1 1
q0 1 2 2z" />
    <glyph glyph-name="L" unicode="L" horiz-adv-x="492" 
d="M-13 0l1 3q30 56 51 128l122 458q16 57 18 128l1 3h97v-3q-35 -70 -51 -128l-149 -557h168q59 0 167 72h4l-28 -104h-401z" />
    <glyph glyph-name="M" unicode="M" horiz-adv-x="768" 
d="M-13 -1l1 4q54 94 75 170l111 415q13 47 13 95q0 16 -2 33l1 3h89l61 -652l419 653h87l-1 -3q-33 -61 -51 -128l-123 -458q-14 -50 -19 -128v-3h-97l1 3q33 61 51 128l133 495l-403 -626h-54l-58 628l-122 -455q-18 -64 -18 -136q0 -17 1 -34l-2 -4h-93z" />
    <glyph glyph-name="N" unicode="N" horiz-adv-x="651" 
d="M-11 4q56 103 74 170l102 380q16 64 16 144v18l1 4h67l242 -629l121 455q17 64 17 135q0 18 -1 35l1 4h95l-2 -4q-55 -98 -74 -170l-146 -546h-44l-238 626l-121 -452q-17 -64 -17 -135q0 -18 1 -35l-1 -4h-94z" />
    <glyph glyph-name="O" unicode="O" horiz-adv-x="680" 
d="M84 370q38 163 146 261.5t226 98.5h5q120 -2 167 -84.5t47 -167.5q0 -55 -15 -119q-39 -164 -149 -266q-109 -100 -226 -100q-3 0 -64 1t-107 85t-46 167q0 57 16 124zM154 124q36 -94 134 -95h4q96 0 178 90t118 241q17 74 17 134q0 61 -27 130.5t-125 70.5h-4
q-97 0 -178.5 -89t-115.5 -238q-19 -77 -19 -138q0 -60 18 -106z" />
    <glyph glyph-name="P" unicode="P" 
d="M-12 3q33 66 50 128l122 458q17 61 19 128l1 3h239q97 0 133 -55t36 -109q0 -31 -9 -65q-26 -98 -109.5 -157t-189.5 -59l-140 1l-38 -145q-16 -57 -18 -128l-1 -3h-96zM150 310h136q77 0 139 48.5t84 132.5q9 34 9 64q0 42 -24.5 86t-98.5 44h-144z" />
    <glyph glyph-name="Q" unicode="Q" horiz-adv-x="695" 
d="M84 370q38 163 146 261.5t226 98.5h5q120 -2 167 -84.5t47 -167.5q0 -55 -15 -119q-35 -148 -129.5 -246.5t-204.5 -116.5q24 -78 128 -80h8q83 0 169 63l2 -2l-55 -97q-65 -18 -116 -18h-15q-72 2 -111 40.5t-44 90.5h-12q-120 2 -166 86t-46 167q0 57 16 124zM154 124
q36 -94 134 -95h4q96 0 178 90t118 241q17 74 17 134q0 61 -27 130.5t-125 70.5h-4q-97 0 -178.5 -89t-115.5 -238q-19 -77 -19 -138q0 -60 18 -106z" />
    <glyph glyph-name="R" unicode="R" horiz-adv-x="606" 
d="M-13 0l1 3q33 66 50 128l123 458q16 62 18 128l1 3h243q97 0 133.5 -48.5t36.5 -98.5q0 -26 -7 -54q-20 -73 -81 -122t-137 -59q62 -27 74 -94q18 -105 32 -150.5t42 -90.5l-1 -3h-79q-26 58 -51 199q-8 53 -26.5 84t-67.5 47h-136l-52 -199q-17 -61 -19 -128l-1 -3h-96z
M303 362q78 0 134.5 39.5t77.5 118.5q8 30 8 56q0 39 -25 76t-99 37h-147l-88 -327h139z" />
    <glyph glyph-name="S" unicode="S" horiz-adv-x="542" 
d="M26 142h3q25 -61 75.5 -96.5t110.5 -35.5q11 0 22 1q60 6 105.5 38t61.5 83q7 25 7 48q0 97 -127 166q-133 72 -133 170q0 34 15 70q29 68 92 109t141 49q17 2 33 2q95 0 182 -59l-32 -89h-3q-24 52 -70.5 82t-100.5 30q-11 0 -23 -1q-54 -6 -98.5 -36.5t-65.5 -79.5
q-12 -29 -12 -55q0 -29 23 -63t92 -72q85 -47 116 -95.5t31 -93.5q0 -33 -12 -70q-23 -74 -85 -117.5t-152 -51.5q-14 -1 -28 -1q-35 0 -77 11t-66 24.5t-61 38.5z" />
    <glyph glyph-name="T" unicode="T" horiz-adv-x="580" 
d="M151 720h532l-28 -106h-3q-61 74 -118 74h-92l-149 -557q-14 -50 -19 -128v-3h-97l1 3q35 71 50 128l150 557h-95q-56 0 -158 -74h-3z" />
    <glyph glyph-name="U" unicode="U" horiz-adv-x="626" 
d="M77 281l83 308q17 61 19 128l1 3h95l-1 -3q-36 -77 -49 -128l-78 -291q-17 -72 -17 -123q0 -48 23 -95t105 -47q36 0 71 12t73 39t70.5 80.5t52.5 126.5l68 255q19 75 19 155v15l1 4h88l-1 -4q-51 -91 -72 -170l-71 -264q-40 -149 -126.5 -221.5t-186.5 -72.5
q-101 0 -141.5 60t-40.5 126q0 48 15 107z" />
    <glyph glyph-name="V" unicode="V" horiz-adv-x="645" 
d="M155 720h103l-1 -3q-18 -40 -18 -101q0 -16 1 -33l47 -533l306 507q58 96 58 159l1 4h92l-1 -3q-39 -42 -98 -138l-349 -579h-66l-52 585q-6 76 -24 131z" />
    <glyph glyph-name="W" unicode="W" horiz-adv-x="927" 
d="M153 717l1 3h106l-1 -3q-22 -49 -22 -117v-16l16 -508l280 504l-1 9q-1 74 -21 128l1 3l106 -1l-1 -3q-22 -48 -22 -112q0 -10 1 -21l16 -511l269 486q51 94 51 155v4l1 3h93l-1 -3q-50 -55 -93 -130l-323 -587h-56l-18 520l-285 -520h-54l-21 587q-5 82 -22 130z" />
    <glyph glyph-name="X" unicode="X" horiz-adv-x="615" 
d="M-29 0l1 3q4 4 35.5 34.5t50.5 50.5l244 268l-100 277q-5 14 -12 29t-15 31l-12 24l1 3h112l-1 -3q-9 -18 -9 -42q0 -34 18 -80l72 -193l160 173q83 89 84 141l1 4h103l-1 -3q-6 -7 -37.5 -36.5t-49.5 -48.5l-249 -264l106 -288q9 -24 35 -77l-1 -3h-111l1 3q8 16 8 39
q0 35 -18 85l-71 195l-164 -178q-81 -85 -82 -140l-1 -4h-98z" />
    <glyph glyph-name="Y" unicode="Y" horiz-adv-x="595" 
d="M150 720h112l-1 -3q-11 -25 -11 -61q0 -30 8 -68l60 -287l210 266q74 97 74 149l1 4h96l-1 -3q-5 -5 -27.5 -29t-39 -43.5t-32.5 -40.5l-269 -344l-35 -129q-16 -57 -18 -128l-1 -3h-98v3q35 70 51 128l34 129l-75 344q-10 46 -39 113z" />
    <glyph glyph-name="Z" unicode="Z" horiz-adv-x="537" 
d="M-33 0l558 688h-223q-59 0 -164 -54h-3l23 86h472l-558 -688h220q62 0 164 55h4l-23 -87h-470z" />
    <glyph glyph-name="bracketleft" unicode="[" horiz-adv-x="234" 
d="M-47 -150l239 889h155l-3 -9q-14 -3 -34 -7t-27 -6.5t-19 -5.5t-16 -8t-11 -11.5t-10.5 -18.5t-8 -25.5t-10.5 -35.5l-170 -635q-6 -22 -8.5 -36t-4.5 -23t-2 -13q0 -5 2.5 -10.5t3.5 -10.5t12 -8.5t16 -5.5t24 -6t29 -6l-2 -8h-155z" />
    <glyph glyph-name="backslash" unicode="\" horiz-adv-x="578" 
d="M444 -103h-32l-234 896h31z" />
    <glyph glyph-name="bracketright" unicode="]" horiz-adv-x="234" 
d="M-86 -150l2 8q12 2 30 6t24.5 5t18.5 4.5t15.5 6t11.5 9t10.5 13t7.5 18.5t9 24.5t9 32.5l171 635q7 25 10 38t3 23q0 3 -0.5 11t-0.5 13t-10 11t-15 7t-26.5 6.5t-33.5 8.5l1 9h155l-237 -889h-155z" />
    <glyph glyph-name="asciicircum" unicode="^" horiz-adv-x="464" 
d="M161 575l-9 13l207 134l134 -134l-15 -13l-139 72z" />
    <glyph glyph-name="underscore" unicode="_" horiz-adv-x="613" 
d="M0 -5l9 32h477l-9 -32h-477z" />
    <glyph glyph-name="a" unicode="a" horiz-adv-x="519" 
d="M38 250q44 125 116 186.5t138 61.5q37 0 60.5 -19t29.5 -52q40 35 58 65h16l-115 -423q-2 -7 -2 -12q0 -11 10 -11h2q28 5 79 69q24 32 46 69l6 -8q-35 -79 -79.5 -130.5t-82.5 -51.5q-40 0 -40 44q0 17 6 41l21 77q-41 -75 -94 -119t-102 -44q-63 0 -80 45t-17 79
q0 55 24 133zM80 100q12 -61 61 -61q50 0 106.5 67.5t90.5 166.5l27 101q0 6 1 12q-1 29 -14.5 54t-49.5 26h-4q-51 0 -106 -54.5t-90 -154.5q-25 -72 -25 -123q0 -18 3 -34z" />
    <glyph glyph-name="b" unicode="b" horiz-adv-x="447" 
d="M29 131l121 457q17 64 19 129l1 3h75l-102 -379q41 72 93 114.5t99 42.5q64 0 81 -44.5t17 -79.5q0 -54 -24 -132q-44 -126 -119 -187.5t-147 -61.5q-54 0 -83 39l-75 -33h-7q35 75 51 132zM69 64q22 -39 67 -39q57 0 115.5 54.5t93.5 154.5q25 72 25 123q0 19 -8 57
t-57 38t-103.5 -64t-88.5 -161z" />
    <glyph glyph-name="c" unicode="c" horiz-adv-x="443" 
d="M36 250q30 111 102 179.5t155 68.5q64 0 124 -45l-27 -87h-4q-13 44 -38.5 73.5t-62.5 29.5h-2q-57 -1 -109.5 -65.5t-74.5 -146.5q-14 -47 -14 -86q0 -38 19.5 -85t87.5 -47q115 0 197 161l7 -11q-42 -99 -104 -147.5t-124 -48.5q-80 0 -112.5 57t-32.5 112q0 40 13 88z
" />
    <glyph glyph-name="d" unicode="d" horiz-adv-x="519" 
d="M38 250q44 125 116 186.5t137 61.5q72 0 89 -68l45 168q17 60 17 101q0 13 -2 24l-1 3l82 15l-180 -672q-2 -7 -2 -12q0 -11 10 -11h2q28 5 79 69q24 32 46 69l6 -8q-35 -79 -79.5 -130.5t-82.5 -51.5q-22 0 -31.5 14t-9.5 30q0 17 7 41l21 78q-41 -76 -94 -120t-102 -44
q-63 0 -80 45t-17 79q0 55 24 133zM80 100q12 -61 61 -61q53 0 112 73.5t90 178.5l19 71q1 11 1 20q0 28 -12 55t-50 28h-4q-50 0 -105 -54t-90 -154q-25 -72 -25 -123q0 -18 3 -34z" />
    <glyph glyph-name="e" unicode="e" horiz-adv-x="454" 
d="M40 262q31 104 103 170t158 66q59 0 93 -26.5t34 -63.5q0 -9 -2 -18q-13 -67 -91.5 -108t-179.5 -41q-29 0 -60 3q-10 -41 -10 -75q0 -42 21 -86t86 -44q50 0 105.5 36.5t102.5 124.5l7 -11q-42 -98 -108.5 -147t-130.5 -49q-81 0 -113 57t-32 110q0 46 17 102zM101 265
h14q112 0 172.5 32t73.5 85q3 13 3 25q0 22 -15.5 42.5t-52.5 20.5q-62 0 -115.5 -61.5t-77.5 -137.5q-1 -1 -1 -3t-1 -3z" />
    <glyph glyph-name="f" unicode="f" horiz-adv-x="377" 
d="M-12 -81q43 61 82 204l89 337h-78l8 32h78l13 49q52 190 180 190q55 0 104 -29l-20 -73h-4q-43 73 -86 73q-71 0 -115 -163l-13 -47h157l-9 -32h-156l-90 -337q-43 -158 -101.5 -224.5t-162.5 -83.5q81 43 124 104z" />
    <glyph glyph-name="g" unicode="g" horiz-adv-x="466" 
d="M-54 -77q19 65 86 101q-19 11 -24 27t-5 28t3 25q16 58 90 80q-40 35 -40 92q0 26 9 57q21 78 83.5 121.5t136.5 43.5q62 0 101 -30q48 53 113 53q12 0 25 -2l-28 -59l-2 -1q-21 14 -46 14t-54 -13q25 -23 31 -50t6 -45q0 -24 -7 -50q-21 -76 -84.5 -120.5t-137.5 -44.5
q-50 0 -87 22q-49 -12 -60 -52q-3 -8 -3 -15q0 -16 15 -29.5t43 -13.5h141q68 0 96 -30.5t28 -62.5q0 -21 -9 -45q-14 -41 -48 -68.5t-76.5 -38t-70.5 -14t-56 -3.5q-48 0 -88 9.5t-62.5 34t-22.5 51.5q0 13 4 28zM133 220q24 -43 78 -43q50 0 91 37.5t58 100.5q8 31 8 57
q0 33 -18.5 65.5t-73.5 32.5q-49 0 -89.5 -35t-59.5 -103q-8 -30 -8 -55q0 -33 14 -57zM25 -147q37 -24 107 -24q78 0 128.5 30t60.5 70q3 10 3 19q0 22 -19 41t-68 19h-122q-29 0 -57 5q-55 -41 -62 -90q-1 -8 -1 -15q0 -34 30 -55z" />
    <glyph glyph-name="h" unicode="h" horiz-adv-x="557" 
d="M153 598q16 59 16 99q0 14 -2 26v3l84 15l-117 -434q45 85 102.5 138t122.5 53q55 0 77.5 -31.5t22.5 -68.5q0 -31 -11 -71l-70 -261q-1 -6 -1 -9q0 -10 8 -10h2q27 3 77 65q27 32 50 72l6 -8q-35 -79 -79 -130.5t-81 -51.5q-24 0 -33.5 14t-9.5 30q0 17 7 41l64 241
q9 34 9 60q0 24 -13 48.5t-51 24.5q-48 0 -99.5 -52t-88 -122.5t-58.5 -143.5l-36 -135h-58z" />
    <glyph glyph-name="i" unicode="i" horiz-adv-x="247" 
d="M17 88l73 275q14 53 14 111v15l1 3h79l-107 -396q-5 -19 -5 -31q0 -15 10 -15h3q29 5 83 81q20 29 38 60l6 -9q-34 -79 -78 -130.5t-81 -51.5q-24 0 -33.5 15t-9.5 31q0 18 7 42zM147 673q5 21 23 35.5t36 14.5q19 0 27.5 -12t8.5 -25q0 -6 -3.5 -20t-21.5 -28.5
t-36 -14.5q-19 0 -27.5 12t-8.5 25q0 6 2 13z" />
    <glyph glyph-name="j" unicode="j" horiz-adv-x="222" 
d="M-47 -96q38 48 54 88t32 99l72 270q14 50 19 128v3h75l-112 -417q-35 -131 -92.5 -188t-136.5 -64l-3 2q54 31 92 79zM168 673q5 21 23 35.5t37 14.5q18 0 26.5 -12t8.5 -25q0 -6 -3.5 -20t-21.5 -28.5t-36 -14.5q-19 0 -27.5 12t-8.5 25q0 6 2 13z" />
    <glyph glyph-name="k" unicode="k" horiz-adv-x="507" 
d="M-21 0l1 3q36 77 50 128l124 467q15 55 15 125v3l83 15l-163 -610q-17 -61 -19 -128l-1 -3h-90zM144 271v1l132 97q86 64 86 111q0 4 -1 8l1 4h121l-1 -4l-279 -207l94 -180q17 -33 26.5 -45t21.5 -12h1q20 0 44 29t72 101l5 -8q-72 -172 -142 -172q-7 0 -12.5 1.5
t-11.5 5.5t-10 7.5t-10 11.5t-10 13.5t-10.5 18t-11 20t-13 24t-13.5 26.5z" />
    <glyph glyph-name="l" unicode="l" horiz-adv-x="248" 
d="M17 86l136 512q15 56 15 102q0 13 -1 26l83 15l-172 -645q-5 -19 -5 -31q0 -15 10 -15h3q29 5 85 84l36 57l6 -9q-35 -79 -79 -130.5t-81 -51.5q-24 0 -33.5 14.5t-9.5 30.5q0 17 7 41z" />
    <glyph glyph-name="m" unicode="m" horiz-adv-x="821" 
d="M90 359q17 61 17 104q0 14 -2 26v3h78l-45 -166q90 172 197 172q56 0 78.5 -31.5t22.5 -68.5q0 -31 -11 -71q87 171 197 171q55 0 77.5 -32t22.5 -70q0 -30 -10 -69l-70 -261q-1 -6 -1 -9q0 -10 8 -10h2q27 3 77 65q27 32 50 72l6 -8q-35 -79 -79 -130.5t-81 -51.5
q-43 0 -43 43q0 18 7 42l64 241q9 34 9 60q0 25 -13 49.5t-52 24.5q-62 0 -120.5 -86.5t-93.5 -201.5l-44 -166h-59l87 320q9 34 9 60q0 25 -13 49.5t-52 24.5q-45 0 -90 -49t-77 -116t-52 -141v3l-40 -151h-59z" />
    <glyph glyph-name="n" unicode="n" 
d="M90 359q17 61 17 104q0 14 -2 26v3h78l-50 -186q102 192 225 192q56 0 78 -32t22 -69q0 -30 -10 -70l-70 -261q-1 -6 -1 -9q0 -10 8 -10h2q27 3 77 65q27 32 50 72l5 -8q-34 -79 -78 -130.5t-81 -51.5q-24 0 -33.5 14t-9.5 30q0 17 6 41l65 241q9 34 9 60q0 24 -13 48.5
t-51 24.5q-47 0 -96.5 -48.5t-85.5 -114.5t-59 -138l-41 -152h-59z" />
    <glyph glyph-name="o" unicode="o" horiz-adv-x="468" 
d="M37 251q29 112 101.5 179.5t153.5 67.5h5q85 -2 116 -58t31 -110q0 -40 -12 -87q-30 -115 -103 -185t-154 -70h-5q-85 2 -116 59.5t-31 111.5q0 42 14 92zM96 85q21 -68 83 -69h2q58 0 108 63.5t76 164.5q14 51 14 95q0 35 -15 82.5t-45.5 48t-31.5 0.5q-59 0 -109 -61.5
t-76 -158.5q-15 -55 -15 -100q0 -35 9 -65z" />
    <glyph glyph-name="p" unicode="p" horiz-adv-x="444" 
d="M-79 -197q37 79 49 127l115 430q17 64 19 129l1 3h74l-42 -157q40 75 93 119t102 44q40 0 66.5 -29t29.5 -62t3 -42q0 -51 -24 -122q-44 -126 -115 -188t-137 -62q-36 1 -59.5 20.5t-30.5 51.5l-71 -265h-74zM93 57q15 -30 53 -31h2q51 0 105 55t90 156q24 70 24 120
q0 19 -8 57t-57 38q-54 0 -113.5 -76.5t-90.5 -185.5l-4 -15q0 -1 -0.5 -2.5t-0.5 -2.5l-12 -45q-1 -8 -1 -15q0 -29 13 -53z" />
    <glyph glyph-name="q" unicode="q" horiz-adv-x="447" 
d="M38 250q44 125 117 186.5t139 61.5q71 0 86 -70l17 64h73l-1 -3q-36 -77 -50 -128l-114 -430q-17 -61 -19 -128l-1 -3h-74l96 358q-41 -76 -95 -120.5t-104 -44.5q-40 0 -65.5 29.5t-27.5 61.5t-2 39q0 53 25 127zM79 99q11 -60 59 -60q54 0 115 76.5t92 184.5l6 19v2
l12 45q1 9 1 18q0 28 -11.5 54t-48.5 27h-4q-51 0 -107 -54.5t-92 -155.5q-25 -71 -25 -122q0 -18 3 -34z" />
    <glyph glyph-name="r" unicode="r" horiz-adv-x="344" 
d="M-11 0l96 361q17 61 19 128l1 3h73l-45 -169q44 91 92 133t89 42q23 0 48 -11l-24 -67h-3q-24 15 -48 15h-3q-55 -2 -105.5 -78t-83.5 -177l-47 -180h-59z" />
    <glyph glyph-name="s" unicode="s" horiz-adv-x="400" 
d="M22 126l3 1q13 -44 48.5 -75.5t83.5 -33.5h5q82 0 107 63q6 16 6 31q0 25 -20.5 53.5t-76.5 64.5q-14 9 -23.5 15.5t-23.5 17.5t-23 21t-18 23.5t-13 27t-4 30.5t6 34q16 46 58.5 71.5t102.5 27.5h14q75 0 141 -38l-30 -83h-3q-12 44 -44.5 68t-77.5 24h-7
q-79 -4 -101 -60q-4 -11 -4 -23q0 -41 55 -82q7 -6 37 -27q67 -45 89 -78.5t22 -63.5q0 -19 -7 -39q-34 -106 -166 -108h-7q-95 0 -160 53z" />
    <glyph glyph-name="t" unicode="t" horiz-adv-x="333" 
d="M51 126l89 334h-69l5 19q53 10 88.5 46t62.5 93h15l-34 -126h134l-8 -32h-135l-85 -314q-11 -39 -11 -64q0 -43 33 -43q29 0 67.5 35.5t80.5 111.5l6 -8q-80 -184 -178 -184q-44 0 -56.5 28t-12.5 52q0 23 8 52z" />
    <glyph glyph-name="u" unicode="u" 
d="M38 165l53 194q16 61 16 102q0 15 -2 28v3h81l-88 -320q-9 -34 -9 -60q0 -24 13 -48.5t51 -24.5q68 0 136 94.5t106 210.5l40 148h59l-117 -426q-1 -6 -1 -9q0 -10 8 -10h2q27 4 77 65q27 32 50 72l6 -8q-35 -79 -79 -130.5t-81 -51.5q-23 0 -32.5 14t-9.5 30q0 17 6 41
l28 104q-101 -189 -223 -189q-56 0 -78 32t-22 69q0 30 10 70z" />
    <glyph glyph-name="v" unicode="v" horiz-adv-x="447" 
d="M38 165l53 194q16 61 16 102q0 15 -2 28v3h81l-88 -320q-13 -49 -13 -81q0 -59 46 -59q34 0 74 22t78 63t62.5 112.5t24.5 157.5q0 52 -16 85l85 26q0 -50 -8 -107q-12 -103 -50 -184t-87 -125t-97 -66t-90 -22q-33 0 -52.5 15.5t-24.5 40t-5 38.5q0 32 13 77z" />
    <glyph glyph-name="w" unicode="w" horiz-adv-x="692" 
d="M40 174l50 185q17 63 17 104q0 14 -2 26v3h81l-85 -312q-11 -42 -11 -72q0 -18 7 -43.5t44 -25.5q57 0 112 83t93 197l11 40q18 64 18 106q0 13 -2 24v3h80l-87 -320q-12 -43 -12 -73q0 -65 56 -65q77 0 143.5 99.5t66.5 224.5q0 14 -1 29q-2 35 -17 85l86 26
q0 -38 -8 -81q-11 -103 -43.5 -186.5t-75.5 -133.5t-89 -76.5t-89 -26.5q-52 0 -70.5 31t-18.5 64q0 32 12 76l3 12q-93 -183 -196 -183q-53 0 -68.5 33t-15.5 66q0 34 11 81z" />
    <glyph glyph-name="x" unicode="x" horiz-adv-x="583" 
d="M8 47l37 64h3q10 -34 22.5 -50t34.5 -16q9 0 18 3t18.5 10.5t17 14.5t18 21t17 23t17.5 28t16.5 29.5t18 33t18.5 32.5l-36 159q-13 55 -42 55q-25 -1 -55 -35t-72 -102l-5 9q31 74 71 123t84 49q55 0 71 -71l31 -138q23 44 32 60t32 52.5t38.5 52t39.5 30t48 14.5
q47 0 73 -53l-36 -65h-3q-10 34 -22.5 50t-34.5 16q-44 0 -101 -91q-12 -19 -58 -102l36 -160q7 -29 16.5 -42t23.5 -13h2q25 0 54 33.5t72 102.5l6 -8q-31 -74 -71 -123t-84 -49q-55 0 -71 72l-31 137q-62 -117 -96 -156q-46 -54 -94 -54t-74 54z" />
    <glyph glyph-name="y" unicode="y" horiz-adv-x="497" 
d="M-42 -79h4q29 -74 103 -74h4q54 0 115 45q9 177 9 311q0 87 -4 155q-5 96 -44 96q-6 0 -12 -2t-12 -6t-11 -8.5t-12 -12.5t-11.5 -14t-12.5 -17t-12.5 -18t-13 -20.5t-13.5 -20.5l-5 9q16 33 28 54t30.5 47.5t39 39.5t43.5 13q67 0 73 -112q4 -64 4 -154q0 -121 -7 -289
q72 77 122.5 187.5t57.5 211.5q1 18 1 35q0 51 -11 96l86 25q-3 -142 -64.5 -299.5t-167 -272.5t-218.5 -119q-8 -1 -16 -1q-69 0 -115 47z" />
    <glyph glyph-name="z" unicode="z" horiz-adv-x="453" 
d="M-14 -8q13 53 51 103t88.5 91.5t102.5 80.5t103.5 86t81.5 92q-52 -24 -99 -24q-27 0 -66.5 10.5t-63.5 10.5q-31 0 -53.5 -10.5t-34 -23.5t-24.5 -36h-12l23 58q26 67 100 67q23 0 59 -7.5t57.5 -11.5t39.5 -4q19 0 53.5 4t83.5 25q-21 -57 -65.5 -110t-96.5 -95
t-104 -81t-97.5 -83.5t-66.5 -86.5q46 21 87 21q27 0 71 -11t64 -11q64 0 104 66h10l-21 -52q-26 -66 -94 -66q-26 0 -70 11t-91 11q-2 0 -27.5 -0.5t-92.5 -23.5z" />
    <glyph glyph-name="braceleft" unicode="{" horiz-adv-x="275" 
d="M10 -29q8 29 52 107.5t55 119.5q6 22 6 38t-10 29.5t-43 18.5l5 20q36 5 59 23t35 63q8 33 8 94v26.5v28.5q0 55 6 78q15 54 63 87.5t110 33.5q21 0 30 -1l-3 -13q-52 0 -90.5 -24t-50.5 -68q-6 -22 -6 -71q0 -18 1 -38.5t1 -37.5q0 -55 -8 -83q-23 -82 -99 -108
q47 -19 47 -69q0 -18 -6 -39q-10 -37 -56.5 -118t-54.5 -112q-4 -14 -4 -26q0 -26 22 -46t74 -20l-4 -13q-10 -1 -30 -1q-63 0 -88.5 28t-25.5 60q0 15 5 33z" />
    <glyph glyph-name="bar" unicode="|" horiz-adv-x="161" 
d="M-20 -70l231 860h31l-231 -860h-31z" />
    <glyph glyph-name="braceright" unicode="}" horiz-adv-x="274" 
d="M-83 -136q52 0 90 24t50 68q7 23 7 75q0 17 -1 36.5t-1 35.5q0 55 8 83q21 81 99 108q-47 19 -47 69q0 18 6 39q10 37 56 118t54 112q4 14 4 26q0 26 -21.5 46t-73.5 20l4 13q9 1 31 1q62 0 87 -28t25 -61q0 -15 -4 -32q-8 -30 -52.5 -108.5t-55.5 -118.5q-6 -21 -6 -36
q0 -17 10.5 -31t43.5 -19l-6 -20q-36 -5 -58.5 -23t-34.5 -63q-9 -35 -9 -96v-25.5v-29.5q0 -53 -5 -76q-14 -54 -62.5 -87.5t-111.5 -33.5q-20 0 -30 1z" />
    <glyph glyph-name="exclamdown" unicode="&#xa1;" horiz-adv-x="226" 
d="M29 -30q26 84 62.5 192.5t53.5 159.5h14q-12 -55 -33 -160.5t-39 -190.5t-37 -161h-69q21 76 48 160zM159 485q5 21 21 36t31 15q16 0 22 -11.5t6 -21.5q0 -8 -3 -17q-5 -21 -20.5 -35.5t-30.5 -15.5q-16 0 -22 12t-6 23q0 7 2 15z" />
    <glyph glyph-name="cent" unicode="&#xa2;" horiz-adv-x="443" 
d="M36 250q29 107 98 175t150 73l23 86h30l-23 -87q54 -6 103 -44l-27 -87h-4q-25 84 -80 100l-115 -427h1q115 0 197 161l7 -11q-40 -94 -98.5 -142.5t-118.5 -53.5l-22 -83h-30l22 84q-72 9 -99 63.5t-27 104.5q0 41 13 88zM93 116q17 -60 69 -73l114 426
q-55 -6 -105.5 -69.5t-71.5 -142.5q-13 -47 -13 -87q0 -29 7 -54z" />
    <glyph glyph-name="sterling" unicode="&#xa3;" horiz-adv-x="524" 
d="M-34 0q103 130 131 174.5t45 111.5h-89l8 31h86q4 28 4 82q0 23 -0.5 44t-0.5 35q0 67 10 90q19 70 77.5 116t138.5 46q87 0 189 -61l-53 -84h-3q-49 114 -139 114q-50 0 -89.5 -34t-53.5 -90q-11 -38 -14 -127.5t-10 -130.5h204l-8 -31h-203q-17 -59 -51 -110t-101 -120
h183q53 0 77 1.5t60 13.5t67 37h3l-45 -108h-423z" />
    <glyph glyph-name="currency" unicode="&#xa4;" 
d="M16 101l89 73q-20 36 -20 80q0 27 8 57q21 79 85 136l-49 70l32 26l49 -71q71 50 142 50q73 0 116 -51l87 71l18 -26l-87 -70q18 -36 18 -77q0 -28 -8 -58q-21 -79 -83 -136l50 -73l-31 -26l-51 73q-69 -50 -142 -50q-72 0 -115 48l-89 -71zM148 187q34 -52 101 -52
t128.5 52.5t80.5 123.5q7 26 7 50q0 40 -28 82.5t-95 42.5t-129 -52t-80 -123q-7 -26 -7 -50q0 -41 22 -74z" />
    <glyph glyph-name="yen" unicode="&#xa5;" horiz-adv-x="595" 
d="M66 178h175l22 82l-1 6h-173l8 32h158l-67 306q-10 46 -39 113l1 3h112l-1 -3q-11 -25 -11 -61q0 -30 8 -68l60 -287l210 266q74 97 74 149l1 4h96l-1 -3q-5 -5 -27.5 -29t-39 -43.5t-32.5 -40.5l-239 -306h158l-9 -32h-174l-5 -6l-22 -82h178l-8 -31h-179l-4 -16
q-16 -57 -18 -128l-1 -3h-98v3q35 70 51 128l4 16h-176z" />
    <glyph glyph-name="brokenbar" unicode="&#xa6;" horiz-adv-x="197" 
d="M128 415l82 305h31l-82 -305h-31zM17 0l82 306h31l-82 -306h-31z" />
    <glyph glyph-name="section" unicode="&#xa7;" horiz-adv-x="417" 
d="M-18 -60l24 88q11 -25 19 -40t22.5 -33t35 -27t47.5 -9q43 0 75 21t41 58q3 12 3 23q0 58 -89 93q-62 26 -82 52t-20 53q0 13 4 27q20 76 113 105q-56 31 -56 82q0 14 4 30q14 53 59.5 86.5t108.5 33.5q64 0 127 -47l-21 -79q-47 95 -117 95q-36 0 -67.5 -20t-41.5 -54
q-3 -10 -3 -19q0 -52 90 -88q97 -42 97 -111q0 -16 -5 -34q-19 -69 -96 -99q43 -31 43 -79q0 -18 -6 -38q-15 -58 -61.5 -90t-108.5 -32q-30 0 -57.5 8.5t-43 18t-38.5 25.5zM110 221q2 -7 5.5 -13t10.5 -11.5t13.5 -10t17 -9.5t18.5 -9.5t21 -10.5t23 -11q33 8 56.5 29
t30.5 51q3 12 3 22q0 22 -17.5 43t-70.5 39q-37 -1 -68.5 -22.5t-41.5 -54.5q-3 -9 -3.5 -13.5t-0.5 -5.5q0 -7 3 -13z" />
    <glyph glyph-name="copyright" unicode="&#xa9;" horiz-adv-x="629" 
d="M121 535q2 81 60.5 138t138.5 57q81 0 135 -56t54 -133q0 -3 -1 -45t-59.5 -99t-138.5 -57q-81 0 -135 56t-54 133v6zM189 411q49 -52 122 -52t124 51.5t53 124.5v6q0 70 -47 120t-118 50h-3q-73 0 -125 -51.5t-53 -124.5v-6q0 -69 47 -118zM214 535q1 48 31 77.5
t75 29.5q20 0 72 -12l-1 -51h-1h-3q-21 47 -62 47q-34 0 -52.5 -24.5t-19.5 -66.5v-4q0 -38 18 -62t52 -24q38 0 63 48l3 1l-1 -54q-54 -12 -76 -12q-43 0 -70.5 29t-27.5 75v3z" />
    <glyph glyph-name="guillemotleft" unicode="&#xab;" horiz-adv-x="454" 
d="M414 482h44l-220 -205l110 -205h-44l-110 205zM64 277l220 205h43l-220 -205l110 -205h-43z" />
    <glyph glyph-name="registered" unicode="&#xae;" horiz-adv-x="504" 
d="M114 673q57 57 138 57t138 -57t57 -138t-57 -138t-138 -57t-138 57t-57 138t57 138zM78 535q0 -73 51 -124q50 -52 123 -52t123.5 51.5t50.5 124.5q0 74 -50.5 125t-123.5 51t-123.5 -51t-50.5 -125zM259 641q31 0 49.5 -16t18.5 -37v-2q0 -39 -42 -52q16 -10 24 -30
q2 -5 6.5 -21t8.5 -24q12 -23 18 -28h-40q-5 7 -13 32t-13 36q-6 15 -14.5 20.5t-14 6t-27.5 0.5v-35q0 -15 2 -30t4 -23l2 -7h-44q8 26 8 60v90q0 15 -2 30t-4 23l-2 7h75zM220 624v-79h34q18 0 29.5 10.5t11.5 30.5q0 38 -41 38h-34z" />
    <glyph glyph-name="degree" unicode="&#xb0;" horiz-adv-x="391" 
d="M157 594q15 56 63 96t104 40t79 -33.5t23 -66.5q0 -17 -5 -36q-15 -56 -64 -97q-50 -41 -106 -41t-77.5 33.5t-21.5 65.5q0 19 5 39zM198 520q19 -31 61 -31q43 0 80 31.5t48 73.5q4 16 5 30q-1 24 -17 49t-59 25t-78.5 -30.5t-43.5 -60t-8 -44.5q0 -24 12 -43z" />
    <glyph glyph-name="plusminus" unicode="&#xb1;" horiz-adv-x="635" 
d="M104 405h137q72 0 81 7q9 8 28 79l38 138h35l-38 -138q-14 -55 -14 -72q0 -5 3.5 -9.5t73.5 -4.5h138l-9 -34h-137q-73 0 -81 -7q-10 -7 -29 -79l-37 -138h-35l37 138q15 56 15 73q0 4 -1 6q-6 7 -77 7h-136zM537 106v-31h-469v31h469z" />
    <glyph glyph-name="twosuperior" unicode="&#xb2;" horiz-adv-x="294" 
d="M81 363q30 31 73 74t67 67.5t50 53.5t40 51t19 41q3 12 3 22q0 13 -8 27t-34 14q-51 0 -110 -66q-2 -1 -3 -1t-2 1t-1 2v1l10 51q63 33 113 33q42 0 59.5 -19.5t17.5 -42.5q0 -11 -3 -24q-12 -44 -85 -114l-145 -137h74q61 0 95 19q2 1 3 1t2 -2q-1 -1 -1 -2l-20 -50
h-214z" />
    <glyph glyph-name="threesuperior" unicode="&#xb3;" horiz-adv-x="292" 
d="M96 390l20 53q2 5 4 5q1 0 2 -3q22 -66 77 -66q32 0 58.5 21.5t34.5 53.5q3 12 3 23q0 24 -21 43t-62 20l4 16q40 1 77 25t47 61q3 11 3 21q0 16 -11.5 33t-42.5 17q-53 0 -111 -63q-3 -3 -4 -3t-1 2q0 1 1 2l8 51q68 32 113 32q46 0 66.5 -21.5t20.5 -47.5q0 -11 -3 -24
q-19 -69 -103 -92q60 -18 60 -66q0 -13 -4 -27q-12 -44 -52 -71.5t-86 -27.5q-52 0 -98 33z" />
    <glyph glyph-name="paragraph" unicode="&#xb6;" horiz-adv-x="475" 
d="M101 499q26 98 104.5 159.5t165.5 61.5h110l-193 -720h-30l75 277h-80q-92 0 -127.5 48.5t-35.5 100.5q0 33 11 73zM510 720h30l-193 -720h-29z" />
    <glyph glyph-name="periodcentered" unicode="&#xb7;" horiz-adv-x="223" 
d="M85 339q5 20 22.5 34.5t36.5 14.5q19 -1 27 -12.5t8 -23.5q0 -6 -2 -13q-4 -20 -21 -34q-18 -14 -37 -14t-27.5 11.5t-8.5 23.5q0 6 2 13z" />
    <glyph glyph-name="onesuperior" unicode="&#xb9;" horiz-adv-x="169" 
d="M123 364q16 32 26 66l66 249h-53l3 13q63 18 104 52l-84 -314q-6 -25 -9 -66v-1h-53v1z" />
    <glyph glyph-name="guillemotright" unicode="&#xbb;" horiz-adv-x="453" 
d="M230 277l-110 205h44l110 -205l-220 -205h-44zM361 277l-110 205h44l109 -205l-219 -205h-44z" />
    <glyph glyph-name="onequarter" unicode="&#xbc;" horiz-adv-x="725" 
d="M663 363h36l-70 -261h51l-6 -23h-51q-14 -55 -14 -82h-55q20 38 31 82h-171zM-30 -32l731 783h35l-731 -783h-35zM123 363v1q16 32 26 66l66 249h-53l3 13q63 18 104 52l-84 -314q-6 -25 -9 -66v-1h-53zM592 102l57 213l-188 -213h131z" />
    <glyph glyph-name="onehalf" unicode="&#xbd;" horiz-adv-x="712" 
d="M-30 -32l731 783h35l-731 -783h-35zM402 -3q30 31 73 74t67 67.5t50 53.5t40 51t19 41q3 12 3 22q0 13 -8 27t-34 14q-51 0 -110 -66q-2 -1 -3 -1t-2 1t-1 2v1l10 51q63 33 113 33q42 0 59.5 -19.5t17.5 -42.5q0 -11 -3 -24q-12 -44 -85 -114l-145 -137h74q61 0 95 19
q2 1 3 1t2 -2q-1 -1 -1 -2l-20 -50h-214zM123 364q16 32 26 66l66 249h-53l3 13q63 18 104 52l-84 -314q-6 -25 -9 -66v-1h-53v1z" />
    <glyph glyph-name="threequarters" unicode="&#xbe;" horiz-adv-x="848" 
d="M786 363h36l-70 -261h51l-6 -23h-51q-14 -55 -14 -82h-55q20 38 31 82h-171zM824 751h35l-731 -783h-35zM116 443q2 5 4 5q1 0 2 -3q22 -66 77 -66q32 0 58.5 21.5t34.5 53.5q3 12 3 23q0 24 -21 43t-62 20l4 16q40 1 77 25t47 61q3 11 3 21q0 16 -11.5 33t-42.5 17
q-53 0 -111 -63q-3 -3 -4 -3t-1 2q0 1 1 2l8 51q68 32 113 32q46 0 66.5 -21.5t20.5 -47.5q0 -11 -3 -24q-19 -69 -103 -92q60 -18 60 -66q0 -13 -4 -27q-12 -44 -52 -71.5t-86 -27.5q-52 0 -98 33zM584 102h131l57 213z" />
    <glyph glyph-name="questiondown" unicode="&#xbf;" horiz-adv-x="520" 
d="M-64 -130l50 92h5q23 -70 63 -100.5t84 -30.5q59 0 103 39t58 91q4 16 4.5 26.5t0.5 15.5q0 9 -1 17.5t-8 25t-9.5 22t-13.5 24.5t-13 22q-16 28 -24.5 50.5t-8.5 61.5q0 3 0.5 25.5t21.5 64.5h15q-5 -27 -5 -51q0 -23 8 -51t42 -81l16 -24q10 -15 16.5 -25t14 -25
t11 -28.5t3.5 -31.5t-5 -37q-19 -69 -84.5 -115.5t-149.5 -46.5q-94 0 -194 70zM261 482q6 21 24.5 35.5t37.5 14.5q20 0 28.5 -12t8.5 -25q0 -6 -2 -13q-6 -20 -24 -35t-37 -15q-20 0 -29 12t-9 25q0 6 2 13z" />
    <glyph glyph-name="Agrave" unicode="&#xc0;" horiz-adv-x="635" 
d="M-38 0v2q27 29 97 139l309 500q20 32 20 59q0 9 -2 18l1 2h77l55 -585q11 -99 23 -133l-1 -2h-101v3q18 38 18 95q0 18 -2 39l-10 111h-282l-51 -85q-59 -97 -59 -159l-1 -4h-91zM443 281l-33 364l-224 -364h257zM357 873l66 54l161 -119l-18 -15z" />
    <glyph glyph-name="Aacute" unicode="&#xc1;" horiz-adv-x="635" 
d="M-38 0v2q27 29 97 139l309 500q20 32 20 59q0 9 -2 18l1 2h77l55 -585q11 -99 23 -133l-1 -2h-101v3q18 38 18 95q0 18 -2 39l-10 111h-282l-51 -85q-59 -97 -59 -159l-1 -4h-91zM443 281l-33 364l-224 -364h257zM356 809l192 119l52 -54l-230 -80z" />
    <glyph glyph-name="Acircumflex" unicode="&#xc2;" horiz-adv-x="635" 
d="M-38 0v2q27 29 97 139l309 500q20 32 20 59q0 9 -2 18l1 2h77l55 -585q11 -99 23 -133l-1 -2h-101v3q18 38 18 95q0 18 -2 39l-10 111h-282l-51 -85q-59 -97 -59 -159l-1 -4h-91zM443 281l-33 364l-224 -364h257zM497 932l134 -134l-16 -13l-135 81l-180 -81l-9 13z" />
    <glyph glyph-name="Atilde" unicode="&#xc3;" horiz-adv-x="635" 
d="M-38 2q27 29 97 139l309 500q20 32 20 59q0 9 -2 18l1 2h77l55 -585q11 -99 23 -133l-1 -2h-101v3q18 38 18 95q0 18 -2 39l-10 111h-282l-51 -85q-59 -97 -59 -159l-1 -4h-91v2zM443 281l-33 364l-224 -364h257zM304 788q14 44 45.5 77.5t73.5 33.5q23 0 58.5 -19.5
t58.5 -19.5q51 0 108 58q-49 -114 -123 -114q-23 0 -61 19t-62 19q-44 0 -98 -54z" />
    <glyph glyph-name="Adieresis" unicode="&#xc4;" horiz-adv-x="635" 
d="M59 141l309 500q20 32 20 59q0 9 -2 18l1 2h77l55 -585q11 -99 23 -133l-1 -2h-101v3q18 38 18 95q0 18 -2 39l-10 111h-282l-51 -85q-59 -97 -59 -159l-1 -4h-91v2q27 29 97 139zM443 281l-33 364l-224 -364h257zM334 856q6 22 24.5 37t38.5 15q21 0 29.5 -12.5
t8.5 -24.5q0 -7 -2 -15q-5 -21 -24 -36t-39 -15t-29 12.5t-9 25.5q0 6 2 13zM518 856q5 22 24 37t39 15t29 -12.5t9 -26.5q0 -6 -2 -13q-6 -21 -24.5 -36t-38.5 -15q-21 0 -29.5 12.5t-8.5 24.5q0 6 2 14z" />
    <glyph glyph-name="Aring" unicode="&#xc5;" horiz-adv-x="635" 
d="M-38 2q27 29 97 139l309 500q20 32 20 59q0 9 -2 18l1 2h77l55 -585q11 -99 23 -133l-1 -2h-101v3q18 38 18 95q0 18 -2 39l-10 111h-282l-51 -85q-59 -97 -59 -159l-1 -4h-91v2zM186 281h257l-33 364zM391 878q10 40 44 67.5t72 27.5q37 0 53 -23t16 -46q0 -12 -3 -26
q-11 -39 -45 -67q-35 -28 -72 -28t-53 23t-16 45q0 13 4 27zM429 834q12 -19 36 -19q22 0 44.5 19t27.5 36t5 26q0 14 -10 29.5t-34 15.5q-23 0 -45 -19t-28 -44q-3 -10 -3 -19q0 -14 7 -25z" />
    <glyph glyph-name="AE" unicode="&#xc6;" horiz-adv-x="950" 
d="M98 128l436 517q34 41 34 66q0 4 -1 7l1 2h466l-31 -116h-3q-37 84 -94 84h-232l-81 -301h174q48 0 114 33h2l-26 -96h-2q-45 33 -97 33h-172l-88 -325h235q57 0 139 84h3l-31 -116h-433l1 3q33 66 50 128l32 117h-251l-81 -97q-77 -89 -77 -146v-1l-1 -4h-123
q73 51 137 128zM502 280l110 410l-342 -410h232z" />
    <glyph glyph-name="Ccedilla" unicode="&#xc7;" horiz-adv-x="619" 
d="M89 391q40 152 153 245.5t248 93.5q96 0 191 -52l-28 -104h-6q-19 53 -61.5 88t-106.5 35q-105 0 -195.5 -88.5t-124.5 -215.5q-20 -76 -20 -141q0 -67 31.5 -148.5t130.5 -81.5q57 0 121 36t111 88h6l-28 -104q-117 -54 -218 -54q-11 0 -17 1l-39 -40h7q37 0 59 -19
t22 -44q0 -10 -3 -21q-15 -58 -85 -60h-6q-49 0 -78 33l7 29q27 -33 58 -33q4 0 24.5 3t28.5 38q2 6 2 11q0 19 -22.5 32t-64.5 13l57 62q-107 22 -141 104.5t-34 150.5q0 66 21 143z" />
    <glyph glyph-name="Egrave" unicode="&#xc8;" horiz-adv-x="527" 
d="M-13 0l1 3q33 66 50 128l122 458q17 61 19 128l1 3h431l-23 -89h-4l-30 21q-9 6 -12.5 8t-12.5 7t-14.5 7t-14 5.5t-16 5t-16 2.5t-17.5 1h-199l-81 -301h141q57 0 145 27h2l-22 -83h-3q-69 26 -131 26h-140l-87 -325h202q57 0 163 57h4l-24 -89h-434zM307 873l66 54
l161 -119l-18 -15z" />
    <glyph glyph-name="Eacute" unicode="&#xc9;" horiz-adv-x="527" 
d="M-13 0l1 3q33 66 50 128l122 458q17 61 19 128l1 3h431l-23 -89h-4l-30 21q-9 6 -12.5 8t-12.5 7t-14.5 7t-14 5.5t-16 5t-16 2.5t-17.5 1h-199l-81 -301h141q57 0 145 27h2l-22 -83h-3q-69 26 -131 26h-140l-87 -325h202q57 0 163 57h4l-24 -89h-434zM306 809l192 119
l52 -54l-230 -80z" />
    <glyph glyph-name="Ecircumflex" unicode="&#xca;" horiz-adv-x="527" 
d="M-13 0l1 3q33 66 50 128l122 458q17 61 19 128l1 3h431l-23 -89h-4l-30 21q-9 6 -12.5 8t-12.5 7t-14.5 7t-14 5.5t-16 5t-16 2.5t-17.5 1h-199l-81 -301h141q57 0 145 27h2l-22 -83h-3q-69 26 -131 26h-140l-87 -325h202q57 0 163 57h4l-24 -89h-434zM240 798l206 134
l134 -134l-16 -13l-135 81l-180 -81z" />
    <glyph glyph-name="Edieresis" unicode="&#xcb;" horiz-adv-x="527" 
d="M-13 0l1 3q33 66 50 128l122 458q17 61 19 128l1 3h431l-23 -89h-4l-30 21q-9 6 -12.5 8t-12.5 7t-14.5 7t-14 5.5t-16 5t-16 2.5t-17.5 1h-199l-81 -301h141q57 0 145 27h2l-22 -83h-3q-69 26 -131 26h-140l-87 -325h202q57 0 163 57h4l-24 -89h-434zM284 856
q6 22 24.5 37t38.5 15q21 0 29.5 -12.5t8.5 -24.5q0 -7 -2 -15q-5 -21 -24 -36t-39 -15t-29 12.5t-9 25.5q0 6 2 13zM468 856q5 22 24 37t39 15t29 -12.5t9 -26.5q0 -6 -2 -13q-6 -21 -24.5 -36t-38.5 -15q-21 0 -29.5 12.5t-8.5 24.5q0 6 2 14z" />
    <glyph glyph-name="Igrave" unicode="&#xcc;" horiz-adv-x="221" 
d="M-3 3q33 61 51 128l122 458q14 50 19 128v3h97l-1 -3q-33 -61 -51 -128l-123 -458q-13 -50 -18 -128v-3h-97zM222 924l158 -117l-18 -15l-206 79z" />
    <glyph glyph-name="Iacute" unicode="&#xcd;" horiz-adv-x="221" 
d="M-3 3q33 61 51 128l122 458q14 50 19 128v3h97l-1 -3q-33 -61 -51 -128l-123 -458q-13 -50 -18 -128v-3h-97zM157 806l186 115l50 -53l-223 -77z" />
    <glyph glyph-name="Icircumflex" unicode="&#xce;" horiz-adv-x="221" 
d="M-4 0l1 3q33 61 51 128l122 458q14 50 19 128v3h97l-1 -3q-33 -61 -51 -128l-123 -458q-13 -50 -18 -128v-3h-97zM94 795l199 130l129 -130l-15 -12l-130 78l-174 -78z" />
    <glyph glyph-name="Idieresis" unicode="&#xcf;" horiz-adv-x="221" 
d="M-4 0l1 3q33 61 51 128l122 458q14 50 19 128v3h97l-1 -3q-33 -61 -51 -128l-123 -458q-13 -50 -18 -128v-3h-97zM134 854q5 21 23.5 36t38.5 15t28.5 -12.5t8.5 -24.5q0 -6 -2 -14q-5 -21 -23 -35q-19 -15 -39 -15t-28.5 12t-8.5 24q0 6 2 14zM314 854q6 21 24 36t38 15
t29 -12.5t9 -25.5q0 -6 -2 -13q-6 -21 -24 -35q-18 -15 -38 -15t-29 12t-9 25q0 6 2 13z" />
    <glyph glyph-name="Eth" unicode="&#xd0;" horiz-adv-x="682" 
d="M42 3q36 77 50 128l57 213h-98l10 34h97l56 211q17 56 19 128l1 3h209q127 0 181.5 -81.5t54.5 -164.5q0 -50 -15 -108q-43 -160 -164.5 -263t-249.5 -103h-209zM128 34h121q114 0 209.5 91.5t133.5 240.5q17 65 17 118q0 66 -36 134t-149 68h-122l-82 -308h188l-9 -34
h-188z" />
    <glyph glyph-name="Ntilde" unicode="&#xd1;" horiz-adv-x="651" 
d="M-11 4q56 103 74 170l102 380q16 64 16 144v18l1 4h67l242 -629l121 455q17 64 17 135q0 18 -1 35l1 4h95l-2 -4q-55 -98 -74 -170l-146 -546h-44l-238 626l-121 -452q-17 -64 -17 -135q0 -18 1 -35l-1 -4h-94zM308 788q14 44 45.5 77.5t73.5 33.5q23 0 58.5 -19.5
t58.5 -19.5q51 0 108 58q-49 -114 -123 -114q-23 0 -61 19t-62 19q-44 0 -98 -54z" />
    <glyph glyph-name="Ograve" unicode="&#xd2;" horiz-adv-x="680" 
d="M84 370q38 163 146 261.5t226 98.5h5q120 -2 167 -84.5t47 -167.5q0 -55 -15 -119q-39 -164 -149 -266q-109 -100 -226 -100q-3 0 -64 1t-107 85t-46 167q0 57 16 124zM154 124q36 -94 134 -95h4q96 0 178 90t118 241q17 74 17 134q0 61 -27 130.5t-125 70.5h-4
q-97 0 -178.5 -89t-115.5 -238q-19 -77 -19 -138q0 -60 18 -106zM384 873l66 54l161 -119l-18 -15z" />
    <glyph glyph-name="Oacute" unicode="&#xd3;" horiz-adv-x="680" 
d="M84 370q38 163 146 261.5t226 98.5h5q120 -2 167 -84.5t47 -167.5q0 -55 -15 -119q-39 -164 -149 -266q-109 -100 -226 -100q-3 0 -64 1t-107 85t-46 167q0 57 16 124zM154 124q36 -94 134 -95h4q96 0 178 90t118 241q17 74 17 134q0 61 -27 130.5t-125 70.5h-4
q-97 0 -178.5 -89t-115.5 -238q-19 -77 -19 -138q0 -60 18 -106zM576 928l52 -54l-230 -80l-14 15z" />
    <glyph glyph-name="Ocircumflex" unicode="&#xd4;" horiz-adv-x="680" 
d="M84 370q38 163 146 261.5t226 98.5h5q120 -2 167 -84.5t47 -167.5q0 -55 -15 -119q-39 -164 -149 -266q-109 -100 -226 -100q-3 0 -64 1t-107 85t-46 167q0 57 16 124zM154 124q36 -94 134 -95h4q96 0 178 90t118 241q17 74 17 134q0 61 -27 130.5t-125 70.5h-4
q-97 0 -178.5 -89t-115.5 -238q-19 -77 -19 -138q0 -60 18 -106zM524 932l134 -134l-16 -13l-135 81l-180 -81l-9 13z" />
    <glyph glyph-name="Otilde" unicode="&#xd5;" horiz-adv-x="680" 
d="M84 370q38 163 146 261.5t226 98.5h5q120 -2 167 -84.5t47 -167.5q0 -55 -15 -119q-39 -164 -149 -266q-109 -100 -226 -100q-3 0 -64 1t-107 85t-46 167q0 57 16 124zM154 124q36 -94 134 -95h4q96 0 178 90t118 241q17 74 17 134q0 61 -27 130.5t-125 70.5h-4
q-97 0 -178.5 -89t-115.5 -238q-19 -77 -19 -138q0 -60 18 -106zM332 788q14 44 45.5 77.5t73.5 33.5q23 0 58.5 -19.5t58.5 -19.5q51 0 108 58q-49 -114 -123 -114q-23 0 -61 19t-62 19q-44 0 -98 -54z" />
    <glyph glyph-name="Odieresis" unicode="&#xd6;" horiz-adv-x="680" 
d="M84 370q38 163 146 261.5t226 98.5h5q120 -2 167 -84.5t47 -167.5q0 -55 -15 -119q-39 -164 -149 -266q-109 -100 -226 -100q-3 0 -64 1t-107 85t-46 167q0 57 16 124zM154 124q36 -94 134 -95h4q96 0 178 90t118 241q17 74 17 134q0 61 -27 130.5t-125 70.5h-4
q-97 0 -178.5 -89t-115.5 -238q-19 -77 -19 -138q0 -60 18 -106zM361 856q6 22 24.5 37t38.5 15q21 0 29.5 -12.5t8.5 -24.5q0 -7 -2 -15q-5 -21 -24 -36t-39 -15t-29 12.5t-9 25.5q0 6 2 13zM545 856q5 22 24 37t39 15t29 -12.5t9 -26.5q0 -6 -2 -13q-6 -21 -24.5 -36
t-38.5 -15q-21 0 -29.5 12.5t-8.5 24.5q0 6 2 14z" />
    <glyph glyph-name="multiply" unicode="&#xd7;" horiz-adv-x="585" 
d="M92 208l120 77q42 27 52 35t11 14v2q0 6 -7.5 14.5t-43.5 40.5l-103 92l30 19l101 -92q53 -48 65 -48h2q8 0 18.5 6t53.5 34l120 77l26 -24l-119 -77q-43 -28 -53 -36t-10.5 -11.5l-0.5 -3.5q0 -6 7.5 -14t44.5 -41l103 -93l-29 -19l-103 93q-53 48 -65 48h-2
q-7 0 -17 -5.5t-55 -34.5l-120 -77z" />
    <glyph glyph-name="Oslash" unicode="&#xd8;" horiz-adv-x="768" 
d="M64 367q4 155 101 259t228 104q99 0 178 -62l67 102h36l-79 -122q53 -51 81 -121.5t28 -147.5v-16q-2 -81 -30 -152t-73 -119.5t-104 -76t-123 -27.5q-96 0 -172 59l-63 -97h-36l76 116q-56 52 -85.5 126.5t-29.5 158.5v16zM210 111l334 517q-64 69 -152 69
q-109 0 -181 -96.5t-74 -236.5v-4q0 -154 73 -249zM375 22q110 0 182 97t74 246v4q0 141 -69 233l-332 -516q61 -64 145 -64z" />
    <glyph glyph-name="Ugrave" unicode="&#xd9;" horiz-adv-x="626" 
d="M77 281l83 308q17 61 19 128l1 3h95l-1 -3q-36 -77 -49 -128l-78 -291q-17 -72 -17 -123q0 -48 23 -95t105 -47q36 0 71 12t73 39t70.5 80.5t52.5 126.5l68 255q19 75 19 155v15l1 4h88l-1 -4q-51 -91 -72 -170l-71 -264q-40 -149 -126.5 -221.5t-186.5 -72.5
q-101 0 -141.5 60t-40.5 126q0 48 15 107zM420 927l161 -119l-18 -15l-209 80z" />
    <glyph glyph-name="Uacute" unicode="&#xda;" horiz-adv-x="626" 
d="M77 281l83 308q17 61 19 128l1 3h95l-1 -3q-36 -77 -49 -128l-78 -291q-17 -72 -17 -123q0 -48 23 -95t105 -47q36 0 71 12t73 39t70.5 80.5t52.5 126.5l68 255q19 75 19 155v15l1 4h88l-1 -4q-51 -91 -72 -170l-71 -264q-40 -149 -126.5 -221.5t-186.5 -72.5
q-101 0 -141.5 60t-40.5 126q0 48 15 107zM545 928l52 -54l-230 -80l-14 15z" />
    <glyph glyph-name="Ucircumflex" unicode="&#xdb;" horiz-adv-x="626" 
d="M77 281l83 308q17 61 19 128l1 3h95l-1 -3q-36 -77 -49 -128l-78 -291q-17 -72 -17 -123q0 -48 23 -95t105 -47q36 0 71 12t73 39t70.5 80.5t52.5 126.5l68 255q19 75 19 155v15l1 4h88l-1 -4q-51 -91 -72 -170l-71 -264q-40 -149 -126.5 -221.5t-186.5 -72.5
q-101 0 -141.5 60t-40.5 126q0 48 15 107zM287 798l206 134l134 -134l-16 -13l-135 81l-180 -81z" />
    <glyph glyph-name="Udieresis" unicode="&#xdc;" horiz-adv-x="626" 
d="M77 281l83 308q17 61 19 128l1 3h95l-1 -3q-36 -77 -49 -128l-78 -291q-17 -72 -17 -123q0 -48 23 -95t105 -47q36 0 71 12t73 39t70.5 80.5t52.5 126.5l68 255q19 75 19 155v15l1 4h88l-1 -4q-51 -91 -72 -170l-71 -264q-40 -149 -126.5 -221.5t-186.5 -72.5
q-101 0 -141.5 60t-40.5 126q0 48 15 107zM330 856q6 22 24.5 37t38.5 15q21 0 29.5 -12.5t8.5 -24.5q0 -7 -2 -15q-5 -21 -24 -36t-39 -15t-29 12.5t-9 25.5q0 6 2 13zM514 856q5 22 24 37t39 15t29 -12.5t9 -26.5q0 -6 -2 -13q-6 -21 -24.5 -36t-38.5 -15
q-21 0 -29.5 12.5t-8.5 24.5q0 6 2 14z" />
    <glyph glyph-name="Yacute" unicode="&#xdd;" horiz-adv-x="595" 
d="M150 720h112l-1 -3q-11 -25 -11 -61q0 -30 8 -68l60 -287l210 266q74 97 74 149l1 4h96l-1 -3q-5 -5 -27.5 -29t-39 -43.5t-32.5 -40.5l-269 -344l-35 -129q-16 -57 -18 -128l-1 -3h-98v3q35 70 51 128l34 129l-75 344q-10 46 -39 113zM534 928l52 -54l-230 -80l-14 15z
" />
    <glyph glyph-name="Thorn" unicode="&#xde;" horiz-adv-x="491" 
d="M-4 0l1 3q33 61 51 128l122 458q14 50 19 128v3h97l-1 -3q-33 -61 -51 -128l-6 -24q66 54 139 54q83 0 110 -50.5t27 -99.5q0 -41 -14 -93q-33 -123 -112.5 -192t-164.5 -69q-60 0 -96 39l-6 -23q-13 -50 -18 -128v-3h-97zM212 150q68 0 125.5 59.5t84.5 159.5
q14 49 14 89q0 33 -15 77.5t-81 44.5q-60 0 -123 -55l-90 -336q32 -39 85 -39z" />
    <glyph glyph-name="germandbls" unicode="&#xdf;" horiz-adv-x="529" 
d="M-23 3q35 71 50 128l109 406q30 110 100 156.5t156 46.5q84 0 119.5 -37t35.5 -77q0 -15 -4 -32q-9 -36 -34.5 -63.5t-56.5 -43t-61 -28t-52.5 -27.5t-27.5 -33q-1 -5 -1 -10q0 -15 14 -31.5t40.5 -34t53 -38t39.5 -48.5t13 -55q0 -12 -2 -25q-11 -66 -66.5 -114.5
t-95.5 -51t-46 -2.5q-70 0 -143 54l8 21q62 -39 118 -39q4 0 36.5 2t75 38t49.5 86q1 9 1 17q0 27 -14 53t-39 45t-49.5 36.5t-36 36t-11.5 35.5q0 8 2 17q8 31 41.5 55.5t69.5 38.5t70.5 42.5t44.5 66.5q4 14 4 27q0 28 -21.5 58t-82.5 30q-63 0 -113 -43.5t-74 -131.5
l-144 -534h-75v3z" />
    <glyph glyph-name="agrave" unicode="&#xe0;" horiz-adv-x="519" 
d="M38 250q44 125 116 186.5t138 61.5q37 0 60.5 -19t29.5 -52q40 35 58 65h16l-115 -423q-2 -7 -2 -12q0 -11 10 -11h2q28 5 79 69q24 32 46 69l6 -8q-35 -79 -79.5 -130.5t-82.5 -51.5q-40 0 -40 44q0 17 6 41l21 77q-41 -75 -94 -119t-102 -44q-63 0 -80 45t-17 79
q0 55 24 133zM80 100q12 -61 61 -61q50 0 106.5 67.5t90.5 166.5l27 101q0 6 1 12q-1 29 -14.5 54t-49.5 26h-4q-51 0 -106 -54.5t-90 -154.5q-25 -72 -25 -123q0 -18 3 -34zM229 645l66 54l161 -119l-18 -15z" />
    <glyph glyph-name="aacute" unicode="&#xe1;" horiz-adv-x="519" 
d="M38 250q44 125 116 186.5t138 61.5q37 0 60.5 -19t29.5 -52q40 35 58 65h16l-115 -423q-2 -7 -2 -12q0 -11 10 -11h2q28 5 79 69q24 32 46 69l6 -8q-35 -79 -79.5 -130.5t-82.5 -51.5q-40 0 -40 44q0 17 6 41l21 77q-41 -75 -94 -119t-102 -44q-63 0 -80 45t-17 79
q0 55 24 133zM80 100q12 -61 61 -61q50 0 106.5 67.5t90.5 166.5l27 101q0 6 1 12q-1 29 -14.5 54t-49.5 26h-4q-51 0 -106 -54.5t-90 -154.5q-25 -72 -25 -123q0 -18 3 -34zM420 700l52 -54l-230 -80l-14 15z" />
    <glyph glyph-name="acircumflex" unicode="&#xe2;" horiz-adv-x="519" 
d="M38 250q44 125 116 186.5t138 61.5q37 0 60.5 -19t29.5 -52q40 35 58 65h16l-115 -423q-2 -7 -2 -12q0 -11 10 -11h2q28 5 79 69q24 32 46 69l6 -8q-35 -79 -79.5 -130.5t-82.5 -51.5q-40 0 -40 44q0 17 6 41l21 77q-41 -75 -94 -119t-102 -44q-63 0 -80 45t-17 79
q0 55 24 133zM80 100q12 -61 61 -61q50 0 106.5 67.5t90.5 166.5l27 101q0 6 1 12q-1 29 -14.5 54t-49.5 26h-4q-51 0 -106 -54.5t-90 -154.5q-25 -72 -25 -123q0 -18 3 -34zM168 566l197 129l128 -129l-15 -12l-129 78l-172 -78z" />
    <glyph glyph-name="atilde" unicode="&#xe3;" horiz-adv-x="519" 
d="M38 250q44 125 116 186.5t138 61.5q37 0 60.5 -19t29.5 -52q40 35 58 65h16l-115 -423q-2 -7 -2 -12q0 -11 10 -11h2q28 5 79 69q24 32 46 69l6 -8q-35 -79 -79.5 -130.5t-82.5 -51.5q-40 0 -40 44q0 17 6 41l21 77q-41 -75 -94 -119t-102 -44q-63 0 -80 45t-17 79
q0 55 24 133zM80 100q12 -61 61 -61q50 0 106.5 67.5t90.5 166.5l27 101q0 6 1 12q-1 29 -14.5 54t-49.5 26h-4q-51 0 -106 -54.5t-90 -154.5q-25 -72 -25 -123q0 -18 3 -34zM222 638q31 33 73 33q23 0 58.5 -19.5t58.5 -19.5q51 0 108 58q-49 -114 -123 -114q-23 0 -61 19
t-62 19q-44 0 -98 -54q14 44 46 78z" />
    <glyph glyph-name="adieresis" unicode="&#xe4;" horiz-adv-x="519" 
d="M38 250q44 125 116 186.5t138 61.5q37 0 60.5 -19t29.5 -52q40 35 58 65h16l-115 -423q-2 -7 -2 -12q0 -11 10 -11h2q28 5 79 69q24 32 46 69l6 -8q-35 -79 -79.5 -130.5t-82.5 -51.5q-40 0 -40 44q0 17 6 41l21 77q-41 -75 -94 -119t-102 -44q-63 0 -80 45t-17 79
q0 55 24 133zM80 100q12 -61 61 -61q50 0 106.5 67.5t90.5 166.5l27 101q0 6 1 12q-1 29 -14.5 54t-49.5 26h-4q-51 0 -106 -54.5t-90 -154.5q-25 -72 -25 -123q0 -18 3 -34zM389 628q5 22 24 37t39 15t29 -12.5t9 -26.5q0 -6 -2 -13q-6 -21 -24.5 -36t-38.5 -15
q-21 0 -29.5 12.5t-8.5 24.5q0 6 2 14zM205 628q6 22 24.5 37t38.5 15q21 0 29.5 -12.5t8.5 -24.5q0 -7 -2 -15q-5 -21 -24 -36t-39 -15t-29 12.5t-9 25.5q0 6 2 13z" />
    <glyph glyph-name="aring" unicode="&#xe5;" horiz-adv-x="519" 
d="M38 250q44 125 116 186.5t138 61.5q37 0 60.5 -19t29.5 -52q40 35 58 65h16l-115 -423q-2 -7 -2 -12q0 -11 10 -11h2q28 5 79 69q24 32 46 69l6 -8q-35 -79 -79.5 -130.5t-82.5 -51.5q-40 0 -40 44q0 17 6 41l21 77q-41 -75 -94 -119t-102 -44q-63 0 -80 45t-17 79
q0 55 24 133zM80 100q12 -61 61 -61q50 0 106.5 67.5t90.5 166.5l27 101q0 6 1 12q-1 29 -14.5 54t-49.5 26h-4q-51 0 -106 -54.5t-90 -154.5q-25 -72 -25 -123q0 -18 3 -34zM262 650q10 40 44 67.5t72 27.5q37 0 53 -23t16 -46q0 -12 -3 -26q-11 -39 -45 -67
q-35 -28 -72 -28t-53 23t-16 45q0 13 4 27zM300 606q12 -19 36 -19q22 0 44.5 19t27.5 36t5 26q0 14 -10 29.5t-34 15.5q-23 0 -45 -19t-28 -44q-3 -10 -3 -19q0 -14 7 -25z" />
    <glyph glyph-name="ae" unicode="&#xe6;" horiz-adv-x="772" 
d="M6 136q30 114 191 148q56 12 121 12q15 0 29 -1l15 55q6 23 6 42q0 28 -17.5 52.5t-64.5 24.5q-84 0 -193 -103l24 89q100 43 179 43q57 0 92 -23.5t36 -68.5q86 92 186 92q83 0 112.5 -49.5t29.5 -98.5q0 -38 -13 -84h-333q-14 -54 -14 -95q0 -43 22 -87.5t100 -44.5
q89 0 194 90q-45 -64 -105.5 -100.5t-122.5 -36.5q-59 0 -98 32t-52 87q-32 -46 -87.5 -81t-120.5 -35q-71 0 -96.5 33.5t-25.5 67.5q0 19 6 40zM82 61q24 -30 70 -30t88 31t67 82l32 123q-76 0 -129 -14q-117 -27 -141 -115q-4 -16 -4 -29q0 -28 17 -48zM686 297q7 35 7 64
q0 37 -17 72.5t-73 35.5q-60 0 -109 -48.5t-78 -127.5z" />
    <glyph glyph-name="ccedilla" unicode="&#xe7;" horiz-adv-x="443" 
d="M36 250q30 111 102 179.5t155 68.5q64 0 124 -45l-27 -87h-4q-13 44 -38.5 73.5t-62.5 29.5h-2q-57 -1 -109.5 -65.5t-74.5 -146.5q-14 -47 -14 -86q0 -38 19.5 -85t87.5 -47q115 0 197 161l7 -11q-37 -86 -89 -134t-108 -59l-46 -47h7q37 0 59 -19t22 -44q0 -10 -3 -21
q-15 -58 -85 -60h-6q-49 0 -78 33l7 29q27 -33 58 -33q4 0 24.5 3t28.5 38q2 6 2 11q0 19 -22.5 32t-64.5 13l58 62q-77 5 -107 60.5t-30 107.5q0 41 13 89z" />
    <glyph glyph-name="egrave" unicode="&#xe8;" horiz-adv-x="454" 
d="M40 262q31 104 103 170t158 66q59 0 93 -26.5t34 -63.5q0 -9 -2 -18q-13 -67 -91.5 -108t-179.5 -41q-29 0 -60 3q-10 -41 -10 -75q0 -42 21 -86t86 -44q50 0 105.5 36.5t102.5 124.5l7 -11q-42 -98 -108.5 -147t-130.5 -49q-81 0 -113 57t-32 110q0 46 17 102zM101 265
h14q112 0 172.5 32t73.5 85q3 13 3 25q0 22 -15.5 42.5t-52.5 20.5q-62 0 -115.5 -61.5t-77.5 -137.5q-1 -1 -1 -3t-1 -3zM207 645l66 54l161 -119l-18 -15z" />
    <glyph glyph-name="eacute" unicode="&#xe9;" horiz-adv-x="454" 
d="M40 262q31 104 103 170t158 66q59 0 93 -26.5t34 -63.5q0 -9 -2 -18q-13 -67 -91.5 -108t-179.5 -41q-29 0 -60 3q-10 -41 -10 -75q0 -42 21 -86t86 -44q50 0 105.5 36.5t102.5 124.5l7 -11q-42 -98 -108.5 -147t-130.5 -49q-81 0 -113 57t-32 110q0 46 17 102zM101 265
h14q112 0 172.5 32t73.5 85q3 13 3 25q0 22 -15.5 42.5t-52.5 20.5q-62 0 -115.5 -61.5t-77.5 -137.5q-1 -1 -1 -3t-1 -3zM398 700l52 -54l-230 -80l-14 15z" />
    <glyph glyph-name="ecircumflex" unicode="&#xea;" horiz-adv-x="454" 
d="M40 262q31 104 103 170t158 66q59 0 93 -26.5t34 -63.5q0 -9 -2 -18q-13 -67 -91.5 -108t-179.5 -41q-29 0 -60 3q-10 -41 -10 -75q0 -42 21 -86t86 -44q50 0 105.5 36.5t102.5 124.5l7 -11q-42 -98 -108.5 -147t-130.5 -49q-81 0 -113 57t-32 110q0 46 17 102zM101 265
h14q112 0 172.5 32t73.5 85q3 13 3 25q0 22 -15.5 42.5t-52.5 20.5q-62 0 -115.5 -61.5t-77.5 -137.5q-1 -1 -1 -3t-1 -3zM344 695l128 -129l-15 -12l-129 78l-172 -78l-9 12z" />
    <glyph glyph-name="edieresis" unicode="&#xeb;" horiz-adv-x="454" 
d="M40 262q31 104 103 170t158 66q59 0 93 -26.5t34 -63.5q0 -9 -2 -18q-13 -67 -91.5 -108t-179.5 -41q-29 0 -60 3q-10 -41 -10 -75q0 -42 21 -86t86 -44q50 0 105.5 36.5t102.5 124.5l7 -11q-42 -98 -108.5 -147t-130.5 -49q-81 0 -113 57t-32 110q0 46 17 102zM286 296
q62 33 75 86q3 13 3 25q0 22 -15.5 42.5t-52.5 20.5q-62 0 -115.5 -61.5t-77.5 -137.5q-1 -1 -1 -3t-1 -3h14q112 0 171 31zM368 628q5 22 24 37t39 15t29 -12.5t9 -26.5q0 -6 -2 -13q-6 -21 -24.5 -36t-38.5 -15q-21 0 -29.5 12.5t-8.5 24.5q0 6 2 14zM184 628
q6 22 24.5 37t38.5 15q21 0 29.5 -12.5t8.5 -24.5q0 -7 -2 -15q-5 -21 -24 -36t-39 -15t-29 12.5t-9 25.5q0 6 2 13z" />
    <glyph glyph-name="igrave" unicode="&#xec;" horiz-adv-x="247" 
d="M17 88l73 275q14 53 14 111v15l1 3h79l-107 -396q-5 -19 -5 -31q0 -15 10 -15h3q29 5 83 81q20 29 38 60l6 -9q-34 -79 -78 -130.5t-81 -51.5q-24 0 -33.5 15t-9.5 31q0 18 7 42zM134 690l154 -114l-18 -14l-200 76z" />
    <glyph glyph-name="iacute" unicode="&#xed;" horiz-adv-x="247" 
d="M17 88l73 275q14 53 14 111v15l1 3h79l-107 -396q-5 -19 -5 -31q0 -15 10 -15h3q29 5 83 81q20 29 38 60l6 -9q-34 -79 -78 -130.5t-81 -51.5q-24 0 -33.5 15t-9.5 31q0 18 7 42zM254 691l49 -52l-220 -76l-14 14z" />
    <glyph glyph-name="icircumflex" unicode="&#xee;" horiz-adv-x="247" 
d="M17 88l73 275q14 53 14 111v15l1 3h79l-107 -396q-5 -19 -5 -31q0 -15 10 -15h3q29 5 83 81q20 29 38 60l6 -9q-34 -79 -78 -130.5t-81 -51.5q-24 0 -33.5 15t-9.5 31q0 18 7 42zM201 686l122 -123l-14 -12l-123 75l-165 -75l-8 12z" />
    <glyph glyph-name="idieresis" unicode="&#xef;" horiz-adv-x="247" 
d="M17 88l73 275q14 53 14 111v15l1 3h79l-107 -396q-5 -19 -5 -31q0 -15 10 -15h3q29 5 83 81q20 29 38 60l6 -9q-34 -79 -78 -130.5t-81 -51.5q-24 0 -33.5 15t-9.5 31q0 18 7 42zM48 622q6 21 23.5 35.5t37.5 14.5t28 -12t8 -23q0 -7 -2 -15q-5 -20 -22 -34
q-18 -15 -38 -15t-28.5 12t-8.5 24q0 6 2 13zM224 622q5 21 23 35.5t38 14.5t28 -12t8 -24q0 -7 -2 -14q-5 -20 -23 -34.5t-38 -14.5q-19 0 -27.5 12t-8.5 24q0 6 2 13z" />
    <glyph glyph-name="eth" unicode="&#xf0;" horiz-adv-x="498" 
d="M166 -12q-90 0 -127.5 66t-10.5 166q26 95 91 162t140 67q56 0 98 -38.5t49 -96.5q20 89 11.5 166.5t-39.5 126.5l-158 -100l7 35l137 87q-56 74 -151 101q119 0 190 -76l126 80l-6 -35l-103 -64q44 -57 55 -153t-15 -193q-28 -105 -78 -175t-103.5 -98t-112.5 -28z
M175 19q62 0 122 63t98 193q-15 68 -51.5 104t-82.5 36q-60 0 -105.5 -56t-68.5 -140q-12 -52 -11 -96.5t26.5 -74t72.5 -29.5z" />
    <glyph glyph-name="ntilde" unicode="&#xf1;" 
d="M90 359q17 61 17 104q0 14 -2 26v3h78l-50 -186q102 192 225 192q56 0 78 -32t22 -69q0 -30 -10 -70l-70 -261q-1 -6 -1 -9q0 -10 8 -10h2q27 3 77 65q27 32 50 72l5 -8q-34 -79 -78 -130.5t-81 -51.5q-24 0 -33.5 14t-9.5 30q0 17 6 41l65 241q9 34 9 60q0 24 -13 48.5
t-51 24.5q-47 0 -96.5 -48.5t-85.5 -114.5t-59 -138l-41 -152h-59zM167 560q14 44 45.5 77.5t73.5 33.5q23 0 58.5 -19.5t58.5 -19.5q51 0 108 58q-49 -114 -123 -114q-23 0 -61 19t-62 19q-44 0 -98 -54z" />
    <glyph glyph-name="ograve" unicode="&#xf2;" horiz-adv-x="468" 
d="M37 251q29 112 101.5 179.5t153.5 67.5h5q85 -2 116 -58t31 -110q0 -40 -12 -87q-30 -115 -103 -185t-154 -70h-5q-85 2 -116 59.5t-31 111.5q0 42 14 92zM96 85q21 -68 83 -69h2q58 0 108 63.5t76 164.5q14 51 14 95q0 35 -15 82.5t-45.5 48t-31.5 0.5q-59 0 -109 -61.5
t-76 -158.5q-15 -55 -15 -100q0 -35 9 -65zM282 699l161 -119l-18 -15l-209 80z" />
    <glyph glyph-name="oacute" unicode="&#xf3;" horiz-adv-x="468" 
d="M37 251q29 112 101.5 179.5t153.5 67.5h5q85 -2 116 -58t31 -110q0 -40 -12 -87q-30 -115 -103 -185t-154 -70h-5q-85 2 -116 59.5t-31 111.5q0 42 14 92zM96 85q21 -68 83 -69h2q58 0 108 63.5t76 164.5q14 51 14 95q0 35 -15 82.5t-45.5 48t-31.5 0.5q-59 0 -109 -61.5
t-76 -158.5q-15 -55 -15 -100q0 -35 9 -65zM215 581l192 119l52 -54l-230 -80z" />
    <glyph glyph-name="ocircumflex" unicode="&#xf4;" horiz-adv-x="468" 
d="M37 251q29 112 101.5 179.5t153.5 67.5h5q85 -2 116 -58t31 -110q0 -40 -12 -87q-30 -115 -103 -185t-154 -70h-5q-85 2 -116 59.5t-31 111.5q0 42 14 92zM96 85q21 -68 83 -69h2q58 0 108 63.5t76 164.5q14 51 14 95q0 35 -15 82.5t-45.5 48t-31.5 0.5q-59 0 -109 -61.5
t-76 -158.5q-15 -55 -15 -100q0 -35 9 -65zM355 704l134 -134l-16 -13l-135 81l-180 -81l-9 13z" />
    <glyph glyph-name="otilde" unicode="&#xf5;" horiz-adv-x="468" 
d="M37 251q29 112 101.5 179.5t153.5 67.5h5q85 -2 116 -58t31 -110q0 -40 -12 -87q-30 -115 -103 -185t-154 -70h-5q-85 2 -116 59.5t-31 111.5q0 42 14 92zM96 85q21 -68 83 -69h2q58 0 108 63.5t76 164.5q14 51 14 95q0 35 -15 82.5t-45.5 48t-31.5 0.5q-59 0 -109 -61.5
t-76 -158.5q-15 -55 -15 -100q0 -35 9 -65zM209 638q31 33 73 33q23 0 58.5 -19.5t58.5 -19.5q51 0 108 58q-49 -114 -123 -114q-23 0 -61 19t-62 19q-44 0 -98 -54q14 44 46 78z" />
    <glyph glyph-name="odieresis" unicode="&#xf6;" horiz-adv-x="468" 
d="M37 251q29 112 101.5 179.5t153.5 67.5h5q85 -2 116 -58t31 -110q0 -40 -12 -87q-30 -115 -103 -185t-154 -70h-5q-85 2 -116 59.5t-31 111.5q0 42 14 92zM96 85q21 -68 83 -69h2q58 0 108 63.5t76 164.5q14 51 14 95q0 35 -15 82.5t-45.5 48t-31.5 0.5q-59 0 -109 -61.5
t-76 -158.5q-15 -55 -15 -100q0 -35 9 -65zM192 628q6 22 24.5 37t38.5 15q21 0 29.5 -12.5t8.5 -24.5q0 -7 -2 -15q-5 -21 -24 -36t-39 -15t-29 12.5t-9 25.5q0 6 2 13zM376 628q5 22 24 37t39 15t29 -12.5t9 -26.5q0 -6 -2 -13q-6 -21 -24.5 -36t-38.5 -15
q-21 0 -29.5 12.5t-8.5 24.5q0 6 2 14z" />
    <glyph glyph-name="divide" unicode="&#xf7;" horiz-adv-x="564" 
d="M334 441q-16 0 -25 13t-4 30t20.5 30t31.5 13t24.5 -13t3.5 -30t-20 -30t-31 -13zM86 314l9 34h429l-9 -34h-429zM252 135q-16 0 -24.5 13t-3.5 30t20 30t31 13t25 -13t4 -30t-20.5 -30t-31.5 -13z" />
    <glyph glyph-name="oslash" unicode="&#xf8;" horiz-adv-x="497" 
d="M-32 -48l101 113q-21 42 -21 95q0 42 13 91q29 112 101.5 179.5t154.5 67.5h5q61 -2 99 -40l74 82h35l-92 -103q30 -44 30 -107q0 -40 -12 -87q-30 -116 -103 -185.5t-154 -69.5h-5q-71 2 -110 54l-81 -90h-35zM203 16h2q58 0 108 63t77 165q14 51 14 93q0 30 -7 55
l-276 -308q21 -67 82 -68zM114 115l274 305q-23 49 -74 50h-2q-59 0 -109.5 -61.5t-76.5 -158.5q-14 -54 -14 -100q0 -18 2 -35z" />
    <glyph glyph-name="ugrave" unicode="&#xf9;" 
d="M38 165l53 194q16 61 16 102q0 15 -2 28v3h81l-88 -320q-9 -34 -9 -60q0 -24 13 -48.5t51 -24.5q68 0 136 94.5t106 210.5l40 148h59l-117 -426q-1 -6 -1 -9q0 -10 8 -10h2q27 4 77 65q27 32 50 72l6 -8q-35 -79 -79 -130.5t-81 -51.5q-23 0 -32.5 14t-9.5 30q0 17 6 41
l28 104q-101 -189 -223 -189q-56 0 -78 32t-22 69q0 30 10 70zM223 645l66 54l161 -119l-18 -15z" />
    <glyph glyph-name="uacute" unicode="&#xfa;" 
d="M38 165l53 194q16 61 16 102q0 15 -2 28v3h81l-88 -320q-9 -34 -9 -60q0 -24 13 -48.5t51 -24.5q68 0 136 94.5t106 210.5l40 148h59l-117 -426q-1 -6 -1 -9q0 -10 8 -10h2q27 4 77 65q27 32 50 72l6 -8q-35 -79 -79 -130.5t-81 -51.5q-23 0 -32.5 14t-9.5 30q0 17 6 41
l28 104q-101 -189 -223 -189q-56 0 -78 32t-22 69q0 30 10 70zM222 581l192 119l52 -54l-230 -80z" />
    <glyph glyph-name="ucircumflex" unicode="&#xfb;" 
d="M38 165l53 194q16 61 16 102q0 15 -2 28v3h81l-88 -320q-9 -34 -9 -60q0 -24 13 -48.5t51 -24.5q68 0 136 94.5t106 210.5l40 148h59l-117 -426q-1 -6 -1 -9q0 -10 8 -10h2q27 4 77 65q27 32 50 72l6 -8q-35 -79 -79 -130.5t-81 -51.5q-23 0 -32.5 14t-9.5 30q0 17 6 41
l28 104q-101 -189 -223 -189q-56 0 -78 32t-22 69q0 30 10 70zM359 695l128 -129l-15 -12l-129 78l-172 -78l-9 12z" />
    <glyph glyph-name="udieresis" unicode="&#xfc;" 
d="M38 165l53 194q16 61 16 102q0 15 -2 28v3h81l-88 -320q-9 -34 -9 -60q0 -24 13 -48.5t51 -24.5q68 0 136 94.5t106 210.5l40 148h59l-117 -426q-1 -6 -1 -9q0 -10 8 -10h2q27 4 77 65q27 32 50 72l6 -8q-35 -79 -79 -130.5t-81 -51.5q-23 0 -32.5 14t-9.5 30q0 17 6 41
l28 104q-101 -189 -223 -189q-56 0 -78 32t-22 69q0 30 10 70zM199 628q6 22 24.5 37t38.5 15q21 0 29.5 -12.5t8.5 -24.5q0 -7 -2 -15q-5 -21 -24 -36t-39 -15t-29 12.5t-9 25.5q0 6 2 13zM383 628q5 22 24 37t39 15t29 -12.5t9 -26.5q0 -6 -2 -13q-6 -21 -24.5 -36
t-38.5 -15q-21 0 -29.5 12.5t-8.5 24.5q0 6 2 14z" />
    <glyph glyph-name="yacute" unicode="&#xfd;" horiz-adv-x="497" 
d="M-84 -147l42 68h4q29 -74 103 -74h4q54 0 115 45q9 177 9 311q0 87 -4 155q-5 96 -44 96q-6 0 -12 -2t-12 -6t-11 -8.5t-12 -12.5t-11.5 -14t-12.5 -17t-12.5 -18t-13 -20.5t-13.5 -20.5l-5 9q16 33 28 54t30.5 47.5t39 39.5t43.5 13q67 0 73 -112q4 -64 4 -154
q0 -121 -7 -289q72 77 122.5 187.5t57.5 211.5q1 18 1 35q0 51 -11 96l86 25q-3 -142 -64.5 -299.5t-167 -272.5t-218.5 -119q-8 -1 -16 -1q-69 0 -115 47zM395 700l52 -54l-230 -80l-14 15z" />
    <glyph glyph-name="thorn" unicode="&#xfe;" horiz-adv-x="466" 
d="M-80 -197q33 66 50 128l168 628q17 61 19 128l1 3h92l-1 -3q-36 -77 -49 -128l-33 -121q69 60 146 60q82 0 108 -50t26 -98q0 -42 -14 -95q-33 -123 -111.5 -192t-162.5 -69q-63 0 -99 45l-29 -108q-17 -61 -19 -128l-1 -3h-92zM158 29q68 0 125 59.5t84 159.5
q14 48 14 88q0 33 -15 78.5t-80 45.5q-63 0 -129 -61l-88 -326q32 -44 89 -44z" />
    <glyph glyph-name="ydieresis" unicode="&#xff;" horiz-adv-x="497" 
d="M-42 -79h4q29 -74 103 -74h4q54 0 115 45q9 177 9 311q0 87 -4 155q-5 96 -44 96q-6 0 -12 -2t-12 -6t-11 -8.5t-12 -12.5t-11.5 -14t-12.5 -17t-12.5 -18t-13 -20.5t-13.5 -20.5l-5 9q16 33 28 54t30.5 47.5t39 39.5t43.5 13q67 0 73 -112q4 -64 4 -154q0 -121 -7 -289
q72 77 122.5 187.5t57.5 211.5q1 18 1 35q0 51 -11 96l86 25q-3 -142 -64.5 -299.5t-167 -272.5t-218.5 -119q-8 -1 -16 -1q-69 0 -115 47zM180 628q6 22 24.5 37t38.5 15q21 0 29.5 -12.5t8.5 -24.5q0 -7 -2 -15q-5 -21 -24 -36t-39 -15t-29 12.5t-9 25.5q0 6 2 13z
M364 628q5 22 24 37t39 15t29 -12.5t9 -26.5q0 -6 -2 -13q-6 -21 -24.5 -36t-38.5 -15q-21 0 -29.5 12.5t-8.5 24.5q0 6 2 14z" />
    <glyph glyph-name="Amacron" unicode="&#x100;" horiz-adv-x="635" 
d="M-38 0v2q27 29 97 139l309 500q20 32 20 59q0 9 -2 18l1 2h77l55 -585q11 -99 23 -133l-1 -2h-101v3q18 38 18 95q0 18 -2 39l-10 111h-282l-51 -85q-59 -97 -59 -159l-1 -4h-91zM443 281l-33 364l-224 -364h257zM336 863h289l-8 -32h-290z" />
    <glyph glyph-name="amacron" unicode="&#x101;" horiz-adv-x="519" 
d="M38 250q44 125 116 186.5t138 61.5q37 0 60.5 -19t29.5 -52q40 35 58 65h16l-115 -423q-2 -7 -2 -12q0 -11 10 -11h2q28 5 79 69q24 32 46 69l6 -8q-35 -79 -79.5 -130.5t-82.5 -51.5q-40 0 -40 44q0 17 6 41l21 77q-41 -75 -94 -119t-102 -44q-63 0 -80 45t-17 79
q0 55 24 133zM80 100q12 -61 61 -61q50 0 106.5 67.5t90.5 166.5l27 101q0 6 1 12q-1 29 -14.5 54t-49.5 26h-4q-51 0 -106 -54.5t-90 -154.5q-25 -72 -25 -123q0 -18 3 -34zM199 603l9 32h289l-8 -32h-290z" />
    <glyph glyph-name="Abreve" unicode="&#x102;" horiz-adv-x="635" 
d="M-38 0v2q27 29 97 139l309 500q20 32 20 59q0 9 -2 18l1 2h77l55 -585q11 -99 23 -133l-1 -2h-101v3q18 38 18 95q0 18 -2 39l-10 111h-282l-51 -85q-59 -97 -59 -159l-1 -4h-91zM443 281l-33 364l-224 -364h257zM347 930h14q10 -87 112 -87q101 0 157 87h15
q-16 -58 -70 -97.5t-116 -39.5q-63 0 -90 33t-27 68q0 17 5 36z" />
    <glyph glyph-name="abreve" unicode="&#x103;" horiz-adv-x="519" 
d="M38 250q44 125 116 186.5t138 61.5q37 0 60.5 -19t29.5 -52q40 35 58 65h16l-115 -423q-2 -7 -2 -12q0 -11 10 -11h2q28 5 79 69q24 32 46 69l6 -8q-35 -79 -79.5 -130.5t-82.5 -51.5q-40 0 -40 44q0 17 6 41l21 77q-41 -75 -94 -119t-102 -44q-63 0 -80 45t-17 79
q0 55 24 133zM80 100q12 -61 61 -61q50 0 106.5 67.5t90.5 166.5l27 101q0 6 1 12q-1 29 -14.5 54t-49.5 26h-4q-51 0 -106 -54.5t-90 -154.5q-25 -72 -25 -123q0 -18 3 -34zM218 702h14q10 -87 112 -87q101 0 157 87h15q-16 -58 -70 -97.5t-116 -39.5q-63 0 -90 33t-27 68
q0 17 5 36z" />
    <glyph glyph-name="Aogonek" unicode="&#x104;" horiz-adv-x="635" 
d="M59 141l309 500q20 32 20 59q0 9 -2 18l1 2h77l55 -585q11 -99 23 -133l-1 -2h-58q-59 -36 -59 -93q0 -27 14.5 -35t27.5 -8q10 0 29.5 5t47.5 26v-17q-48 -54 -103 -54q-35 0 -53 20.5t-18 48.5q0 33 23.5 62.5t58.5 44.5h-11v3q18 38 18 95q0 18 -2 39l-10 111h-282
l-51 -85q-59 -97 -59 -159l-1 -4h-91v2q27 29 97 139zM186 281h257l-33 364z" />
    <glyph glyph-name="aogonek" unicode="&#x105;" horiz-adv-x="519" 
d="M38 250q44 125 116 186.5t138 61.5q37 0 60.5 -19t29.5 -52q40 35 58 65h16l-115 -423q-2 -7 -2 -12q0 -11 10 -11h2q28 5 79 69q24 32 46 69l6 -8q-28 -63 -62.5 -109.5t-67.5 -63.5q21 8 42 8h5q-40 -16 -60.5 -45.5t-20.5 -58.5q0 -27 14.5 -35t27.5 -8q10 0 29.5 5
t47.5 26v-17q-48 -54 -103 -54q-35 0 -53 20.5t-18 48.5q0 31 22 60t55 44q-10 -3 -20 -3q-40 0 -40 44q0 17 6 41l21 77q-41 -75 -94 -119t-102 -44q-63 0 -80 45t-17 79q0 55 24 133zM80 100q12 -61 61 -61q50 0 106.5 67.5t90.5 166.5l27 101q0 6 1 12q-1 29 -14.5 54
t-49.5 26h-4q-51 0 -106 -54.5t-90 -154.5q-25 -72 -25 -123q0 -18 3 -34z" />
    <glyph glyph-name="Cacute" unicode="&#x106;" horiz-adv-x="619" 
d="M89 391q40 152 153 245.5t248 93.5q96 0 191 -52l-28 -104h-6q-19 53 -61.5 88t-106.5 35q-105 0 -195.5 -88.5t-124.5 -215.5q-20 -76 -20 -141q0 -67 31.5 -148.5t130.5 -81.5q57 0 121 36t111 88h6l-28 -104q-117 -54 -218 -54q-131 0 -178 88t-47 172q0 65 21 143z
M392 809l192 119l52 -54l-230 -80z" />
    <glyph glyph-name="cacute" unicode="&#x107;" horiz-adv-x="443" 
d="M36 250q30 111 102 179.5t155 68.5q64 0 124 -45l-27 -87h-4q-13 44 -38.5 73.5t-62.5 29.5h-2q-57 -1 -109.5 -65.5t-74.5 -146.5q-14 -47 -14 -86q0 -38 19.5 -85t87.5 -47q115 0 197 161l7 -11q-42 -99 -104 -147.5t-124 -48.5q-80 0 -112.5 57t-32.5 112q0 40 13 88z
M396 700l52 -54l-230 -80l-14 15z" />
    <glyph glyph-name="Ccaron" unicode="&#x10c;" horiz-adv-x="619" 
d="M89 391q40 152 153 245.5t248 93.5q96 0 191 -52l-28 -104h-6q-19 53 -61.5 88t-106.5 35q-105 0 -195.5 -88.5t-124.5 -215.5q-20 -76 -20 -141q0 -67 31.5 -148.5t130.5 -81.5q57 0 121 36t111 88h6l-28 -104q-117 -54 -218 -54q-131 0 -178 88t-47 172q0 65 21 143z
M358 917l16 13l136 -82l179 82l8 -13l-206 -135z" />
    <glyph glyph-name="ccaron" unicode="&#x10d;" horiz-adv-x="443" 
d="M36 250q30 111 102 179.5t155 68.5q64 0 124 -45l-27 -87h-4q-13 44 -38.5 73.5t-62.5 29.5h-2q-57 -1 -109.5 -65.5t-74.5 -146.5q-14 -47 -14 -86q0 -38 19.5 -85t87.5 -47q115 0 197 161l7 -11q-42 -99 -104 -147.5t-124 -48.5q-80 0 -112.5 57t-32.5 112q0 40 13 88z
M190 693l130 -78l171 78l8 -13l-197 -128l-127 128z" />
    <glyph glyph-name="Dcaron" unicode="&#x10e;" horiz-adv-x="632" 
d="M-13 0l1 3q33 61 51 128l122 458q16 57 18 128l1 3h212q127 0 179.5 -86t52.5 -171q0 -57 -18 -124q-27 -102 -93.5 -181t-148.5 -118.5t-165 -39.5h-212zM198 33q114 0 206 83t129 225q20 77 20 138q0 66 -33 137.5t-147 71.5h-121l-175 -655h121zM284 930l136 -82
l179 82l8 -13l-206 -135l-133 135z" />
    <glyph glyph-name="dcaron" unicode="&#x10f;" horiz-adv-x="566" 
d="M38 250q44 125 116 186.5t137 61.5q72 0 89 -68l45 168q17 60 17 101q0 13 -2 24l-1 3l82 15l-180 -672q-2 -7 -2 -12q0 -11 10 -11h2q28 5 79 69q24 32 46 69l6 -8q-35 -79 -79.5 -130.5t-82.5 -51.5q-22 0 -31.5 14t-9.5 30q0 17 7 41l21 78q-41 -76 -94 -120t-102 -44
q-63 0 -80 45t-17 79q0 55 24 133zM80 100q12 -61 61 -61q53 0 112 73.5t90 178.5l19 71q1 11 1 20q0 28 -12 55t-50 28h-4q-50 0 -105 -54t-90 -154q-25 -72 -25 -123q0 -18 3 -34zM571 586q21 27 26 43q-5 -1 -10 -1q-19 0 -27.5 11t-8.5 25q0 6 2 14q5 19 22.5 32.5
t36.5 13.5q23 0 31 -14.5t8 -28.5q0 -10 -3 -23q-9 -36 -42 -69t-72 -48h-17q33 17 54 45z" />
    <glyph glyph-name="Dcroat" unicode="&#x110;" horiz-adv-x="653" 
d="M40 3q31 67 48 128l54 213h-93l9 34h93l54 211q16 57 18 128l1 3h200q122 0 174 -81.5t52 -164.5q0 -50 -15 -108q-41 -160 -157.5 -263t-238.5 -103h-200zM122 34h116q109 0 200.5 91.5t128.5 240.5q16 64 16 118q0 65 -34.5 133.5t-142.5 68.5h-117l-79 -308h181
l-9 -34h-180z" />
    <glyph glyph-name="dcroat" unicode="&#x111;" horiz-adv-x="541" 
d="M485 605l-144 -536q-2 -7 -2 -12q0 -11 10 -11h2q28 5 79 69q24 32 46 69l6 -8q-35 -79 -79.5 -130.5t-82.5 -51.5q-22 0 -31.5 14t-9.5 30q0 17 7 41l21 78q-41 -76 -94 -120t-102 -44q-63 0 -80 45t-17 79q0 55 24 133q44 125 116 186.5t137 61.5q72 0 89 -68l45 168
q1 1 1 3.5t1 3.5h-207l1 30h213q8 38 8 65q0 13 -2 23l-1 3l82 15l-28 -106h57l-1 -30h-64zM141 39q53 0 112 73.5t90 178.5l19 71q1 11 1 20q0 28 -12 55t-50 28h-4q-50 0 -105 -54t-90 -154q-25 -72 -25 -123q0 -19 7.5 -57t56.5 -38z" />
    <glyph glyph-name="Emacron" unicode="&#x112;" horiz-adv-x="527" 
d="M-13 0l1 3q33 66 50 128l122 458q17 61 19 128l1 3h431l-23 -89h-4l-30 21q-9 6 -12.5 8t-12.5 7t-14.5 7t-14 5.5t-16 5t-16 2.5t-17.5 1h-199l-81 -301h141q57 0 145 27h2l-22 -83h-3q-69 26 -131 26h-140l-87 -325h202q57 0 163 57h4l-24 -89h-434zM286 863h289
l-8 -32h-290z" />
    <glyph glyph-name="emacron" unicode="&#x113;" horiz-adv-x="454" 
d="M40 262q31 104 103 170t158 66q59 0 93 -26.5t34 -63.5q0 -9 -2 -18q-13 -67 -91.5 -108t-179.5 -41q-29 0 -60 3q-10 -41 -10 -75q0 -42 21 -86t86 -44q50 0 105.5 36.5t102.5 124.5l7 -11q-42 -98 -108.5 -147t-130.5 -49q-81 0 -113 57t-32 110q0 46 17 102zM101 265
h14q112 0 172.5 32t73.5 85q3 13 3 25q0 22 -15.5 42.5t-52.5 20.5q-62 0 -115.5 -61.5t-77.5 -137.5q-1 -1 -1 -3t-1 -3zM177 603l9 32h289l-8 -32h-290z" />
    <glyph glyph-name="Edotaccent" unicode="&#x116;" horiz-adv-x="527" 
d="M-12 3q33 66 50 128l122 458q17 61 19 128l1 3h431l-23 -89h-4l-30 21q-9 6 -12.5 8t-12.5 7t-14.5 7t-14 5.5t-16 5t-16 2.5t-17.5 1h-199l-81 -301h141q57 0 145 27h2l-22 -83h-3q-69 26 -131 26h-140l-87 -325h202q57 0 163 57h4l-24 -89h-434zM387 901q5 21 23 35.5
t37 14.5q18 0 27 -12t9 -25q0 -6 -2 -13q-6 -21 -23 -35q-18 -15 -37 -15t-27.5 12t-8.5 25q0 6 2 13z" />
    <glyph glyph-name="edotaccent" unicode="&#x117;" horiz-adv-x="454" 
d="M40 262q31 104 103 170t158 66q59 0 93 -26.5t34 -63.5q0 -9 -2 -18q-13 -67 -91.5 -108t-179.5 -41q-29 0 -60 3q-10 -41 -10 -75q0 -42 21 -86t86 -44q50 0 105.5 36.5t102.5 124.5l7 -11q-42 -98 -108.5 -147t-130.5 -49q-81 0 -113 57t-32 110q0 46 17 102zM101 265
h14q112 0 172.5 32t73.5 85q3 13 3 25q0 22 -15.5 42.5t-52.5 20.5q-62 0 -115.5 -61.5t-77.5 -137.5q-1 -1 -1 -3t-1 -3zM288 673q5 21 23 35.5t37 14.5q18 0 27 -12t9 -25q0 -6 -2 -13q-6 -21 -23 -35q-18 -15 -37 -15t-27.5 12t-8.5 25q0 6 2 13z" />
    <glyph glyph-name="Eogonek" unicode="&#x118;" horiz-adv-x="527" 
d="M-13 0l1 3q33 66 50 128l122 458q17 61 19 128l1 3h431l-23 -89h-4l-30 21q-9 6 -12.5 8t-12.5 7t-14.5 7t-14 5.5t-16 5t-16 2.5t-17.5 1h-199l-81 -301h141q57 0 145 27h2l-22 -83h-3q-69 26 -131 26h-140l-87 -325h202q57 0 163 57h4l-24 -89h-72q-59 -36 -59 -93
q0 -27 14.5 -35t27.5 -8q10 0 29.5 5t47.5 26v-17q-48 -54 -103 -54q-35 0 -53 20.5t-18 48.5q0 33 23.5 62.5t58.5 44.5h-330z" />
    <glyph glyph-name="eogonek" unicode="&#x119;" horiz-adv-x="454" 
d="M40 262q31 104 103 170t158 66q59 0 93 -26.5t34 -63.5q0 -9 -2 -18q-13 -67 -91.5 -108t-179.5 -41q-29 0 -60 3q-10 -41 -10 -75q0 -42 21 -86t86 -44q50 0 105.5 36.5t102.5 124.5l7 -11q-34 -78 -84.5 -125.5t-104.5 -63.5q-29 -17 -44.5 -42.5t-15.5 -50.5
q0 -27 14.5 -35t27.5 -8q10 0 29.5 5t47.5 26v-17q-48 -54 -103 -54q-35 0 -53 20.5t-18 48.5q0 29 19 56.5t49 43.5h-3q-81 0 -113 57t-32 110q0 46 17 102zM286 296q62 33 75 86q3 13 3 25q0 22 -15.5 42.5t-52.5 20.5q-62 0 -115.5 -61.5t-77.5 -137.5q-1 -1 -1 -3t-1 -3
h14q112 0 171 31z" />
    <glyph glyph-name="Ecaron" unicode="&#x11a;" horiz-adv-x="527" 
d="M-13 0l1 3q33 66 50 128l122 458q17 61 19 128l1 3h431l-23 -89h-4l-30 21q-9 6 -12.5 8t-12.5 7t-14.5 7t-14 5.5t-16 5t-16 2.5t-17.5 1h-199l-81 -301h141q57 0 145 27h2l-22 -83h-3q-69 26 -131 26h-140l-87 -325h202q57 0 163 57h4l-24 -89h-434zM272 917l16 13
l136 -82l179 82l8 -13l-206 -135z" />
    <glyph glyph-name="ecaron" unicode="&#x11b;" horiz-adv-x="454" 
d="M40 262q31 104 103 170t158 66q59 0 93 -26.5t34 -63.5q0 -9 -2 -18q-13 -67 -91.5 -108t-179.5 -41q-29 0 -60 3q-10 -41 -10 -75q0 -42 21 -86t86 -44q50 0 105.5 36.5t102.5 124.5l7 -11q-42 -98 -108.5 -147t-130.5 -49q-81 0 -113 57t-32 110q0 46 17 102zM101 265
h14q112 0 172.5 32t73.5 85q3 13 3 25q0 22 -15.5 42.5t-52.5 20.5q-62 0 -115.5 -61.5t-77.5 -137.5q-1 -1 -1 -3t-1 -3zM178 680l15 13l130 -78l171 78l8 -13l-197 -128z" />
    <glyph glyph-name="uni0122" unicode="&#x122;" horiz-adv-x="675" 
d="M92 401q42 158 154 243.5t246 85.5q116 0 207 -54l-29 -108h-6q-17 51 -66.5 89.5t-123.5 39.5q-103 0 -187 -74.5t-123 -219.5q-21 -78 -21 -143q0 -72 37 -155t149 -83q70 0 160 52l36 133q8 31 8 64q0 32 -7 65l1 3h120l-1 -3q-42 -67 -59 -129l-42 -158
q-6 -3 -30 -12.5t-32.5 -12.5t-29.5 -10.5t-33 -10.5l-30 -8q-18 -4 -34.5 -5.5t-33.5 -1.5q-141 0 -195 95.5t-54 185.5q0 62 19 132zM278 -183q19 25 23 39q-4 -1 -8 -1q-17 0 -25 10t-8 22q0 6 2 13q4 18 19.5 29.5t33.5 11.5q21 0 28.5 -13t7.5 -26q0 -9 -3 -20
q-8 -32 -38 -61.5t-66 -43.5h-15q30 15 49 40z" />
    <glyph glyph-name="uni0123" unicode="&#x123;" horiz-adv-x="466" 
d="M-54 -77q19 65 86 101q-19 11 -24 27t-5 28t3 25q16 58 90 80q-40 35 -40 92q0 26 9 57q21 78 83.5 121.5t136.5 43.5q62 0 101 -30q48 53 113 53q12 0 25 -2l-28 -59l-2 -1q-21 14 -46 14t-54 -13q25 -23 31 -50t6 -45q0 -24 -7 -50q-21 -76 -84.5 -120.5t-137.5 -44.5
q-50 0 -87 22q-49 -12 -60 -52q-3 -8 -3 -15q0 -16 15 -29.5t43 -13.5h141q68 0 96 -30.5t28 -62.5q0 -21 -9 -45q-14 -41 -48 -68.5t-76.5 -38t-70.5 -14t-56 -3.5q-48 0 -88 9.5t-62.5 34t-22.5 51.5q0 13 4 28zM133 220q24 -43 78 -43q50 0 91 37.5t58 100.5q8 31 8 57
q0 33 -18.5 65.5t-73.5 32.5q-49 0 -89.5 -35t-59.5 -103q-8 -30 -8 -55q0 -33 14 -57zM25 -147q37 -24 107 -24q78 0 128.5 30t60.5 70q3 10 3 19q0 22 -19 41t-68 19h-122q-29 0 -57 5q-55 -41 -62 -90q-1 -8 -1 -15q0 -34 30 -55zM325 624q9 36 42 68.5t73 48.5h17
q-33 -17 -54 -44t-26 -44q5 1 10 1q18 0 26.5 -11t8.5 -25q0 -6 -2 -14q-5 -20 -22 -33t-36 -13q-23 0 -31.5 14.5t-8.5 28.5q0 11 3 23z" />
    <glyph glyph-name="Imacron" unicode="&#x12a;" horiz-adv-x="221" 
d="M-3 3q33 61 51 128l122 458q14 50 19 128v3h97l-1 -3q-33 -61 -51 -128l-123 -458q-13 -50 -18 -128v-3h-97zM128 829l8 32h285l-8 -32h-285z" />
    <glyph glyph-name="imacron" unicode="&#x12b;" horiz-adv-x="247" 
d="M17 88l73 275q14 53 14 111v15l1 3h79l-107 -396q-5 -19 -5 -31q0 -15 10 -15h3q29 5 83 81q20 29 38 60l6 -9q-34 -79 -78 -130.5t-81 -51.5q-24 0 -33.5 15t-9.5 31q0 18 7 42zM42 598l8 31h278l-8 -31h-278z" />
    <glyph glyph-name="Iogonek" unicode="&#x12e;" horiz-adv-x="221" 
d="M-50 -45q24 30 59 45h-13l1 3q33 61 51 128l122 458q14 50 19 128v3h97l-1 -3q-33 -61 -51 -128l-123 -458q-13 -50 -18 -128v-3h-52q-59 -36 -59 -93q0 -27 14.5 -35t27.5 -8q10 0 29.5 5t47.5 26v-17q-48 -54 -103 -54q-35 0 -53 20.5t-18 48.5q0 33 23 62z" />
    <glyph glyph-name="iogonek" unicode="&#x12f;" horiz-adv-x="247" 
d="M-24 -43q25 31 62 45q-27 8 -27 45q0 17 6 41l73 275q14 53 14 111v15l1 3h79l-107 -396q-5 -19 -5 -31q0 -15 10 -15h3q29 5 83 81q20 29 38 60l6 -9q-30 -69 -69 -119t-73 -60q-31 -18 -47.5 -44t-16.5 -52q0 -27 14.5 -35t27.5 -8q10 0 29.5 5t47.5 26v-17
q-48 -54 -103 -54q-35 0 -53 20.5t-18 48.5q0 34 25 64zM147 673q5 21 23 35.5t37 14.5q18 0 27 -12t9 -25q0 -6 -2 -13q-6 -21 -23.5 -35.5t-36.5 -14.5t-27.5 12t-8.5 25q0 6 2 13z" />
    <glyph glyph-name="dotlessi" unicode="&#x131;" horiz-adv-x="247" 
d="M17 88l73 275q14 53 14 111v15l1 3h79l-107 -396q-5 -19 -5 -31q0 -15 10 -15h3q29 5 83 81q20 29 38 60l6 -9q-34 -79 -78 -130.5t-81 -51.5q-24 0 -33.5 15t-9.5 31q0 18 7 42z" />
    <glyph glyph-name="uni0136" unicode="&#x136;" horiz-adv-x="584" 
d="M-12 3q33 61 51 128l122 458q17 61 19 128l1 3h96l-1 -3q-30 -56 -51 -128l-122 -458q-16 -57 -18 -128l-1 -3h-96v3zM192 375l255 211q104 84 104 136v1l1 4h121v-3q-46 -33 -67 -51l-350 -290l181 -313q21 -36 58 -67l-1 -3h-94q-7 8 -17.5 34t-18.5 39l-173 299l-1 1
q0 1 2 2zM151 -211q30 15 49 40t23 39q-4 -1 -8 -1q-17 0 -25 10t-8 22q0 6 2 13q4 18 19.5 29.5t33.5 11.5q21 0 28.5 -13t7.5 -26q0 -9 -3 -20q-8 -32 -38 -61.5t-66 -43.5h-15z" />
    <glyph glyph-name="uni0137" unicode="&#x137;" horiz-adv-x="507" 
d="M-20 3q36 77 50 128l124 467q15 55 15 125v3l83 15l-163 -610q-17 -61 -19 -128l-1 -3h-90zM144 271v1l132 97q86 64 86 111q0 4 -1 8l1 4h121l-1 -4l-279 -207l94 -180q17 -33 26.5 -45t21.5 -12h1q20 0 44 29t72 101l5 -8q-72 -172 -142 -172q-7 0 -12.5 1.5t-11.5 5.5
t-10 7.5t-10 11.5t-10 13.5t-10.5 18t-11 20t-13 24t-13.5 26.5zM129 -171q19 25 23 39q-4 -1 -8 -1q-17 0 -25 10t-8 22q0 6 2 13q4 18 19.5 29.5t33.5 11.5q21 0 28.5 -13t7.5 -26q0 -9 -3 -20q-8 -32 -38 -61.5t-66 -43.5h-15q30 15 49 40z" />
    <glyph glyph-name="Lacute" unicode="&#x139;" horiz-adv-x="492" 
d="M-13 0l1 3q30 56 51 128l122 458q16 57 18 128l1 3h97v-3q-35 -70 -51 -128l-149 -557h168q59 0 167 72h4l-28 -104h-401zM485 928l52 -54l-230 -80l-14 15z" />
    <glyph glyph-name="lacute" unicode="&#x13a;" horiz-adv-x="248" 
d="M17 86l136 512q15 56 15 102q0 13 -1 26l83 15l-172 -645q-5 -19 -5 -31q0 -15 10 -15h3q29 5 85 84l36 57l6 -9q-35 -79 -79 -130.5t-81 -51.5q-24 0 -33.5 14.5t-9.5 30.5q0 17 7 41zM322 938l52 -54l-230 -80l-14 15z" />
    <glyph glyph-name="uni013B" unicode="&#x13b;" horiz-adv-x="492" 
d="M-12 3q30 56 51 128l122 458q16 57 18 128l1 3h97v-3q-35 -70 -51 -128l-149 -557h168q59 0 167 72h4l-28 -104h-401zM100 -211q30 15 49 40t23 39q-4 -1 -8 -1q-17 0 -25 10t-8 22q0 6 2 13q4 18 19.5 29.5t33.5 11.5q21 0 28.5 -13t7.5 -26q0 -9 -3 -20
q-8 -32 -38 -61.5t-66 -43.5h-15z" />
    <glyph glyph-name="uni013C" unicode="&#x13c;" horiz-adv-x="248" 
d="M17 86l136 512q15 56 15 102q0 13 -1 26l83 15l-172 -645q-5 -19 -5 -31q0 -15 10 -15h3q29 5 85 84l36 57l6 -9q-35 -79 -79 -130.5t-81 -51.5q-24 0 -33.5 14.5t-9.5 30.5q0 17 7 41zM10 -171q19 25 23 39q-4 -1 -8 -1q-17 0 -25 10t-8 22q0 6 2 13q4 18 19.5 29.5
t33.5 11.5q21 0 28.5 -13t7.5 -26q0 -9 -3 -20q-8 -32 -38 -61.5t-66 -43.5h-15q30 15 49 40z" />
    <glyph glyph-name="Lcaron" unicode="&#x13d;" horiz-adv-x="492" 
d="M-13 0l1 3q30 56 51 128l122 458q16 57 18 128l1 3h97v-3q-35 -70 -51 -128l-149 -557h168q59 0 167 72h4l-28 -104h-401zM401 586q21 27 26 43q-5 -1 -10 -1q-19 0 -27.5 11t-8.5 25q0 6 2 14q5 19 22.5 32.5t36.5 13.5q23 0 31 -14.5t8 -28.5q0 -10 -3 -23
q-8 -36 -41 -68.5t-73 -48.5h-17q33 17 54 45z" />
    <glyph glyph-name="lcaron" unicode="&#x13e;" horiz-adv-x="302" 
d="M17 86l136 512q15 56 15 102q0 13 -1 26l83 15l-172 -645q-5 -19 -5 -31q0 -15 10 -15h3q29 5 85 84l36 57l6 -9q-35 -79 -79 -130.5t-81 -51.5q-24 0 -33.5 14.5t-9.5 30.5q0 17 7 41zM256 541q33 17 54 44.5t26 43.5q-4 -1 -9 -1q-19 0 -28 11t-9 25q0 6 2 14
q5 20 22.5 33t36.5 13q23 0 31 -14.5t8 -28.5q0 -10 -3 -23q-9 -36 -41.5 -68.5t-72.5 -48.5h-17z" />
    <glyph glyph-name="Lslash" unicode="&#x141;" horiz-adv-x="587" 
d="M22 266l1 35l141 80l55 208q17 56 19 128l1 3h97l-1 -3q-35 -71 -50 -128l-44 -165l168 95l-1 -34l-178 -101l-95 -352h168q59 0 167 72h4l-28 -104h-400l1 3q32 65 51 128l55 210z" />
    <glyph glyph-name="lslash" unicode="&#x142;" horiz-adv-x="348" 
d="M13 255l10 38l115 62l64 243q15 56 15 102q0 13 -1 26l83 15l-93 -348l171 93l-10 -38l-171 -93l-69 -259q-5 -19 -5 -31q0 -15 10 -15h3q29 5 85 84q19 27 36 57l6 -9q-35 -79 -79 -130.5t-81 -51.5q-23 0 -32.5 15t-9.5 32q0 16 6 39l61 231z" />
    <glyph glyph-name="Nacute" unicode="&#x143;" horiz-adv-x="651" 
d="M-11 4q56 103 74 170l102 380q16 64 16 144v18l1 4h67l242 -629l121 455q17 64 17 135q0 18 -1 35l1 4h95l-2 -4q-55 -98 -74 -170l-146 -546h-44l-238 626l-121 -452q-17 -64 -17 -135q0 -18 1 -35l-1 -4h-94zM360 809l192 119l52 -54l-230 -80z" />
    <glyph glyph-name="nacute" unicode="&#x144;" 
d="M90 359q17 61 17 104q0 14 -2 26v3h78l-50 -186q102 192 225 192q56 0 78 -32t22 -69q0 -30 -10 -70l-70 -261q-1 -6 -1 -9q0 -10 8 -10h2q27 3 77 65q27 32 50 72l5 -8q-34 -79 -78 -130.5t-81 -51.5q-24 0 -33.5 14t-9.5 30q0 17 6 41l65 241q9 34 9 60q0 24 -13 48.5
t-51 24.5q-47 0 -96.5 -48.5t-85.5 -114.5t-59 -138l-41 -152h-59zM411 700l52 -54l-230 -80l-14 15z" />
    <glyph glyph-name="uni0145" unicode="&#x145;" horiz-adv-x="651" 
d="M-11 4q56 103 74 170l102 380q16 64 16 144v18l1 4h67l242 -629l121 455q17 64 17 135q0 18 -1 35l1 4h95l-2 -4q-55 -98 -74 -170l-146 -546h-44l-238 626l-121 -452q-17 -64 -17 -135q0 -18 1 -35l-1 -4h-94zM156 -211q30 15 49 40t23 39q-4 -1 -8 -1q-17 0 -25 10
t-8 22q0 6 2 13q4 18 19.5 29.5t33.5 11.5q21 0 28.5 -13t7.5 -26q0 -9 -3 -20q-8 -32 -38 -61.5t-66 -43.5h-15z" />
    <glyph glyph-name="uni0146" unicode="&#x146;" 
d="M90 359q17 61 17 104q0 14 -2 26v3h78l-50 -186q102 192 225 192q56 0 78 -32t22 -69q0 -30 -10 -70l-70 -261q-1 -6 -1 -9q0 -10 8 -10h2q27 3 77 65q27 32 50 72l5 -8q-34 -79 -78 -130.5t-81 -51.5q-24 0 -33.5 14t-9.5 30q0 17 6 41l65 241q9 34 9 60q0 24 -13 48.5
t-51 24.5q-47 0 -96.5 -48.5t-85.5 -114.5t-59 -138l-41 -152h-59zM180 -171q19 25 23 39q-4 -1 -8 -1q-17 0 -25 10t-8 22q0 6 2 13q4 18 19.5 29.5t33.5 11.5q21 0 28.5 -13t7.5 -26q0 -9 -3 -20q-8 -32 -38 -61.5t-66 -43.5h-15q30 15 49 40z" />
    <glyph glyph-name="Ncaron" unicode="&#x147;" horiz-adv-x="651" 
d="M-11 4q56 103 74 170l102 380q16 64 16 144v18l1 4h67l242 -629l121 455q17 64 17 135q0 18 -1 35l1 4h95l-2 -4q-55 -98 -74 -170l-146 -546h-44l-238 626l-121 -452q-17 -64 -17 -135q0 -18 1 -35l-1 -4h-94zM326 917l16 13l136 -82l179 82l8 -13l-206 -135z" />
    <glyph glyph-name="ncaron" unicode="&#x148;" 
d="M-8 0l98 359q17 61 17 104q0 14 -2 26v3h78l-50 -186q102 192 225 192q56 0 78 -32t22 -69q0 -30 -10 -70l-70 -261q-1 -6 -1 -9q0 -10 8 -10h2q27 3 77 65q27 32 50 72l5 -8q-34 -79 -78 -130.5t-81 -51.5q-24 0 -33.5 14t-9.5 30q0 17 6 41l65 241q9 34 9 60
q0 24 -13 48.5t-51 24.5q-47 0 -96.5 -48.5t-85.5 -114.5t-59 -138l-41 -152h-59zM205 693l130 -78l171 78l8 -13l-197 -128l-127 128z" />
    <glyph glyph-name="Eng" unicode="&#x14a;" horiz-adv-x="651" 
d="M-12 0l1 4q56 103 74 170l102 380q16 64 16 144v18l1 4h67l242 -629l121 455q17 64 17 135q0 18 -1 35l1 4h95l-2 -4q-55 -98 -74 -170l-148 -554q-22 -89 -70.5 -128t-105.5 -39q-48 0 -105 28l23 75q1 -2 6.5 -10t8 -11t9 -10.5t10.5 -11t11.5 -9t14 -8t15.5 -4.5
t18 -2q47 0 80.5 39.5t49.5 98.5h-7l-238 626l-121 -452q-17 -64 -17 -135q0 -18 1 -35l-1 -4h-94z" />
    <glyph glyph-name="eng" unicode="&#x14b;" horiz-adv-x="461" 
d="M358 498q56 0 84.5 -41t5.5 -130l-88 -327q-25 -89 -66.5 -131.5t-102.5 -42.5q-47 0 -86 21l33 63q27 -49 68 -49q43 0 66.5 37t42.5 102l-12 6l85 314q18 68 0.5 100.5t-55.5 32.5q-47 0 -96.5 -48.5t-85.5 -114.5t-59 -138l-41 -152h-59l98 359q22 81 15 130v3h78
l-50 -186q102 192 225 192z" />
    <glyph glyph-name="Omacron" unicode="&#x14c;" horiz-adv-x="680" 
d="M84 370q38 163 146 261.5t226 98.5h5q120 -2 167 -84.5t47 -167.5q0 -55 -15 -119q-39 -164 -149 -266q-109 -100 -226 -100q-3 0 -64 1t-107 85t-46 167q0 57 16 124zM154 124q36 -94 134 -95h4q96 0 178 90t118 241q17 74 17 134q0 61 -27 130.5t-125 70.5h-4
q-97 0 -178.5 -89t-115.5 -238q-19 -77 -19 -138q0 -60 18 -106zM364 863h289l-8 -32h-290z" />
    <glyph glyph-name="omacron" unicode="&#x14d;" horiz-adv-x="468" 
d="M37 251q29 112 101.5 179.5t153.5 67.5h5q85 -2 116 -58t31 -110q0 -40 -12 -87q-30 -115 -103 -185t-154 -70h-5q-85 2 -116 59.5t-31 111.5q0 42 14 92zM96 85q21 -68 83 -69h2q58 0 108 63.5t76 164.5q14 51 14 95q0 35 -15 82.5t-45.5 48t-31.5 0.5q-59 0 -109 -61.5
t-76 -158.5q-15 -55 -15 -100q0 -35 9 -65zM195 635h289l-8 -32h-290z" />
    <glyph glyph-name="Ohungarumlaut" unicode="&#x150;" horiz-adv-x="680" 
d="M84 370q38 163 146 261.5t226 98.5h5q120 -2 167 -84.5t47 -167.5q0 -55 -15 -119q-39 -164 -149 -266q-109 -100 -226 -100q-3 0 -64 1t-107 85t-46 167q0 57 16 124zM154 124q36 -94 134 -95h4q96 0 178 90t118 241q17 74 17 134q0 61 -27 130.5t-125 70.5h-4
q-97 0 -178.5 -89t-115.5 -238q-19 -77 -19 -138q0 -60 18 -106zM486 818l147 97l33 -42l-169 -70zM486 915l32 -42l-169 -70l-11 15z" />
    <glyph glyph-name="ohungarumlaut" unicode="&#x151;" horiz-adv-x="468" 
d="M37 251q29 112 101.5 179.5t153.5 67.5h5q85 -2 116 -58t31 -110q0 -40 -12 -87q-30 -115 -103 -185t-154 -70h-5q-85 2 -116 59.5t-31 111.5q0 42 14 92zM96 85q21 -68 83 -69h2q58 0 108 63.5t76 164.5q14 51 14 95q0 35 -15 82.5t-45.5 48t-31.5 0.5q-59 0 -109 -61.5
t-76 -158.5q-15 -55 -15 -100q0 -35 9 -65zM317 590l147 97l33 -42l-169 -70zM169 590l148 97l32 -42l-169 -70z" />
    <glyph glyph-name="OE" unicode="&#x152;" horiz-adv-x="1025" 
d="M84 370q38 163 146 261.5t226 98.5h5q73 -1 123.5 -43.5t68.5 -117.5l5 20q17 61 19 128l1 3h431l-24 -89h-4q-23 17 -35 25.5t-41 20t-56 11.5h-199l-81 -301h141q57 0 145 27h2l-22 -83h-3q-69 26 -131 26h-140l-87 -325h202q57 0 163 57h4l-24 -89h-434l1 3
q31 60 49 123q-54 -65 -119.5 -99t-131.5 -34h-4q-120 2 -166 86t-46 167q0 57 16 124zM154 124q36 -94 134 -95h4q97 0 179 90.5t108 202.5t26 172q0 61 -27 130t-77 70t-52 1q-96 0 -177.5 -89t-116.5 -238q-19 -77 -19 -138q0 -60 18 -106z" />
    <glyph glyph-name="oe" unicode="&#x153;" horiz-adv-x="798" 
d="M37 251q29 112 101.5 179.5t153.5 67.5h5q55 -1 92.5 -33t49.5 -89q39 57 93 89.5t113 32.5t93 -26.5t34 -63.5q0 -9 -2 -18q-13 -67 -91.5 -108t-179.5 -41q-29 0 -60 3q-10 -41 -10 -75q0 -42 21 -86t86 -44q50 0 105.5 36.5t102.5 124.5l7 -11q-42 -98 -108.5 -147
t-129.5 -49q-51 0 -89 31.5t-50 87.5q-41 -59 -93.5 -91.5t-107.5 -32.5h-3q-85 2 -116 59.5t-31 111.5q0 42 14 92zM96 85q21 -68 83 -69h2q58 0 108 63.5t76 164.5q14 51 14 95q0 35 -15 82.5t-45.5 48t-31.5 0.5q-59 0 -109 -61.5t-76 -158.5q-15 -55 -15 -100
q0 -35 9 -65zM445 265h14q112 0 172.5 32t73.5 85q3 13 3 25q0 22 -15.5 42.5t-52.5 20.5q-62 0 -115.5 -61.5t-77.5 -137.5q-1 -1 -1 -3t-1 -3z" />
    <glyph glyph-name="Racute" unicode="&#x154;" horiz-adv-x="606" 
d="M-13 0l1 3q33 66 50 128l123 458q16 62 18 128l1 3h243q97 0 133.5 -48.5t36.5 -98.5q0 -26 -7 -54q-20 -73 -81 -122t-137 -59q62 -27 74 -94q18 -105 32 -150.5t42 -90.5l-1 -3h-79q-26 58 -51 199q-8 53 -26.5 84t-67.5 47h-136l-52 -199q-17 -61 -19 -128l-1 -3h-96z
M303 362q78 0 134.5 39.5t77.5 118.5q8 30 8 56q0 39 -25 76t-99 37h-147l-88 -327h139zM301 809l192 119l52 -54l-230 -80z" />
    <glyph glyph-name="racute" unicode="&#x155;" horiz-adv-x="344" 
d="M-11 0l96 361q17 61 19 128l1 3h73l-45 -169q44 91 92 133t89 42q23 0 48 -11l-24 -67h-3q-24 15 -48 15h-3q-55 -2 -105.5 -78t-83.5 -177l-47 -180h-59zM155 581l192 119l52 -54l-230 -80z" />
    <glyph glyph-name="uni0156" unicode="&#x156;" horiz-adv-x="606" 
d="M-13 0l1 3q33 66 50 128l123 458q16 62 18 128l1 3h243q97 0 133.5 -48.5t36.5 -98.5q0 -26 -7 -54q-20 -73 -81 -122t-137 -59q62 -27 74 -94q18 -105 32 -150.5t42 -90.5l-1 -3h-79q-26 58 -51 199q-8 53 -26.5 84t-67.5 47h-136l-52 -199q-17 -61 -19 -128l-1 -3h-96z
M164 362h139q78 0 134.5 39.5t77.5 118.5q8 30 8 56q0 39 -25 76t-99 37h-147zM201 -171q19 25 23 39q-4 -1 -8 -1q-17 0 -25 10t-8 22q0 6 2 13q4 18 19.5 29.5t33.5 11.5q21 0 28.5 -13t7.5 -26q0 -9 -3 -20q-8 -32 -38 -61.5t-66 -43.5h-15q30 15 49 40z" />
    <glyph glyph-name="uni0157" unicode="&#x157;" horiz-adv-x="344" 
d="M-11 0l96 361q17 61 19 128l1 3h73l-45 -169q44 91 92 133t89 42q23 0 48 -11l-24 -67h-3q-24 15 -48 15h-3q-55 -2 -105.5 -78t-83.5 -177l-47 -180h-59zM3 -211q30 15 49 40t23 39q-4 -1 -8 -1q-17 0 -25 10t-8 22q0 6 2 13q4 18 19.5 29.5t33.5 11.5q21 0 28.5 -13
t7.5 -26q0 -9 -3 -20q-8 -32 -38 -61.5t-66 -43.5h-15z" />
    <glyph glyph-name="Rcaron" unicode="&#x158;" horiz-adv-x="606" 
d="M-13 0l1 3q33 66 50 128l123 458q16 62 18 128l1 3h243q97 0 133.5 -48.5t36.5 -98.5q0 -26 -7 -54q-20 -73 -81 -122t-137 -59q62 -27 74 -94q18 -105 32 -150.5t42 -90.5l-1 -3h-79q-26 58 -51 199q-8 53 -26.5 84t-67.5 47h-136l-52 -199q-17 -61 -19 -128l-1 -3h-96z
M303 362q78 0 134.5 39.5t77.5 118.5q8 30 8 56q0 39 -25 76t-99 37h-147l-88 -327h139zM283 930l136 -82l179 82l8 -13l-206 -135l-133 135z" />
    <glyph glyph-name="rcaron" unicode="&#x159;" horiz-adv-x="344" 
d="M-11 0l96 361q17 61 19 128l1 3h73l-45 -169q44 91 92 133t89 42q23 0 48 -11l-24 -67h-3q-24 15 -48 15h-3q-55 -2 -105.5 -78t-83.5 -177l-47 -180h-59zM126 680l15 13l130 -78l171 78l8 -13l-197 -128z" />
    <glyph glyph-name="Sacute" unicode="&#x15a;" horiz-adv-x="542" 
d="M26 142h3q25 -61 75 -96.5t108 -35.5q12 0 25 1q60 6 105.5 38t61.5 83q7 25 7 48q0 97 -127 166q-133 72 -133 170q0 34 15 70q29 68 92 109t141 49q17 2 33 2q95 0 182 -59l-32 -89h-3q-24 52 -70.5 82t-100.5 30q-11 0 -23 -1q-54 -6 -98.5 -36.5t-65.5 -79.5
q-12 -29 -12 -55q0 -29 23 -63t92 -72q85 -47 116 -95.5t31 -93.5q0 -33 -12 -70q-23 -74 -85 -117.5t-152 -51.5q-14 -1 -28 -1q-35 0 -77 11t-66 24.5t-61 38.5zM312 809l192 119l52 -54l-230 -80z" />
    <glyph glyph-name="sacute" unicode="&#x15b;" horiz-adv-x="400" 
d="M-9 41l31 85l3 1q13 -44 48.5 -75.5t83.5 -33.5h5q82 0 107 63q6 16 6 31q0 25 -20.5 53.5t-76.5 64.5q-14 9 -23.5 15.5t-23.5 17.5t-23 21t-18 23.5t-13 27t-4 30.5t6 34q16 46 58.5 71.5t102.5 27.5h14q75 0 141 -38l-30 -83h-3q-12 44 -44.5 68t-77.5 24h-7
q-79 -4 -101 -60q-4 -11 -4 -23q0 -41 55 -82q7 -6 37 -27q67 -45 89 -78.5t22 -63.5q0 -19 -7 -39q-34 -106 -166 -108h-7q-95 0 -160 53zM176 581l192 119l52 -54l-230 -80z" />
    <glyph glyph-name="Scedilla" unicode="&#x15e;" horiz-adv-x="542" 
d="M-10 48l36 94h3q22 -54 68.5 -91.5t110.5 -40.5l4 5h38l-3 -3q57 8 99.5 39.5t57.5 80.5q7 25 7 48q0 97 -127 166q-133 72 -133 170q0 34 15 70q29 68 92 109t141 49q17 2 33 2q95 0 182 -59l-32 -89h-3q-24 52 -70.5 82t-100.5 30q-11 0 -23 -1q-54 -6 -98.5 -36.5
t-65.5 -79.5q-12 -29 -12 -55q0 -29 23 -63t92 -72q85 -47 116 -95.5t31 -93.5q0 -33 -12 -70q-23 -74 -85 -117.5t-152 -51.5q-2 0 -6 -0.5t-6 -0.5l-25 -25h7q37 0 59 -19t22 -44q0 -10 -3 -21q-15 -58 -85 -60h-6q-49 0 -78 33l7 29q27 -33 58 -33q4 0 24.5 3t28.5 38
q2 6 2 11q0 19 -22.5 32t-64.5 13l40 43q-85 6 -184 74z" />
    <glyph glyph-name="scedilla" unicode="&#x15f;" horiz-adv-x="400" 
d="M-9 41l31 85l3 1q13 -44 48.5 -75.5t83.5 -33.5h5q82 0 107 63q6 16 6 31q0 25 -20.5 53.5t-76.5 64.5q-14 9 -23.5 15.5t-23.5 17.5t-23 21t-18 23.5t-13 27t-4 30.5t6 34q16 46 58.5 71.5t102.5 27.5h14q75 0 141 -38l-30 -83h-3q-12 44 -44.5 68t-77.5 24h-7
q-79 -4 -101 -60q-4 -11 -4 -23q0 -41 55 -82q7 -6 37 -27q67 -45 89 -78.5t22 -63.5q0 -19 -7 -39q-34 -106 -166 -108h-11l-38 -39h7q37 0 59 -19t22 -44q0 -10 -3 -21q-15 -58 -85 -60h-6q-49 0 -78 33l7 29q27 -33 58 -33q4 0 24.5 3t28.5 38q2 6 2 11q0 19 -22.5 32
t-65.5 13l56 60q-72 9 -122 50z" />
    <glyph glyph-name="Scaron" unicode="&#x160;" horiz-adv-x="542" 
d="M-10 48l36 94h3q25 -61 75 -96.5t108 -35.5q12 0 25 1q60 6 105.5 38t61.5 83q7 25 7 48q0 97 -127 166q-133 72 -133 170q0 34 15 70q29 68 92 109t141 49q17 2 33 2q95 0 182 -59l-32 -89h-3q-24 52 -70.5 82t-100.5 30q-11 0 -23 -1q-54 -6 -98.5 -36.5t-65.5 -79.5
q-12 -29 -12 -55q0 -29 23 -63t92 -72q85 -47 116 -95.5t31 -93.5q0 -33 -12 -70q-23 -74 -85 -117.5t-152 -51.5q-14 -1 -28 -1q-35 0 -77 11t-66 24.5t-61 38.5zM282 910l15 12l132 -78l172 78l9 -12l-199 -130z" />
    <glyph glyph-name="scaron" unicode="&#x161;" horiz-adv-x="400" 
d="M22 126l3 1q13 -44 48.5 -75.5t83.5 -33.5h5q82 0 107 63q6 16 6 31q0 25 -20.5 53.5t-76.5 64.5q-14 9 -23.5 15.5t-23.5 17.5t-23 21t-18 23.5t-13 27t-4 30.5t6 34q16 46 58.5 71.5t102.5 27.5h14q75 0 141 -38l-30 -83h-3q-12 44 -44.5 68t-77.5 24h-7
q-79 -4 -101 -60q-4 -11 -4 -23q0 -41 55 -82q7 -6 37 -27q67 -45 89 -78.5t22 -63.5q0 -19 -7 -39q-34 -106 -166 -108h-7q-95 0 -160 53zM147 680l15 13l130 -78l171 78l8 -13l-197 -128z" />
    <glyph glyph-name="uni0162" unicode="&#x162;" horiz-adv-x="580" 
d="M111 -162l7 29q27 -33 58 -33q4 0 24.5 3t28.5 38q2 6 2 11q0 19 -22.5 32t-64.5 13l64 69h-31l1 3q35 71 50 128l150 557h-95q-56 0 -158 -74h-3l29 106h532l-28 -106h-3q-61 74 -118 74h-92l-149 -557q-14 -50 -19 -128v-3h-29l-50 -51h7q37 0 59 -19t22 -44
q0 -10 -3 -21q-15 -58 -85 -60h-6q-49 0 -78 33z" />
    <glyph glyph-name="uni0163" unicode="&#x163;" horiz-adv-x="333" 
d="M11 -133q27 -33 58 -33q4 0 24.5 3t28.5 38q2 6 2 11q0 19 -22.5 32t-65.5 13l61 64q-36 7 -45 33.5t-9 46.5q0 23 8 51l89 334h-69l5 19q53 10 88.5 46t62.5 93h15l-34 -126h134l-8 -32h-135l-85 -314q-11 -39 -11 -64q0 -43 33 -43q29 0 67.5 35.5t80.5 111.5l6 -8
q-70 -161 -155 -181l-47 -48h7q37 0 59 -19t22 -44q0 -10 -3 -21q-15 -58 -85 -60h-6q-51 0 -78 33z" />
    <glyph glyph-name="Tcaron" unicode="&#x164;" horiz-adv-x="580" 
d="M122 614l29 106h532l-28 -106h-3q-61 74 -118 74h-92l-149 -557q-14 -50 -19 -128v-3h-97l1 3q35 71 50 128l150 557h-95q-56 0 -158 -74h-3zM315 930l136 -82l179 82l8 -13l-206 -135l-133 135z" />
    <glyph glyph-name="tcaron" unicode="&#x165;" horiz-adv-x="335" 
d="M51 126l89 334h-69l5 19q53 10 88.5 46t62.5 93h15l-34 -126h134l-8 -32h-135l-85 -314q-11 -39 -11 -64q0 -43 33 -43q29 0 67.5 35.5t80.5 111.5l6 -8q-80 -184 -178 -184q-44 0 -56.5 28t-12.5 52q0 23 8 52zM340 600q21 27 26 44q-4 -1 -8 -1q-20 0 -28.5 11t-8.5 24
q0 7 2 15q5 20 22 33t36 13q23 0 31.5 -14.5t8.5 -28.5q0 -11 -3 -23q-9 -35 -42 -68t-73 -49h-17q33 17 54 44z" />
    <glyph glyph-name="Tbar" unicode="&#x166;" horiz-adv-x="580" 
d="M117 390v34h190l71 264h-95q-56 0 -158 -74h-3l29 106h532l-28 -106h-3q-61 74 -118 74h-92l-71 -264h146v-34h-155l-69 -259q-14 -50 -19 -128v-3h-97l1 3q35 71 50 128l70 259h-181z" />
    <glyph glyph-name="tbar" unicode="&#x167;" horiz-adv-x="394" 
d="M51 126l50 188h-41v34h50l30 112h-69l5 19q53 10 88.5 46t62.5 93h15l-34 -126h134l-8 -32h-135l-30 -112h125v-34h-135l-45 -168q-11 -39 -11 -64q0 -43 33 -43q29 0 67.5 35.5t80.5 111.5l6 -8q-80 -184 -178 -184q-44 0 -56.5 28t-12.5 52q0 23 8 52z" />
    <glyph glyph-name="Umacron" unicode="&#x16a;" horiz-adv-x="626" 
d="M77 281l83 308q17 61 19 128l1 3h95l-1 -3q-36 -77 -49 -128l-78 -291q-17 -72 -17 -123q0 -48 23 -95t105 -47q36 0 71 12t73 39t70.5 80.5t52.5 126.5l68 255q19 75 19 155v15l1 4h88l-1 -4q-51 -91 -72 -170l-71 -264q-40 -149 -126.5 -221.5t-186.5 -72.5
q-101 0 -141.5 60t-40.5 126q0 48 15 107zM324 831l9 32h289l-8 -32h-290z" />
    <glyph glyph-name="umacron" unicode="&#x16b;" 
d="M38 165l53 194q16 61 16 102q0 15 -2 28v3h81l-88 -320q-9 -34 -9 -60q0 -24 13 -48.5t51 -24.5q68 0 136 94.5t106 210.5l40 148h59l-117 -426q-1 -6 -1 -9q0 -10 8 -10h2q27 4 77 65q27 32 50 72l6 -8q-35 -79 -79 -130.5t-81 -51.5q-23 0 -32.5 14t-9.5 30q0 17 6 41
l28 104q-101 -189 -223 -189q-56 0 -78 32t-22 69q0 30 10 70zM202 635h289l-8 -32h-290z" />
    <glyph glyph-name="Uring" unicode="&#x16e;" horiz-adv-x="626" 
d="M77 281l83 308q17 61 19 128l1 3h95l-1 -3q-36 -77 -49 -128l-78 -291q-17 -72 -17 -123q0 -48 23 -95t105 -47q36 0 71 12t73 39t70.5 80.5t52.5 126.5l68 255q19 75 19 155v15l1 4h88l-1 -4q-51 -91 -72 -170l-71 -264q-40 -149 -126.5 -221.5t-186.5 -72.5
q-101 0 -141.5 60t-40.5 126q0 48 15 107zM387 878q10 40 44 67.5t72 27.5q37 0 53 -23t16 -46q0 -12 -3 -26q-11 -39 -45 -67q-35 -28 -72 -28t-53 23t-16 45q0 13 4 27zM425 834q12 -19 36 -19q22 0 44.5 19t27.5 36t5 26q0 14 -10 29.5t-34 15.5q-23 0 -45 -19t-28 -44
q-3 -10 -3 -19q0 -14 7 -25z" />
    <glyph glyph-name="uring" unicode="&#x16f;" 
d="M38 165l53 194q16 61 16 102q0 15 -2 28v3h81l-88 -320q-9 -34 -9 -60q0 -24 13 -48.5t51 -24.5q68 0 136 94.5t106 210.5l40 148h59l-117 -426q-1 -6 -1 -9q0 -10 8 -10h2q27 4 77 65q27 32 50 72l6 -8q-35 -79 -79 -130.5t-81 -51.5q-23 0 -32.5 14t-9.5 30q0 17 6 41
l28 104q-101 -189 -223 -189q-56 0 -78 32t-22 69q0 30 10 70zM256 650q10 40 44 67.5t72 27.5q37 0 53 -23t16 -46q0 -12 -3 -26q-11 -39 -45 -67q-35 -28 -72 -28t-53 23t-16 45q0 13 4 27zM294 606q12 -19 36 -19q22 0 44.5 19t27.5 36t5 26q0 14 -10 29.5t-34 15.5
q-23 0 -45 -19t-28 -44q-3 -10 -3 -19q0 -14 7 -25z" />
    <glyph glyph-name="Uhungarumlaut" unicode="&#x170;" horiz-adv-x="626" 
d="M77 281l83 308q17 61 19 128l1 3h95l-1 -3q-36 -77 -49 -128l-78 -291q-17 -72 -17 -123q0 -48 23 -95t105 -47q36 0 71 12t73 39t70.5 80.5t52.5 126.5l68 255q19 75 19 155v15l1 4h88l-1 -4q-51 -91 -72 -170l-71 -264q-40 -149 -126.5 -221.5t-186.5 -72.5
q-101 0 -141.5 60t-40.5 126q0 48 15 107zM602 915l33 -42l-169 -70l-11 15zM455 915l32 -42l-169 -70l-11 15z" />
    <glyph glyph-name="uhungarumlaut" unicode="&#x171;" 
d="M38 165l53 194q16 61 16 102q0 15 -2 28v3h81l-88 -320q-9 -34 -9 -60q0 -24 13 -48.5t51 -24.5q68 0 136 94.5t106 210.5l40 148h59l-117 -426q-1 -6 -1 -9q0 -10 8 -10h2q27 4 77 65q27 32 50 72l6 -8q-35 -79 -79 -130.5t-81 -51.5q-23 0 -32.5 14t-9.5 30q0 17 6 41
l28 104q-101 -189 -223 -189q-56 0 -78 32t-22 69q0 30 10 70zM324 590l147 97l33 -42l-169 -70zM176 590l148 97l32 -42l-169 -70z" />
    <glyph glyph-name="Uogonek" unicode="&#x172;" horiz-adv-x="626" 
d="M77 281l83 308q17 61 19 128l1 3h95l-1 -3q-36 -77 -49 -128l-78 -291q-17 -72 -17 -123q0 -48 23 -95t105 -47q36 0 71 12t73 39t70.5 80.5t52.5 126.5l68 255q19 75 19 155v15l1 4h88l-1 -4q-51 -91 -72 -170l-71 -264q-34 -126 -101 -196.5t-151 -90.5
q-32 -17 -49 -44t-17 -53q0 -27 14.5 -35t27.5 -8q10 0 29.5 5t47.5 26v-17q-48 -54 -103 -54q-35 0 -53 20.5t-18 48.5q0 31 22 60t55 45q-6 -1 -17 -1q-101 0 -141.5 60t-40.5 126q0 48 15 107z" />
    <glyph glyph-name="uogonek" unicode="&#x173;" 
d="M38 165l53 194q16 61 16 102q0 15 -2 28v3h81l-88 -320q-9 -34 -9 -60q0 -24 13 -48.5t51 -24.5q68 0 136 94.5t106 210.5l40 148h59l-117 -426q-1 -6 -1 -9q0 -10 8 -10h2q27 4 77 65q27 32 50 72l6 -8q-34 -77 -77 -128.5t-80 -53.5q-50 -35 -50 -87q0 -27 14.5 -35
t27.5 -8q10 0 29.5 5t47.5 26v-17q-48 -54 -103 -54q-35 0 -53 20.5t-18 48.5q0 32 23 61t57 45q-20 11 -20 42q0 16 6 38l28 104q-101 -189 -223 -189q-56 0 -78 32t-22 69q0 30 10 70z" />
    <glyph glyph-name="Wcircumflex" unicode="&#x174;" horiz-adv-x="927" 
d="M153 717l1 3h106l-1 -3q-22 -49 -22 -117v-16l16 -508l280 504l-1 9q-1 74 -21 128l1 3l106 -1l-1 -3q-22 -48 -22 -112q0 -10 1 -21l16 -511l269 486q51 94 51 155v4l1 3h93l-1 -3q-50 -55 -93 -130l-323 -587h-56l-18 520l-285 -520h-54l-21 587q-5 82 -22 130z
M416 798l206 134l134 -134l-16 -13l-135 81l-180 -81z" />
    <glyph glyph-name="wcircumflex" unicode="&#x175;" horiz-adv-x="692" 
d="M40 174l50 185q17 63 17 104q0 14 -2 26v3h81l-85 -312q-11 -42 -11 -72q0 -18 7 -43.5t44 -25.5q57 0 112 83t93 197l11 40q18 64 18 106q0 13 -2 24v3h80l-87 -320q-12 -43 -12 -73q0 -65 56 -65q77 0 143.5 99.5t66.5 224.5q0 14 -1 29q-2 35 -17 85l86 26
q0 -38 -8 -81q-11 -103 -43.5 -186.5t-75.5 -133.5t-89 -76.5t-89 -26.5q-52 0 -70.5 31t-18.5 64q0 32 12 76l3 12q-93 -183 -196 -183q-53 0 -68.5 33t-15.5 66q0 34 11 81zM262 566l197 129l128 -129l-15 -12l-129 78l-172 -78z" />
    <glyph glyph-name="Ycircumflex" unicode="&#x176;" horiz-adv-x="595" 
d="M150 720h112l-1 -3q-11 -25 -11 -61q0 -30 8 -68l60 -287l210 266q74 97 74 149l1 4h96l-1 -3q-5 -5 -27.5 -29t-39 -43.5t-32.5 -40.5l-269 -344l-35 -129q-16 -57 -18 -128l-1 -3h-98v3q35 70 51 128l34 129l-75 344q-10 46 -39 113zM277 798l206 134l134 -134l-16 -13
l-135 81l-180 -81z" />
    <glyph glyph-name="ycircumflex" unicode="&#x177;" horiz-adv-x="497" 
d="M-42 -79h4q29 -74 103 -74h4q54 0 115 45q9 177 9 311q0 87 -4 155q-5 96 -44 96q-6 0 -12 -2t-12 -6t-11 -8.5t-12 -12.5t-11.5 -14t-12.5 -17t-12.5 -18t-13 -20.5t-13.5 -20.5l-5 9q16 33 28 54t30.5 47.5t39 39.5t43.5 13q67 0 73 -112q4 -64 4 -154q0 -121 -7 -289
q72 77 122.5 187.5t57.5 211.5q1 18 1 35q0 51 -11 96l86 25q-3 -142 -64.5 -299.5t-167 -272.5t-218.5 -119q-8 -1 -16 -1q-69 0 -115 47zM143 566l197 129l128 -129l-15 -12l-129 78l-172 -78z" />
    <glyph glyph-name="Ydieresis" unicode="&#x178;" horiz-adv-x="595" 
d="M149 717l1 3h112l-1 -3q-11 -25 -11 -61q0 -30 8 -68l60 -287l210 266q74 97 74 149l1 4h96l-1 -3q-5 -5 -27.5 -29t-39 -43.5t-32.5 -40.5l-269 -344l-35 -129q-16 -57 -18 -128l-1 -3h-98v3q35 70 51 128l34 129l-75 344q-10 46 -39 113zM320 856q6 22 24.5 37t38.5 15
q21 0 29.5 -12.5t8.5 -24.5q0 -7 -2 -15q-5 -21 -24 -36t-39 -15t-29 12.5t-9 25.5q0 6 2 13zM504 856q5 22 24 37t39 15t29 -12.5t9 -26.5q0 -6 -2 -13q-6 -21 -24.5 -36t-38.5 -15q-21 0 -29.5 12.5t-8.5 24.5q0 6 2 14z" />
    <glyph glyph-name="Zacute" unicode="&#x179;" horiz-adv-x="537" 
d="M525 688h-223q-59 0 -164 -54h-3l23 86h472l-558 -688h220q62 0 164 55h4l-23 -87h-470zM504 928l52 -54l-230 -80l-14 15z" />
    <glyph glyph-name="zacute" unicode="&#x17a;" horiz-adv-x="453" 
d="M-14 -8q13 53 51 103t88.5 91.5t102.5 80.5t103.5 86t81.5 92q-52 -24 -99 -24q-27 0 -66.5 10.5t-63.5 10.5q-31 0 -53.5 -10.5t-34 -23.5t-24.5 -36h-12l23 58q26 67 100 67q23 0 59 -7.5t57.5 -11.5t39.5 -4q19 0 53.5 4t83.5 25q-21 -57 -65.5 -110t-96.5 -95
t-104 -81t-97.5 -83.5t-66.5 -86.5q46 21 87 21q27 0 71 -11t64 -11q64 0 104 66h10l-21 -52q-26 -66 -94 -66q-26 0 -70 11t-91 11q-2 0 -27.5 -0.5t-92.5 -23.5zM402 700l52 -54l-230 -80l-14 15z" />
    <glyph glyph-name="Zdotaccent" unicode="&#x17b;" horiz-adv-x="537" 
d="M525 688h-223q-59 0 -164 -54h-3l23 86h472l-558 -688h220q62 0 164 55h4l-23 -87h-470zM394 901q5 21 23 35.5t37 14.5q18 0 27 -12t9 -25q0 -6 -2 -13q-6 -21 -23 -35q-18 -15 -37 -15t-27.5 12t-8.5 25q0 6 2 13z" />
    <glyph glyph-name="zdotaccent" unicode="&#x17c;" horiz-adv-x="453" 
d="M37 95q38 50 88.5 91.5t102.5 80.5t103.5 86t81.5 92q-52 -24 -99 -24q-27 0 -66.5 10.5t-63.5 10.5q-31 0 -53.5 -10.5t-34 -23.5t-24.5 -36h-12l23 58q26 67 100 67q23 0 59 -7.5t57.5 -11.5t39.5 -4q19 0 53.5 4t83.5 25q-21 -57 -65.5 -110t-96.5 -95t-104 -81
t-97.5 -83.5t-66.5 -86.5q46 21 87 21q27 0 71 -11t64 -11q64 0 104 66h10l-21 -52q-26 -66 -94 -66q-26 0 -70 11t-91 11q-2 0 -27.5 -0.5t-92.5 -23.5q13 53 51 103zM291 673q5 21 23 35.5t37 14.5q18 0 27 -12t9 -25q0 -6 -2 -13q-6 -21 -23 -35q-18 -15 -37 -15
t-27.5 12t-8.5 25q0 6 2 13z" />
    <glyph glyph-name="Zcaron" unicode="&#x17d;" horiz-adv-x="537" 
d="M525 688h-223q-59 0 -164 -54h-3l23 86h472l-558 -688h220q62 0 164 55h4l-23 -87h-470zM278 917l16 13l136 -82l179 82l8 -13l-206 -135z" />
    <glyph glyph-name="zcaron" unicode="&#x17e;" horiz-adv-x="453" 
d="M-14 -8q13 53 51 103t88.5 91.5t102.5 80.5t103.5 86t81.5 92q-52 -24 -99 -24q-27 0 -66.5 10.5t-63.5 10.5q-31 0 -53.5 -10.5t-34 -23.5t-24.5 -36h-12l23 58q26 67 100 67q23 0 59 -7.5t57.5 -11.5t39.5 -4q19 0 53.5 4t83.5 25q-21 -57 -65.5 -110t-96.5 -95
t-104 -81t-97.5 -83.5t-66.5 -86.5q46 21 87 21q27 0 71 -11t64 -11q64 0 104 66h10l-21 -52q-26 -66 -94 -66q-26 0 -70 11t-91 11q-2 0 -27.5 -0.5t-92.5 -23.5zM181 680l15 13l130 -78l171 78l8 -13l-197 -128z" />
    <glyph glyph-name="gravecomb" unicode="&#x300;" horiz-adv-x="0" 
d="M-243 565l-209 80l66 54l161 -119z" />
    <glyph glyph-name="acutecomb" unicode="&#x301;" horiz-adv-x="0" 
d="M-432 566l-14 15l192 119l52 -54z" />
    <glyph glyph-name="uni0302" unicode="&#x302;" horiz-adv-x="0" 
d="M-497 557l-9 13l206 134l134 -134l-16 -13l-135 81z" />
    <glyph glyph-name="tildecomb" unicode="&#x303;" horiz-adv-x="0" 
d="M-489 560q14 44 45.5 77.5t73.5 33.5q23 0 58.5 -19.5t58.5 -19.5q51 0 108 58q-49 -114 -123 -114q-23 0 -61 19t-62 19q-44 0 -98 -54z" />
    <glyph glyph-name="uni0304" unicode="&#x304;" horiz-adv-x="0" 
d="M-460 603l9 32h289l-8 -32h-290z" />
    <glyph glyph-name="uni0306" unicode="&#x306;" horiz-adv-x="0" 
d="M-436 702h14q10 -87 112 -87q101 0 157 87h15q-16 -58 -70 -97.5t-116 -39.5q-63 0 -90 33t-27 68q0 17 5 36z" />
    <glyph glyph-name="uni0307" unicode="&#x307;" horiz-adv-x="0" 
d="M-28 681q5 21 23 35.5t37 14.5q18 0 27 -12t9 -25q0 -6 -2 -13q-6 -21 -23 -35q-18 -15 -37 -15t-27.5 12t-8.5 25q0 6 2 13z" />
    <glyph glyph-name="uni0308" unicode="&#x308;" horiz-adv-x="0" 
d="M-465 628q6 22 24.5 37t38.5 15q21 0 29.5 -12.5t8.5 -24.5q0 -7 -2 -15q-5 -21 -24 -36t-39 -15t-29 12.5t-9 25.5q0 6 2 13zM-281 628q5 22 24 37t39 15t29 -12.5t9 -26.5q0 -6 -2 -13q-6 -21 -24.5 -36t-38.5 -15q-21 0 -29.5 12.5t-8.5 24.5q0 6 2 14z" />
    <glyph glyph-name="uni030A" unicode="&#x30a;" horiz-adv-x="0" 
d="M-383 650q10 40 44 67.5t72 27.5q37 0 53 -23t16 -46q0 -12 -3 -26q-11 -39 -46 -67q-34 -28 -71 -28t-53 23t-16 45q0 13 4 27zM-345 606q12 -19 36 -19q22 0 44.5 19t27.5 36t5 26q0 14 -10 29.5t-34 15.5q-23 0 -45 -19t-28 -44q-3 -10 -3 -19q0 -14 7 -25z" />
    <glyph glyph-name="uni030B" unicode="&#x30b;" horiz-adv-x="0" 
d="M-469 575l-11 15l148 97l32 -42zM-321 575l-11 15l147 97l33 -42z" />
    <glyph glyph-name="uni030C" unicode="&#x30c;" horiz-adv-x="0" 
d="M-278 702l136 -82l179 82l8 -13l-206 -135l-133 135z" />
    <glyph glyph-name="uni0312" unicode="&#x312;" horiz-adv-x="0" 
d="M-113 624q9 36 42 68.5t73 48.5h17q-33 -17 -54 -44.5t-26 -43.5q5 1 10 1q18 0 26.5 -11.5t8.5 -25.5q0 -6 -1 -13q-5 -20 -22.5 -33t-36.5 -13q-23 0 -31.5 14.5t-8.5 28.5q0 11 3 23z" />
    <glyph glyph-name="uni0326" unicode="&#x326;" horiz-adv-x="0" 
d="M-293 -211q30 15 49 40t23 39q-4 -1 -8 -1q-17 0 -25 10t-8 22q0 6 2 13q4 18 19.5 29.5t33.5 11.5q21 0 28.5 -13t7.5 -26q0 -9 -3 -20q-8 -32 -38 -61.5t-66 -43.5h-15z" />
    <glyph glyph-name="uni0327" unicode="&#x327;" horiz-adv-x="0" 
d="M-334 -133q27 -33 58 -33q4 0 24.5 3t28.5 38q2 6 2 11q0 19 -22.5 32t-65.5 13l79 84h38l-65 -66h7q37 0 59 -19t22 -44q0 -10 -3 -21q-15 -58 -85 -60h-6q-51 0 -78 33z" />
    <glyph glyph-name="uni0328" unicode="&#x328;" horiz-adv-x="0" 
d="M-259 -8q42 36 90 37h5q-39 -15 -60 -44.5t-21 -59.5q0 -27 14.5 -35t27.5 -8q10 0 29.5 5t47.5 26v-17q-48 -54 -103 -54q-35 0 -53 20.5t-18 48.5q0 45 41 81z" />
    <glyph glyph-name="Wgrave" unicode="&#x1e80;" horiz-adv-x="927" 
d="M153 717l1 3h106l-1 -3q-22 -49 -22 -117v-16l16 -508l280 504l-1 9q-1 74 -21 128l1 3l106 -1l-1 -3q-22 -48 -22 -112q0 -10 1 -21l16 -511l269 486q51 94 51 155v4l1 3h93l-1 -3q-50 -55 -93 -130l-323 -587h-56l-18 520l-285 -520h-54l-21 587q-5 82 -22 130z
M483 873l66 54l161 -119l-18 -15z" />
    <glyph glyph-name="wgrave" unicode="&#x1e81;" horiz-adv-x="692" 
d="M40 174l50 185q17 63 17 104q0 14 -2 26v3h81l-85 -312q-11 -42 -11 -72q0 -18 7 -43.5t44 -25.5q57 0 112 83t93 197l11 40q18 64 18 106q0 13 -2 24v3h80l-87 -320q-12 -43 -12 -73q0 -65 56 -65q77 0 143.5 99.5t66.5 224.5q0 14 -1 29q-2 35 -17 85l86 26
q0 -38 -8 -81q-11 -103 -43.5 -186.5t-75.5 -133.5t-89 -76.5t-89 -26.5q-52 0 -70.5 31t-18.5 64q0 32 12 76l3 12q-93 -183 -196 -183q-53 0 -68.5 33t-15.5 66q0 34 11 81zM388 699l161 -119l-18 -15l-209 80z" />
    <glyph glyph-name="Wacute" unicode="&#x1e82;" horiz-adv-x="927" 
d="M153 717l1 3h106l-1 -3q-22 -49 -22 -117v-16l16 -508l280 504l-1 9q-1 74 -21 128l1 3l106 -1l-1 -3q-22 -48 -22 -112q0 -10 1 -21l16 -511l269 486q51 94 51 155v4l1 3h93l-1 -3q-50 -55 -93 -130l-323 -587h-56l-18 520l-285 -520h-54l-21 587q-5 82 -22 130z
M482 809l192 119l52 -54l-230 -80z" />
    <glyph glyph-name="wacute" unicode="&#x1e83;" horiz-adv-x="692" 
d="M40 174l50 185q17 63 17 104q0 14 -2 26v3h81l-85 -312q-11 -42 -11 -72q0 -18 7 -43.5t44 -25.5q57 0 112 83t93 197l11 40q18 64 18 106q0 13 -2 24v3h80l-87 -320q-12 -43 -12 -73q0 -65 56 -65q77 0 143.5 99.5t66.5 224.5q0 14 -1 29q-2 35 -17 85l86 26
q0 -38 -8 -81q-11 -103 -43.5 -186.5t-75.5 -133.5t-89 -76.5t-89 -26.5q-52 0 -70.5 31t-18.5 64q0 32 12 76l3 12q-93 -183 -196 -183q-53 0 -68.5 33t-15.5 66q0 34 11 81zM321 581l192 119l52 -54l-230 -80z" />
    <glyph glyph-name="Wdieresis" unicode="&#x1e84;" horiz-adv-x="927" 
d="M154 720h106l-1 -3q-22 -49 -22 -117v-16l16 -508l280 504l-1 9q-1 74 -21 128l1 3l106 -1l-1 -3q-22 -48 -22 -112q0 -10 1 -21l16 -511l269 486q51 94 51 155v4l1 3h93l-1 -3q-50 -55 -93 -130l-323 -587h-56l-18 520l-285 -520h-54l-21 587q-5 82 -22 130zM460 856
q6 22 24.5 37t38.5 15q21 0 29.5 -12.5t8.5 -24.5q0 -7 -2 -15q-5 -21 -24 -36t-39 -15t-29 12.5t-9 25.5q0 6 2 13zM644 856q5 22 24 37t39 15t29 -12.5t9 -26.5q0 -6 -2 -13q-6 -21 -24.5 -36t-38.5 -15q-21 0 -29.5 12.5t-8.5 24.5q0 6 2 14z" />
    <glyph glyph-name="wdieresis" unicode="&#x1e85;" horiz-adv-x="692" 
d="M40 174l50 185q17 63 17 104q0 14 -2 26v3h81l-85 -312q-11 -42 -11 -72q0 -18 7 -43.5t44 -25.5q57 0 112 83t93 197l11 40q18 64 18 106q0 13 -2 24v3h80l-87 -320q-12 -43 -12 -73q0 -65 56 -65q77 0 143.5 99.5t66.5 224.5q0 14 -1 29q-2 35 -17 85l86 26
q0 -38 -8 -81q-11 -103 -43.5 -186.5t-75.5 -133.5t-89 -76.5t-89 -26.5q-52 0 -70.5 31t-18.5 64q0 32 12 76l3 12q-93 -183 -196 -183q-53 0 -68.5 33t-15.5 66q0 34 11 81zM299 628q6 22 24.5 37t38.5 15q21 0 29.5 -12.5t8.5 -24.5q0 -7 -2 -15q-5 -21 -24 -36t-39 -15
t-29 12.5t-9 25.5q0 6 2 13zM483 628q5 22 24 37t39 15t29 -12.5t9 -26.5q0 -6 -2 -13q-6 -21 -24.5 -36t-38.5 -15q-21 0 -29.5 12.5t-8.5 24.5q0 6 2 14z" />
    <glyph glyph-name="Germandbls" unicode="&#x1e9e;" horiz-adv-x="600" 
d="M-28 0l1 3q33 66 50 128l109 406q15 57 46 98.5t71.5 63.5t82 31.5t87.5 9.5q134 0 229 -77l-266 -291q80 -2 113.5 -54t33.5 -102q0 -26 -7 -54q-19 -72 -78.5 -121t-100 -51t-44.5 -2q-73 0 -148 55l8 21q62 -39 119 -39q4 0 37 2t79.5 39t61.5 93q5 21 5 41
q0 51 -39 95.5t-114 44.5q-11 0 -22 -1l275 313q-52 57 -151 57q-75 0 -134.5 -43.5t-82.5 -131.5l-143 -534h-78z" />
    <glyph glyph-name="Ygrave" unicode="&#x1ef2;" horiz-adv-x="595" 
d="M150 720h112l-1 -3q-11 -25 -11 -61q0 -30 8 -68l60 -287l210 266q74 97 74 149l1 4h96l-1 -3q-5 -5 -27.5 -29t-39 -43.5t-32.5 -40.5l-269 -344l-35 -129q-16 -57 -18 -128l-1 -3h-98v3q35 70 51 128l34 129l-75 344q-10 46 -39 113zM343 873l66 54l161 -119l-18 -15z
" />
    <glyph glyph-name="ygrave" unicode="&#x1ef3;" horiz-adv-x="497" 
d="M-84 -147l42 68h4q29 -74 103 -74h4q54 0 115 45q9 177 9 311q0 87 -4 155q-5 96 -44 96q-6 0 -12 -2t-12 -6t-11 -8.5t-12 -12.5t-11.5 -14t-12.5 -17t-12.5 -18t-13 -20.5t-13.5 -20.5l-5 9q16 33 28 54t30.5 47.5t39 39.5t43.5 13q67 0 73 -112q4 -64 4 -154
q0 -121 -7 -289q72 77 122.5 187.5t57.5 211.5q1 18 1 35q0 51 -11 96l86 25q-3 -142 -64.5 -299.5t-167 -272.5t-218.5 -119q-8 -1 -16 -1q-69 0 -115 47zM270 699l161 -119l-18 -15l-209 80z" />
    <glyph glyph-name="endash" unicode="&#x2013;" horiz-adv-x="560" 
d="M64 292l1 32h434l-1 -32h-434z" />
    <glyph glyph-name="emdash" unicode="&#x2014;" horiz-adv-x="892" 
d="M64 292l1 32h766l-2 -32h-765z" />
    <glyph glyph-name="quoteleft" unicode="&#x2018;" horiz-adv-x="201" 
d="M149 459q38 237 45 261h66q-6 -24 -20.5 -65t-39 -104.5t-34.5 -91.5h-17z" />
    <glyph glyph-name="quoteright" unicode="&#x2019;" horiz-adv-x="192" 
d="M144 459q5 29 14.5 91.5t17 104t14.5 65.5h65q-6 -28 -94 -261h-17z" />
    <glyph glyph-name="quotesinglbase" unicode="&#x201a;" horiz-adv-x="219" 
d="M-30 -94q33 17 54.5 45t24.5 43q-25 -3 -37 11.5t-6 37.5q5 20 22.5 33t36.5 13q23 0 33.5 -18.5t2.5 -47.5q-9 -35 -42 -68t-73 -49h-16z" />
    <glyph glyph-name="quotedblleft" unicode="&#x201c;" horiz-adv-x="310" 
d="M157 459q4 31 11.5 92.5t13.5 103t12 65.5h66q-4 -19 -14.5 -52t-20 -61.5t-26.5 -77t-25 -70.5h-17zM263 459q3 24 8.5 71t9.5 76t9 62t10 52h66q-5 -24 -18.5 -65.5t-35.5 -103.5t-32 -92h-17z" />
    <glyph glyph-name="quotedblright" unicode="&#x201d;" horiz-adv-x="324" 
d="M107 459q12 26 39.5 91t46 105.5t31.5 64.5h65q-12 -24 -36 -62.5t-70.5 -109.5t-58.5 -89h-17zM213 459q12 26 39.5 91t46 105.5t31.5 64.5h65q-12 -24 -37.5 -64.5t-69 -106t-59.5 -90.5h-16z" />
    <glyph glyph-name="quotedblbase" unicode="&#x201e;" horiz-adv-x="219" 
d="M65 89q23 0 33.5 -18.5t2.5 -47.5q-9 -35 -42 -68t-73 -49h-16q33 17 54.5 45t24.5 43q-25 -3 -37 11.5t-6 37.5q5 20 22.5 33t36.5 13z" />
    <glyph glyph-name="dagger" unicode="&#x2020;" horiz-adv-x="457" 
d="M220 270l75 277h-142l8 31h142l38 142h31l-39 -142h141l-8 -31h-141l-74 -277h-31z" />
    <glyph glyph-name="daggerdbl" unicode="&#x2021;" horiz-adv-x="457" 
d="M220 270l38 139h-142l8 31h142l29 107h-142l8 31h142l38 142h31l-39 -142h141l-8 -31h-141l-29 -107h141l-8 -31h-141l-37 -139h-31z" />
    <glyph glyph-name="bullet" unicode="&#x2022;" horiz-adv-x="305" 
d="M154 251q-37 -1 -57.5 28t-10.5 69t46 69t74 28q39 -1 59 -29t9 -68q-10 -40 -45 -68t-75 -29z" />
    <glyph glyph-name="ellipsis" unicode="&#x2026;" horiz-adv-x="623" 
d="M45 -7q-19 0 -29 14.5t-5 34.5t22.5 34t36.5 14t29 -14.5t5 -34.5t-22.5 -34t-36.5 -14zM246 -7q-19 0 -29 14.5t-5 34.5t22.5 34t36.5 14t28.5 -14.5t4.5 -34.5t-22 -34t-36 -14zM446 -7q-19 0 -28.5 14.5t-4.5 34.5t22.5 34t35.5 14q19 0 29 -14.5t5 -34.5t-22.5 -34
t-36.5 -14z" />
    <glyph glyph-name="perthousand" unicode="&#x2030;" horiz-adv-x="1100" 
d="M70 0l674 720h35l-673 -720h-36zM238 409q-56 0 -81.5 44t-7.5 112q19 68 67.5 111.5t104.5 43.5q57 0 83.5 -43.5t7.5 -111.5q-18 -68 -68 -112t-106 -44zM246 439q32 0 63.5 35t46.5 91q14 56 1.5 90.5t-44.5 34.5t-63 -35t-46 -90q-14 -56 -1.5 -91t43.5 -35zM528 0
q-56 0 -81.5 44t-6.5 112q18 68 66.5 111.5t105.5 43.5q56 0 82.5 -43.5t8.5 -111.5q-19 -68 -68.5 -112t-106.5 -44zM841 0q-56 0 -82 44t-7 112t67.5 111.5t104.5 43.5t82.5 -43.5t8.5 -111.5q-19 -68 -68.5 -112t-105.5 -44zM536 30q32 0 63.5 35t46.5 91q14 56 1.5 90.5
t-44.5 34.5t-63 -35t-46 -90q-14 -56 -1.5 -91t43.5 -35zM849 30q32 0 64 35t47 91q14 56 1 90.5t-45 34.5q-31 0 -62.5 -35t-46.5 -90q-14 -56 -1.5 -91t43.5 -35z" />
    <glyph glyph-name="guilsinglleft" unicode="&#x2039;" horiz-adv-x="314" 
d="M171 72l-110 205l220 205h44l-220 -205l110 -205h-44z" />
    <glyph glyph-name="guilsinglright" unicode="&#x203a;" horiz-adv-x="323" 
d="M53 72h-43l219 205l-110 205h44l110 -205z" />
    <glyph glyph-name="fraction" unicode="&#x2044;" horiz-adv-x="250" 
d="M-199 -32l731 783h35l-731 -783h-35z" />
    <glyph glyph-name="Euro" unicode="&#x20ac;" horiz-adv-x="636" 
d="M315 -12q-108 0 -166 82t-42 214h-72l8 31h68q5 26 10 44q3 10 14 44h-68l8 31h71q56 134 157.5 215t211.5 81q89 0 182 -52l-27 -102l-6 -2q-45 122 -158 122q-92 0 -167.5 -70t-122.5 -192h276l-8 -31h-278q-7 -20 -13 -42q-9 -36 -11 -46h278l-8 -31h-275
q-16 -120 25.5 -191t124.5 -71q112 0 222 123l5 -2l-27 -102q-120 -53 -212 -53z" />
    <glyph glyph-name="trademark" unicode="&#x2122;" horiz-adv-x="728" 
d="M196 371q21 40 43 124l55 204h-14q-43 0 -64 -9.5t-46 -38.5l19 69h255l-18 -69q-10 29 -25.5 38.5t-58.5 9.5h-13l-55 -204q-22 -82 -23 -124h-55zM386 371q26 47 57 161l17 64q23 85 19 124h61l18 -305l188 305h47q-21 -40 -43 -124l-27 -101q-21 -81 -24 -124h-55
q22 46 43 124l41 155l-173 -279h-32l-18 286q-10 -23 -20 -61l-17 -64q-32 -118 -29 -161h-53z" />
    <glyph glyph-name="oneeighth" unicode="&#x215b;" horiz-adv-x="732" 
d="M-30 -32l731 783h35l-731 -783h-35zM123 363v1q16 32 26 66l66 249h-53l3 13q63 18 104 52l-84 -314q-6 -25 -9 -66v-1h-53zM525 -9q-46 0 -75 27t-17 71q17 65 105 93q-65 34 -49 95q11 39 50 65t88 26q46 0 70 -25t14 -64q-15 -61 -93 -85q72 -35 54 -102
q-11 -41 -55 -71t-92 -30zM598 202q64 27 78 75q8 31 -6.5 50t-48.5 19q-33 0 -59 -17.5t-34 -44.5q-16 -54 70 -82zM531 14q35 0 65 21.5t38 52.5q14 54 -68 81l-9 3q-74 -28 -88 -80q-9 -32 9 -55t53 -23z" />
    <glyph glyph-name="threeeighths" unicode="&#x215c;" horiz-adv-x="855" 
d="M93 -32l731 783h35l-731 -783h-35zM194 357q-52 0 -98 33l20 53q4 8 6 2q22 -66 77 -66q32 0 58.5 21.5t34.5 53.5q11 40 -14 62.5t-66 23.5l4 16q40 1 77 25t47 61q8 30 -6 50.5t-45 20.5q-53 0 -111 -63q-5 -5 -5 -1q0 1 1 2l8 51q68 32 113 32q46 0 70.5 -25.5
t13.5 -67.5q-19 -69 -103 -92q75 -22 56 -93q-12 -44 -52 -71.5t-86 -27.5zM648 -9q-46 0 -75 27t-17 71q17 65 105 93q-65 34 -49 95q11 39 50 65t88 26q46 0 70 -25t14 -64q-15 -61 -93 -85q72 -35 54 -102q-11 -41 -55 -71t-92 -30zM721 202q64 27 78 75q8 31 -6.5 50
t-48.5 19q-33 0 -59 -17.5t-34 -44.5q-16 -54 70 -82zM654 14q35 0 65 21.5t38 52.5q14 54 -68 81l-9 3q-74 -28 -88 -80q-9 -32 9 -55t53 -23z" />
    <glyph glyph-name="fiveeighths" unicode="&#x215d;" horiz-adv-x="853" 
d="M91 -32l731 783h35l-731 -783h-35zM181 357q-51 0 -86 37l19 53h4q20 -68 69 -68q36 0 65.5 27t40.5 71q11 42 -4 67t-52 25q-43 0 -102 -33l70 193h90q69 0 104 22l-25 -57h-159l-44 -120q46 22 79 22q50 0 72.5 -33.5t10.5 -83.5q-15 -53 -58 -87.5t-94 -34.5zM646 -9
q-46 0 -75 27t-17 71q17 65 105 93q-65 34 -49 95q11 39 50 65t88 26q46 0 70 -25t14 -64q-15 -61 -93 -85q72 -35 54 -102q-11 -41 -55 -71t-92 -30zM719 202q64 27 78 75q8 31 -6.5 50t-48.5 19q-33 0 -59 -17.5t-34 -44.5q-16 -54 70 -82zM652 14q35 0 65 21.5t38 52.5
q14 54 -68 81l-9 3q-74 -28 -88 -80q-9 -32 9 -55t53 -23z" />
    <glyph glyph-name="seveneighths" unicode="&#x215e;" horiz-adv-x="867" 
d="M105 -32l731 783h35l-731 -783h-35zM131 363q34 56 104 154t137 175h-105q-59 0 -104 -22l33 59h227q-128 -153 -209 -301q-28 -54 -30 -65h-53zM660 -9q-46 0 -75 27t-17 71q17 65 105 93q-65 34 -49 95q11 39 50 65t88 26q46 0 70 -25t14 -64q-15 -61 -93 -85
q72 -35 54 -102q-11 -41 -55 -71t-92 -30zM733 202q64 27 78 75q8 31 -6.5 50t-48.5 19q-33 0 -59 -17.5t-34 -44.5q-16 -54 70 -82zM666 14q35 0 65 21.5t38 52.5q14 54 -68 81l-9 3q-74 -28 -88 -80q-9 -32 9 -55t53 -23z" />
    <glyph glyph-name="arrowleft" unicode="&#x2190;" horiz-adv-x="616" 
d="M245 90l-163 224l284 225l18 -26l-230 -182h420l-8 -34h-429l137 -184z" />
    <glyph glyph-name="arrowup" unicode="&#x2191;" horiz-adv-x="577" 
d="M225 73l115 429l-235 -187l-16 22l284 224l164 -224l-28 -22l-135 187l-115 -429h-34z" />
    <glyph glyph-name="arrowright" unicode="&#x2192;" horiz-adv-x="617" 
d="M287 90l-19 25l231 182h-421l9 34h429l-137 185l28 22l164 -224z" />
    <glyph glyph-name="arrowdown" unicode="&#x2193;" horiz-adv-x="577" 
d="M241 68l-165 224l29 22l134 -186l115 428h34l-115 -428l236 186l16 -22z" />
    <glyph glyph-name="arrowboth" unicode="&#x2194;" horiz-adv-x="867" 
d="M657 539l164 -225l-285 -224l-18 25l231 182h-612l137 -185l-29 -22l-163 224l284 225l18 -26l-231 -182h612l-137 185z" />
    <glyph glyph-name="arrowupdn" unicode="&#x2195;" horiz-adv-x="577" 
d="M295 200l-53 -196l236 187l18 -25l-284 -223l-167 226l29 22l134 -187l115 429h1l52 195l-236 -187l-18 25l284 224l167 -226l-29 -23l-134 187z" />
    <glyph glyph-name="uni2196" unicode="&#x2196;" horiz-adv-x="486" 
d="M368 136l-221 303l-69 -263h-33l86 317h317l-9 -31l-262 1l222 -303z" />
    <glyph glyph-name="uni2197" unicode="&#x2197;" horiz-adv-x="486" 
d="M59 136l-18 24l385 303l-264 -2l9 32h316l-84 -317h-32l72 263z" />
    <glyph glyph-name="uni2198" unicode="&#x2198;" horiz-adv-x="486" 
d="M109 136l-27 27l239 4l-177 274l6 49l205 -272l84 211l33 24l-71 -283z" />
    <glyph glyph-name="uni2199" unicode="&#x2199;" horiz-adv-x="486" 
d="M318 135l-273 34l80 283l20 -25l-29 -209l351 271l-21 -48l-324 -276l237 -3z" />
    <glyph glyph-name="minus" unicode="&#x2212;" horiz-adv-x="550" 
d="M69 314l8 34h450l-8 -34h-450z" />
    <glyph glyph-name="notequal" unicode="&#x2260;" horiz-adv-x="567" 
d="M100 166l85 76h-127l10 33h155l120 109h-247l10 34h275l85 75h45l-84 -75h126l-9 -34h-155l-121 -109h247l-9 -33h-276l-85 -76h-45z" />
    <glyph glyph-name="lessequal" unicode="&#x2264;" horiz-adv-x="473" 
d="M386 145l-295 211l9 34l407 211l-10 -39l-363 -189l262 -189zM13 72l8 34h353l-9 -34h-352z" />
    <glyph glyph-name="greaterequal" unicode="&#x2265;" horiz-adv-x="481" 
d="M37 145l10 39l364 189l-262 189l10 39l295 -211l-10 -34zM18 72l9 34h353l-9 -34h-353z" />
    <glyph glyph-name="lozenge" unicode="&#x25ca;" horiz-adv-x="523" 
d="M190 0l-105 320l259 320h25l105 -320l-259 -320h-25zM211 39l228 281l-91 281l-228 -281z" />
    <glyph glyph-name="g.ss01" horiz-adv-x="476" 
d="M-12 59q17 64 107 99q-52 38 -52 102q0 25 8 54q22 82 92.5 133t148.5 51q60 0 100 -32q51 55 118 55q13 0 27 -2l-28 -61l-3 -1q-21 15 -47 15t-57 -14q40 -38 40 -94q0 -23 -7 -50q-22 -83 -93.5 -134t-149.5 -51q-46 0 -80 18q-63 -30 -72 -62q-2 -5 -2 -10
q0 -16 23 -25t63 -9h120q64 0 88.5 -22t24.5 -51q0 -14 -5 -30q-18 -67 -82 -98t-138 -31q-18 0 -36 2l10 41q33 -6 62 -6q40 0 84.5 15.5t57.5 61.5q2 9 2 16q0 20 -20 33t-73 13h-124q-65 0 -87.5 15.5t-22.5 37.5q0 10 3 21zM121 200q24 -41 80 -41q55 0 102 41
q46 41 60.5 93.5t14.5 79.5q0 32 -19.5 64t-74.5 32q-56 0 -101.5 -40.5t-65.5 -114.5q-9 -33 -9 -60q0 -32 13 -54z" />
    <glyph glyph-name="E_L" horiz-adv-x="884" 
d="M-23 0v3q31 59 49 128l117 458q15 57 17 128v3h430l-23 -89h-3q-76 57 -133 57h-200l-78 -301h141q59 0 145 27h3l-21 -83h-3q-69 26 -132 26h-140l-83 -325h203q56 0 162 57h4l-22 -89h-433zM515 195q31 62 46 122l71 278q15 55 17 122l1 3h84l-1 -3q-29 -63 -45 -122
l-95 -371h119q60 0 128 49h2l-21 -81h-307z" />
    <glyph glyph-name="L_A" horiz-adv-x="723" 
d="M226 200l1 3q25 28 68 98l208 345q19 32 19 57q0 8 -2 15l1 2h78l46 -423q7 -66 18 -94l-1 -3h-93l1 3q15 32 15 80q0 22 -3 47l-5 43h-206l-11 -19q-56 -91 -56 -148v-2l-1 -4h-77zM-25 0v3q33 67 49 128l117 458q15 57 17 128v3h95l-1 -3q-33 -67 -49 -128l-142 -557
h171q62 0 165 72h5l-27 -104h-400zM574 404l-27 262l-158 -262h185z" />
    <glyph glyph-name="L_E" horiz-adv-x="721" 
d="M-3 0v3q31 59 49 128l117 458q15 57 17 128v3h95l-1 -3q-33 -67 -49 -128l-142 -557h171q61 0 166 72h4l-27 -104h-400zM350 293l83 326q13 52 13 99l1 2h324l-20 -80h-3q-5 4 -17 15t-20 17t-23 12t-31 6h-150l-54 -210h101q52 0 107 19h3l-17 -68h-3q-47 20 -98 20
h-100l-58 -229h153q16 0 33.5 6t29 12.5t29 17t24.5 14.5h3l-20 -80h-328v2q26 53 38 99z" />
    <glyph glyph-name="N_o" horiz-adv-x="1175" 
d="M866 178q-95 0 -143 76t-17 193t119.5 192t182.5 75q96 0 144.5 -75t17.5 -192q-32 -117 -120.5 -193t-183.5 -76zM4 15l1 5q53 90 72 162l106 397q16 63 2 123l1 3h80l243 -587l112 420q20 72 15 163l1 4h94l-1 -4q-54 -93 -72 -163l-140 -523h-43l-247 596l-115 -429
q-19 -70 -14 -162l-1 -5h-94zM874 207q73 0 139.5 68.5t94.5 171.5t-2.5 171t-104.5 68q-73 0 -139.5 -68.5t-93.5 -171.5q-28 -103 2.5 -171t103.5 -68zM821 10q-20 0 -30 13.5t-6 33.5q5 19 23 33t38 14q19 0 29.5 -14t5.5 -33q-5 -20 -23 -33.5t-37 -13.5z" />
    <glyph glyph-name="t_i" horiz-adv-x="607" 
d="M555 723q19 0 29 -14.5t5 -35.5t-23 -35.5t-37 -14.5t-29 14.5t-5 35.5t23 35.5t37 14.5zM426 96q-13 -51 8 -46q29 5 85 84l36 57l6 -9q-35 -79 -79 -130.5t-80 -51.5q-24 0 -36.5 20t0.5 68l73 275q13 48 13 97h-244l-85 -314q-29 -107 22 -107q29 0 67.5 35.5
t80.5 111.5l6 -8q-80 -184 -178 -184q-44 0 -60.5 37t-0.5 95l89 334h-69l5 19q53 10 88.5 46t62.5 93h15l-34 -126h315z" />
    <glyph glyph-name="t_t" horiz-adv-x="686" 
d="M553 460l-85 -314q-29 -107 21 -107q30 0 68.5 35t80.5 112l5 -8q-80 -184 -177 -184q-44 0 -61 37t-1 95l90 334h-286l-85 -314q-29 -107 22 -107q29 0 67.5 35.5t80.5 111.5l6 -8q-80 -184 -178 -184q-44 0 -60.5 37t-0.5 95l89 334h-69l5 19q53 10 88.5 46t62.5 93h15
l-34 -126h253q63 29 110 126h15l-34 -126h135l-9 -32h-134z" />
    <glyph glyph-name="t_u" horiz-adv-x="897" 
d="M854 184l5 -8q-34 -79 -78 -130.5t-81 -51.5q-24 0 -37 18.5t0 66.5l28 101q-45 -83 -101.5 -134.5t-120.5 -51.5q-56 0 -84.5 41t-5.5 130l53 194q15 55 15 101h-239l-85 -314q-29 -107 22 -107q29 0 67.5 35.5t80.5 111.5l6 -8q-80 -184 -178 -184q-44 0 -60.5 37
t-0.5 95l89 334h-69l5 19q53 10 88.5 46t62.5 93h15l-34 -126h310l-88 -320q-18 -68 -0.5 -100.5t55.5 -32.5q67 0 134.5 92t105.5 206l42 155h59l-117 -426q-5 -21 9 -19q27 4 77 65q27 32 50 72z" />
    <glyph glyph-name="t_w" horiz-adv-x="974" 
d="M883 472l86 26q0 -38 -8 -81q-11 -103 -43.5 -186.5t-75.5 -133.5t-89 -76.5t-89 -26.5q-52 0 -76.5 41t-0.5 130l3 12q-93 -183 -196 -183q-53 0 -74 44.5t1 135.5l51 185q15 60 16 101h-180l-85 -314q-29 -107 22 -107q29 0 67.5 35.5t80.5 111.5l6 -8
q-80 -184 -178 -184q-44 0 -60.5 37t-0.5 95l89 334h-69l5 19q53 10 88.5 46t62.5 93h15l-34 -126h250l-85 -312q-18 -66 -7.5 -103.5t47.5 -37.5q57 0 112 83t93 197l11 40q23 84 16 130v3h81l-88 -320q-37 -138 44 -138q77 0 147 105t62 248q-2 35 -17 85z" />
    <glyph glyph-name="zero.dnom" horiz-adv-x="340" 
d="M120 -8q-58 0 -81.5 54.5t-1.5 136.5q21 78 73.5 131.5t109.5 53.5t81 -53.5t3 -131.5q-22 -82 -74.5 -136.5t-109.5 -54.5zM125 14q43 0 80.5 46t57.5 123q20 72 7.5 117t-56.5 45q-42 0 -79 -45t-56 -117q-14 -52 -14 -89.5t15.5 -58.5t44.5 -21z" />
    <glyph glyph-name="one.dnom" horiz-adv-x="169" 
d="M25 -3v1q16 32 26 66l66 249h-53l3 13q63 18 104 52l-84 -314q-6 -25 -9 -66v-1h-53z" />
    <glyph glyph-name="two.dnom" horiz-adv-x="294" 
d="M-17 -3q30 31 73 74t67 67.5t50 53.5t40 51t19 41q8 27 -2.5 45t-36.5 18q-51 0 -110 -66q-3 -2 -5 -0.5t-1 3.5l10 51q63 33 113 33q42 0 63 -23.5t11 -62.5q-12 -44 -85 -114l-145 -137h74q61 0 95 19q6 2 4 -3l-20 -50h-214z" />
    <glyph glyph-name="three.dnom" horiz-adv-x="292" 
d="M96 -9q-52 0 -98 33l20 53q4 8 6 2q22 -66 77 -66q32 0 58.5 21.5t34.5 53.5q11 40 -14 62.5t-66 23.5l4 16q40 1 77 25t47 61q8 30 -6 50.5t-45 20.5q-53 0 -111 -63q-5 -5 -5 -1q0 1 1 2l8 51q68 32 113 32q46 0 70.5 -25.5t13.5 -67.5q-19 -69 -103 -92q75 -22 56 -93
q-12 -44 -52 -71.5t-86 -27.5z" />
    <glyph glyph-name="four.dnom" horiz-adv-x="307" 
d="M135 -3q20 38 31 82h-171l249 284h36l-70 -261h51l-6 -23h-51q-14 -55 -14 -82h-55zM42 102h131l57 213z" />
    <glyph glyph-name="five.dnom" horiz-adv-x="290" 
d="M83 -9q-51 0 -86 37l19 53h4q20 -68 69 -68q36 0 65.5 27t40.5 71q11 42 -4 67t-52 25q-43 0 -102 -33l70 193h90q69 0 104 22l-25 -57h-159l-44 -120q46 22 79 22q50 0 72.5 -33.5t10.5 -83.5q-15 -53 -58 -87.5t-94 -34.5z" />
    <glyph glyph-name="six.dnom" horiz-adv-x="316" 
d="M114 -9q-61 -1 -79.5 58t5.5 134q20 77 67 131t107 54q51 0 90 -30l-18 -52q0 -2 -1 -3t-3 1q-26 63 -73 63t-81 -51t-52 -129q48 59 110 59q46 0 67.5 -33.5t7.5 -83.5q-13 -51 -55.5 -84.5t-91.5 -33.5zM120 13q33 0 62 26.5t40 67.5q11 40 -2.5 66t-46.5 26
q-56 0 -104 -64q-9 -57 4.5 -89.5t46.5 -32.5z" />
    <glyph glyph-name="seven.dnom" horiz-adv-x="304" 
d="M33 -3q34 56 104 154t137 175h-105q-59 0 -104 -22l33 59h227q-128 -153 -209 -301q-28 -54 -30 -65h-53z" />
    <glyph glyph-name="eight.dnom" horiz-adv-x="313" 
d="M106 -9q-46 0 -75 27t-17 71q17 65 105 93q-65 34 -49 95q11 39 50 65t88 26q46 0 70 -25t14 -64q-15 -61 -93 -85q72 -35 54 -102q-11 -41 -55 -71t-92 -30zM179 202q64 27 78 75q8 31 -6.5 50t-48.5 19q-33 0 -59 -17.5t-34 -44.5q-16 -54 70 -82zM112 14q35 0 65 21.5
t38 52.5q14 54 -68 81l-9 3q-74 -28 -88 -80q-9 -32 9 -55t53 -23z" />
    <glyph glyph-name="nine.dnom" horiz-adv-x="320" 
d="M107 -9q-52 0 -91 30l18 52q1 5 5 4q2 0 2 -2q24 -62 71 -62q46 0 80.5 51t52.5 128q-49 -59 -111 -59q-46 0 -67.5 34t-7.5 84q13 50 55.5 83.5t91.5 33.5q61 1 80 -57.5t-5 -133.5q-20 -78 -67 -132t-107 -54zM147 161q56 -2 104 63q9 58 -4 90.5t-47 32.5
q-33 0 -61.5 -26.5t-39.5 -66.5q-11 -41 2 -67t46 -26z" />
    <glyph glyph-name="zero.numr" horiz-adv-x="340" 
d="M218 358q-58 0 -81.5 54.5t-1.5 136.5q21 78 73.5 131.5t109.5 53.5t81 -53.5t3 -131.5q-22 -82 -74.5 -136.5t-109.5 -54.5zM223 380q43 0 80.5 46t57.5 123q20 72 7.5 117t-56.5 45q-42 0 -79 -45t-56 -117q-14 -52 -14 -89.5t15.5 -58.5t44.5 -21z" />
    <glyph glyph-name="one.numr" horiz-adv-x="169" 
d="M123 363v1q16 32 26 66l66 249h-53l3 13q63 18 104 52l-84 -314q-6 -25 -9 -66v-1h-53z" />
    <glyph glyph-name="two.numr" horiz-adv-x="294" 
d="M81 363q30 31 73 74t67 67.5t50 53.5t40 51t19 41q8 27 -2.5 45t-36.5 18q-51 0 -110 -66q-3 -2 -5 -0.5t-1 3.5l10 51q63 33 113 33q42 0 63 -23.5t11 -62.5q-12 -44 -85 -114l-145 -137h74q61 0 95 19q6 2 4 -3l-20 -50h-214z" />
    <glyph glyph-name="three.numr" horiz-adv-x="292" 
d="M194 357q-52 0 -98 33l20 53q4 8 6 2q22 -66 77 -66q32 0 58.5 21.5t34.5 53.5q11 40 -14 62.5t-66 23.5l4 16q40 1 77 25t47 61q8 30 -6 50.5t-45 20.5q-53 0 -111 -63q-5 -5 -5 -1q0 1 1 2l8 51q68 32 113 32q46 0 70.5 -25.5t13.5 -67.5q-19 -69 -103 -92
q75 -22 56 -93q-12 -44 -52 -71.5t-86 -27.5z" />
    <glyph glyph-name="four.numr" horiz-adv-x="307" 
d="M233 363q20 38 31 82h-171l249 284h36l-70 -261h51l-6 -23h-51q-14 -55 -14 -82h-55zM140 468h131l57 213z" />
    <glyph glyph-name="five.numr" horiz-adv-x="290" 
d="M181 357q-51 0 -86 37l19 53h4q20 -68 69 -68q36 0 65.5 27t40.5 71q11 42 -4 67t-52 25q-43 0 -102 -33l70 193h90q69 0 104 22l-25 -57h-159l-44 -120q46 22 79 22q50 0 72.5 -33.5t10.5 -83.5q-15 -53 -58 -87.5t-94 -34.5z" />
    <glyph glyph-name="six.numr" horiz-adv-x="316" 
d="M212 357q-61 -1 -79.5 58t5.5 134q20 77 67 131t107 54q51 0 90 -30l-18 -52q0 -2 -1 -3t-3 1q-26 63 -73 63t-81 -51t-52 -129q48 59 110 59q46 0 67.5 -33.5t7.5 -83.5q-13 -51 -55.5 -84.5t-91.5 -33.5zM218 379q33 0 62 26.5t40 67.5q11 40 -2.5 66t-46.5 26
q-56 0 -104 -64q-9 -57 4.5 -89.5t46.5 -32.5z" />
    <glyph glyph-name="seven.numr" horiz-adv-x="304" 
d="M131 363q34 56 104 154t137 175h-105q-59 0 -104 -22l33 59h227q-128 -153 -209 -301q-28 -54 -30 -65h-53z" />
    <glyph glyph-name="eight.numr" horiz-adv-x="313" 
d="M204 357q-46 0 -75 27t-17 71q17 65 105 93q-65 34 -49 95q11 39 50 65t88 26q46 0 70 -25t14 -64q-15 -61 -93 -85q72 -35 54 -102q-11 -41 -55 -71t-92 -30zM277 568q64 27 78 75q8 31 -6.5 50t-48.5 19q-33 0 -59 -17.5t-34 -44.5q-16 -54 70 -82zM210 380
q35 0 65 21.5t38 52.5q14 54 -68 81l-9 3q-74 -28 -88 -80q-9 -32 9 -55t53 -23z" />
    <glyph glyph-name="nine.numr" horiz-adv-x="320" 
d="M205 357q-52 0 -91 30l18 52q1 5 5 4q2 0 2 -2q24 -62 71 -62q46 0 80.5 51t52.5 128q-49 -59 -111 -59q-46 0 -67.5 34t-7.5 84q13 50 55.5 83.5t91.5 33.5q61 1 80 -57.5t-5 -133.5q-20 -78 -67 -132t-107 -54zM245 527q56 -2 104 63q9 58 -4 90.5t-47 32.5
q-33 0 -61.5 -26.5t-39.5 -66.5q-11 -41 2 -67t46 -26z" />
    <glyph glyph-name="parenleft.case" horiz-adv-x="258" 
d="M145 -99q-61 52 -77.5 177t24.5 291q41 156 126.5 281.5t174.5 177.5v-5q-88 -83 -149 -209t-93 -245q-20 -73 -31 -148t-7 -166.5t35 -148.5z" />
    <glyph glyph-name="parenright.case" horiz-adv-x="257" 
d="M-75 -108v5q88 83 150.5 213t94.5 250q19 71 30 145t6 162.5t-35 146.5l3 5q60 -52 77.5 -172.5t-22.5 -286.5q-42 -157 -129 -286.5t-175 -181.5z" />
    <glyph glyph-name="braceleft.case" horiz-adv-x="264" 
d="M125 -89q-63 0 -93.5 33.5t-15.5 87.5q8 29 52 107.5t55 119.5q12 45 -1 63t-46 23l5 20q36 5 59 23t35 63q10 40 8 119t6 108q15 54 63 87.5t110 33.5q22 0 31 -1l-4 -13q-52 0 -90 -24t-50 -68q-8 -30 -5.5 -111.5t-7.5 -118.5q-21 -81 -99 -108q63 -26 41 -108
q-10 -37 -56 -118t-54 -112q-12 -44 13.5 -68t77.5 -24l-3 -13q-11 -1 -31 -1z" />
    <glyph glyph-name="braceright.case" horiz-adv-x="274" 
d="M-41 -89q-20 0 -30 1l4 13q52 0 90 24t50 68q9 31 6 112t7 118q21 81 99 108q-63 26 -41 108q10 37 56 118t54 112q12 44 -13.5 68t-77.5 24l4 13q9 1 31 1q62 0 92 -33.5t16 -87.5q-8 -30 -52.5 -108.5t-55.5 -118.5q-12 -45 1.5 -63t46.5 -23l-6 -20q-35 -5 -58 -23
t-35 -63q-11 -41 -9 -119t-5 -108q-14 -54 -62.5 -87.5t-111.5 -33.5z" />
    <glyph glyph-name="bracketleft.case" horiz-adv-x="240" 
d="M-31 -91l238 889h161l-2 -9q-14 -3 -39 -8.5t-31 -6.5t-20.5 -7t-17 -11t-10.5 -18t-12 -27.5t-11 -39.5l-170 -635q-7 -26 -11 -40.5t-2.5 -27.5t1 -18t11.5 -11.5t16 -7.5t28 -6t35 -7l-3 -9h-161z" />
    <glyph glyph-name="bracketright.case" horiz-adv-x="234" 
d="M85 -91h-155l2 9q12 2 37 7t29.5 6t19 7.5t17 11.5t10.5 18t12 27.5t11 40.5l171 635q7 25 10.5 39.5t2.5 27.5t-1 18t-10 11t-15 7t-26.5 6.5t-33.5 8.5l1 9h155z" />
    <glyph glyph-name="space.001" horiz-adv-x="265" 
 />
    <glyph glyph-name="newGlyph" horiz-adv-x="617" 
 />
    <glyph glyph-name="newGlyph.001" horiz-adv-x="617" 
 />
    <glyph glyph-name="bdpq" horiz-adv-x="644" 
d="M346 -5q-106 0 -162 102v38q23 -44 61.5 -74t89.5 -30q70 0 113.5 58.5t43.5 157.5q0 92 -37.5 153t-107.5 61q-87 0 -157 -114l6 48q62 104 168 104q87 0 141.5 -65.5t54.5 -178.5q0 -123 -62.5 -191.5t-151.5 -68.5z" />
    <glyph glyph-name="newGlyph.002" horiz-adv-x="617" 
 />
    <glyph glyph-name="newGlyph.003" horiz-adv-x="617" 
 />
    <glyph glyph-name="newGlyph.004" horiz-adv-x="617" 
 />
    <glyph glyph-name="newGlyph.005" horiz-adv-x="617" 
 />
    </font>
</defs>
</svg>
