<svg width="25" height="25" viewBox="0 0 25 25" xmlns="http://www.w3.org/2000/svg">
    <path d="M18.875 24.774H6.125A5.631 5.631 0 0 1 .5 19.149V6.399A5.631 5.631 0 0 1 6.125.774h12.75A5.631 5.631 0 0 1 24.5 6.399v12.75a5.631 5.631 0 0 1-5.625 5.625zM6.125 2.649a3.754 3.754 0 0 0-3.75 3.75v12.75a3.754 3.754 0 0 0 3.75 3.75h12.75a3.754 3.754 0 0 0 3.75-3.75V6.399a3.754 3.754 0 0 0-3.75-3.75H6.125zm12.984 2.343a1.172 1.172 0 1 0 0 2.344 1.172 1.172 0 0 0 0-2.344zM12.5 18.867a6.1 6.1 0 0 1-6.094-6.093c.335-8.085 11.854-8.082 12.188 0a6.1 6.1 0 0 1-6.094 6.093zm0-10.312a4.224 4.224 0 0 0-4.219 4.219c.232 5.596 8.207 5.595 8.438 0a4.224 4.224 0 0 0-4.219-4.22z" fill="#2C2C2C" fill-rule="nonzero"/>
</svg>
