<svg width="32" height="25" viewBox="0 0 32 25" xmlns="http://www.w3.org/2000/svg">
    <path d="M31.7 3.615c-1.142.482-2.36.801-3.629.956 1.306-.75 2.302-1.927 2.77-3.347a12.896 12.896 0 0 1-3.993 1.466 6.431 6.431 0 0 0-4.6-1.916c-3.487 0-6.294 2.72-6.294 6.057 0 .48.042.941.146 1.38-5.236-.245-9.869-2.658-12.981-6.333a5.919 5.919 0 0 0-.862 3.06c0 2.098 1.123 3.957 2.797 5.033a6.411 6.411 0 0 1-2.845-.746v.067c0 2.942 2.183 5.387 5.046 5.95-.513.135-1.072.2-1.652.2-.403 0-.81-.023-1.192-.104.816 2.398 3.132 4.161 5.885 4.218a12.98 12.98 0 0 1-7.809 2.583c-.516 0-1.012-.022-1.507-.083 2.79 1.73 6.096 2.718 9.661 2.718 11.59 0 17.926-9.231 17.926-17.232 0-.268-.01-.527-.023-.783 1.25-.853 2.3-1.918 3.156-3.144z" fill="#2C2C2C" fill-rule="nonzero"/>
</svg>
